{
	"patcher" : 	{
		"fileversion" : 1,
		"rect" : [ 0.0, 60.0, 897.0, 467.0 ],
		"bglocked" : 0,
		"defrect" : [ 0.0, 60.0, 897.0, 467.0 ],
		"openrect" : [ 0.0, 0.0, 0.0, 0.0 ],
		"openinpresentation" : 1,
		"default_fontsize" : 12.0,
		"default_fontface" : 0,
		"default_fontname" : "Arial",
		"gridonopen" : 0,
		"gridsize" : [ 15.0, 15.0 ],
		"gridsnaponopen" : 0,
		"toolbarvisible" : 1,
		"boxanimatetime" : 200,
		"imprint" : 0,
		"metadata" : [  ],
		"boxes" : [ 			{
				"box" : 				{
					"maxclass" : "comment",
					"text" : "Video Output #",
					"patching_rect" : [ 675.0, 30.0, 150.0, 20.0 ],
					"numoutlets" : 0,
					"presentation" : 1,
					"id" : "obj-65",
					"fontname" : "Arial",
					"bgcolor" : [ 0.843137, 0.741176, 0.431373, 1.0 ],
					"presentation_rect" : [ 540.0, 60.0, 93.0, 20.0 ],
					"numinlets" : 1,
					"fontsize" : 12.0
				}

			}
, 			{
				"box" : 				{
					"maxclass" : "comment",
					"text" : "11",
					"patching_rect" : [ 643.0, 387.0, 170.0, 24.0 ],
					"numoutlets" : 0,
					"presentation" : 1,
					"id" : "obj-63",
					"fontname" : "Arial",
					"bgcolor" : [ 0.843137, 0.741176, 0.431373, 1.0 ],
					"presentation_rect" : [ 570.0, 390.0, 29.0, 24.0 ],
					"numinlets" : 1,
					"fontsize" : 15.0
				}

			}
, 			{
				"box" : 				{
					"maxclass" : "comment",
					"text" : "10",
					"patching_rect" : [ 645.0, 357.0, 170.0, 24.0 ],
					"numoutlets" : 0,
					"presentation" : 1,
					"id" : "obj-62",
					"fontname" : "Arial",
					"bgcolor" : [ 0.843137, 0.741176, 0.431373, 1.0 ],
					"presentation_rect" : [ 570.0, 360.0, 32.0, 24.0 ],
					"numinlets" : 1,
					"fontsize" : 15.0
				}

			}
, 			{
				"box" : 				{
					"maxclass" : "comment",
					"text" : "9",
					"patching_rect" : [ 645.0, 327.0, 170.0, 24.0 ],
					"numoutlets" : 0,
					"presentation" : 1,
					"id" : "obj-61",
					"fontname" : "Arial",
					"bgcolor" : [ 0.843137, 0.741176, 0.431373, 1.0 ],
					"presentation_rect" : [ 570.0, 330.0, 22.0, 24.0 ],
					"numinlets" : 1,
					"fontsize" : 15.0
				}

			}
, 			{
				"box" : 				{
					"maxclass" : "comment",
					"text" : "8",
					"patching_rect" : [ 644.0, 297.0, 170.0, 24.0 ],
					"numoutlets" : 0,
					"presentation" : 1,
					"id" : "obj-60",
					"fontname" : "Arial",
					"bgcolor" : [ 0.843137, 0.741176, 0.431373, 1.0 ],
					"presentation_rect" : [ 570.0, 300.0, 22.0, 24.0 ],
					"numinlets" : 1,
					"fontsize" : 15.0
				}

			}
, 			{
				"box" : 				{
					"maxclass" : "comment",
					"text" : "7",
					"patching_rect" : [ 645.0, 265.0, 170.0, 24.0 ],
					"numoutlets" : 0,
					"presentation" : 1,
					"id" : "obj-59",
					"fontname" : "Arial",
					"bgcolor" : [ 0.843137, 0.741176, 0.431373, 1.0 ],
					"presentation_rect" : [ 570.0, 270.0, 22.0, 24.0 ],
					"numinlets" : 1,
					"fontsize" : 15.0
				}

			}
, 			{
				"box" : 				{
					"maxclass" : "comment",
					"text" : "6",
					"patching_rect" : [ 645.0, 236.0, 170.0, 24.0 ],
					"numoutlets" : 0,
					"presentation" : 1,
					"id" : "obj-58",
					"fontname" : "Arial",
					"bgcolor" : [ 0.843137, 0.741176, 0.431373, 1.0 ],
					"presentation_rect" : [ 570.0, 240.0, 22.0, 24.0 ],
					"numinlets" : 1,
					"fontsize" : 15.0
				}

			}
, 			{
				"box" : 				{
					"maxclass" : "comment",
					"text" : "5",
					"patching_rect" : [ 646.0, 209.0, 170.0, 24.0 ],
					"numoutlets" : 0,
					"presentation" : 1,
					"id" : "obj-57",
					"fontname" : "Arial",
					"bgcolor" : [ 0.843137, 0.741176, 0.431373, 1.0 ],
					"presentation_rect" : [ 570.0, 210.0, 22.0, 24.0 ],
					"numinlets" : 1,
					"fontsize" : 15.0
				}

			}
, 			{
				"box" : 				{
					"maxclass" : "comment",
					"text" : "4",
					"patching_rect" : [ 646.0, 177.0, 170.0, 24.0 ],
					"numoutlets" : 0,
					"presentation" : 1,
					"id" : "obj-56",
					"fontname" : "Arial",
					"bgcolor" : [ 0.843137, 0.741176, 0.431373, 1.0 ],
					"presentation_rect" : [ 570.0, 180.0, 22.0, 24.0 ],
					"numinlets" : 1,
					"fontsize" : 15.0
				}

			}
, 			{
				"box" : 				{
					"maxclass" : "comment",
					"text" : "3",
					"patching_rect" : [ 648.0, 148.0, 170.0, 24.0 ],
					"numoutlets" : 0,
					"presentation" : 1,
					"id" : "obj-55",
					"fontname" : "Arial",
					"bgcolor" : [ 0.843137, 0.741176, 0.431373, 1.0 ],
					"presentation_rect" : [ 570.0, 150.0, 22.0, 24.0 ],
					"numinlets" : 1,
					"fontsize" : 15.0
				}

			}
, 			{
				"box" : 				{
					"maxclass" : "comment",
					"text" : "2",
					"patching_rect" : [ 647.0, 121.0, 170.0, 24.0 ],
					"numoutlets" : 0,
					"presentation" : 1,
					"id" : "obj-54",
					"fontname" : "Arial",
					"bgcolor" : [ 0.843137, 0.741176, 0.431373, 1.0 ],
					"presentation_rect" : [ 570.0, 120.0, 22.0, 24.0 ],
					"numinlets" : 1,
					"fontsize" : 15.0
				}

			}
, 			{
				"box" : 				{
					"maxclass" : "comment",
					"text" : "1",
					"patching_rect" : [ 660.0, 105.0, 170.0, 24.0 ],
					"numoutlets" : 0,
					"presentation" : 1,
					"id" : "obj-53",
					"fontname" : "Arial",
					"bgcolor" : [ 0.843137, 0.741176, 0.431373, 1.0 ],
					"presentation_rect" : [ 570.0, 90.0, 22.0, 24.0 ],
					"numinlets" : 1,
					"fontsize" : 15.0
				}

			}
, 			{
				"box" : 				{
					"maxclass" : "comment",
					"text" : "CC assignment",
					"patching_rect" : [ 690.0, 75.0, 150.0, 20.0 ],
					"numoutlets" : 0,
					"presentation" : 1,
					"id" : "obj-51",
					"fontname" : "Arial",
					"bgcolor" : [ 1.0, 0.337255, 0.619608, 1.0 ],
					"presentation_rect" : [ 645.0, 60.0, 93.0, 20.0 ],
					"numinlets" : 1,
					"fontsize" : 12.0
				}

			}
, 			{
				"box" : 				{
					"maxclass" : "comment",
					"text" : "CC value",
					"patching_rect" : [ 660.0, 135.0, 150.0, 20.0 ],
					"numoutlets" : 0,
					"presentation" : 1,
					"id" : "obj-49",
					"fontname" : "Arial",
					"bgcolor" : [ 0.615686, 0.552941, 0.827451, 1.0 ],
					"presentation_rect" : [ 465.0, 60.0, 60.0, 20.0 ],
					"numinlets" : 1,
					"fontsize" : 12.0
				}

			}
, 			{
				"box" : 				{
					"maxclass" : "newobj",
					"text" : "s rstins",
					"patching_rect" : [ 450.0, 45.0, 49.0, 20.0 ],
					"numoutlets" : 0,
					"id" : "obj-47",
					"fontname" : "Arial",
					"numinlets" : 1,
					"fontsize" : 12.0
				}

			}
, 			{
				"box" : 				{
					"maxclass" : "message",
					"text" : "reset inputs",
					"patching_rect" : [ 450.0, 15.0, 73.0, 18.0 ],
					"numoutlets" : 1,
					"presentation" : 1,
					"outlettype" : [ "" ],
					"id" : "obj-46",
					"fontname" : "Arial",
					"presentation_rect" : [ 540.0, 30.0, 73.0, 18.0 ],
					"numinlets" : 2,
					"fontsize" : 12.0
				}

			}
, 			{
				"box" : 				{
					"maxclass" : "number",
					"patching_rect" : [ 60.0, 135.0, 50.0, 20.0 ],
					"numoutlets" : 2,
					"presentation" : 1,
					"bordercolor" : [ 0.047059, 0.913725, 0.913725, 1.0 ],
					"outlettype" : [ "int", "bang" ],
					"id" : "obj-44",
					"fontname" : "Arial",
					"bgcolor" : [ 0.945098, 0.913725, 0.407843, 1.0 ],
					"presentation_rect" : [ 225.0, 45.0, 50.0, 20.0 ],
					"numinlets" : 1,
					"fontsize" : 12.0
				}

			}
, 			{
				"box" : 				{
					"maxclass" : "preset",
					"patching_rect" : [ 15.0, 225.0, 100.0, 40.0 ],
					"numoutlets" : 4,
					"presentation" : 1,
					"bordercolor" : [ 0.615686, 0.552941, 0.827451, 1.0 ],
					"outlettype" : [ "preset", "int", "preset", "int" ],
					"id" : "obj-41",
					"bgcolor" : [ 0.917647, 0.937255, 0.670588, 1.0 ],
					"presentation_rect" : [ 195.0, 75.0, 100.0, 40.0 ],
					"numinlets" : 1,
					"preset_data" : [ 						{
							"number" : 1,
							"data" : [ 5, "obj-93", "number", "int", 103, 5, "obj-94", "number", "int", 95, 5, "obj-95", "number", "int", 0, 5, "obj-96", "number", "int", 34, 5, "obj-98", "number", "int", 124, 5, "obj-97", "number", "int", 25, 5, "obj-100", "number", "int", 53, 5, "obj-99", "number", "int", 127, 5, "obj-102", "number", "int", 64, 5, "obj-101", "number", "int", 0, 5, "obj-103", "number", "int", 95, 5, "obj-5", "number", "int", 50, 5, "obj-6", "number", "int", 51, 5, "obj-8", "number", "int", 52, 5, "obj-10", "number", "int", 53, 5, "obj-12", "number", "int", 54, 5, "obj-14", "number", "int", 55, 5, "obj-16", "number", "int", 56, 5, "obj-18", "number", "int", 57, 5, "obj-20", "number", "int", 58, 5, "obj-22", "number", "int", 59, 5, "obj-24", "number", "int", 60, 5, "obj-44", "number", "int", 1 ]
						}
, 						{
							"number" : 2,
							"data" : [ 5, "obj-93", "number", "int", 103, 5, "obj-94", "number", "int", 95, 5, "obj-95", "number", "int", 0, 5, "obj-96", "number", "int", 34, 5, "obj-98", "number", "int", 124, 5, "obj-97", "number", "int", 25, 5, "obj-100", "number", "int", 53, 5, "obj-99", "number", "int", 127, 5, "obj-102", "number", "int", 64, 5, "obj-101", "number", "int", 0, 5, "obj-103", "number", "int", 95, 5, "obj-5", "number", "int", 50, 5, "obj-6", "number", "int", 51, 5, "obj-8", "number", "int", 52, 5, "obj-10", "number", "int", 53, 5, "obj-12", "number", "int", 54, 5, "obj-14", "number", "int", 55, 5, "obj-16", "number", "int", 56, 5, "obj-18", "number", "int", 57, 5, "obj-20", "number", "int", 58, 5, "obj-22", "number", "int", 59, 5, "obj-24", "number", "int", 60, 5, "obj-44", "number", "int", 2 ]
						}
 ]
				}

			}
, 			{
				"box" : 				{
					"maxclass" : "newobj",
					"text" : "p presets",
					"patching_rect" : [ 15.0, 180.0, 64.0, 20.0 ],
					"numoutlets" : 1,
					"outlettype" : [ "int" ],
					"id" : "obj-40",
					"fontname" : "Arial",
					"numinlets" : 2,
					"fontsize" : 12.0,
					"patcher" : 					{
						"fileversion" : 1,
						"rect" : [ 25.0, 69.0, 201.0, 233.0 ],
						"bglocked" : 0,
						"defrect" : [ 25.0, 69.0, 201.0, 233.0 ],
						"openrect" : [ 0.0, 0.0, 0.0, 0.0 ],
						"openinpresentation" : 0,
						"default_fontsize" : 12.0,
						"default_fontface" : 0,
						"default_fontname" : "Arial",
						"gridonopen" : 0,
						"gridsize" : [ 12.0, 12.0 ],
						"gridsnaponopen" : 0,
						"toolbarvisible" : 1,
						"boxanimatetime" : 200,
						"imprint" : 0,
						"metadata" : [  ],
						"boxes" : [ 							{
								"box" : 								{
									"maxclass" : "outlet",
									"patching_rect" : [ 24.0, 192.0, 25.0, 25.0 ],
									"numoutlets" : 0,
									"id" : "obj-4",
									"numinlets" : 1,
									"comment" : ""
								}

							}
, 							{
								"box" : 								{
									"maxclass" : "inlet",
									"patching_rect" : [ 132.0, 24.0, 25.0, 25.0 ],
									"numoutlets" : 1,
									"outlettype" : [ "int" ],
									"id" : "obj-3",
									"numinlets" : 0,
									"comment" : ""
								}

							}
, 							{
								"box" : 								{
									"maxclass" : "newobj",
									"text" : "int",
									"patching_rect" : [ 24.0, 108.0, 32.5, 20.0 ],
									"numoutlets" : 1,
									"outlettype" : [ "int" ],
									"id" : "obj-2",
									"fontname" : "Arial",
									"presentation_rect" : [ 299.0, 168.0, 0.0, 0.0 ],
									"numinlets" : 2,
									"fontsize" : 12.0
								}

							}
, 							{
								"box" : 								{
									"maxclass" : "inlet",
									"patching_rect" : [ 24.0, 24.0, 25.0, 25.0 ],
									"numoutlets" : 1,
									"outlettype" : [ "" ],
									"id" : "obj-1",
									"numinlets" : 0,
									"comment" : ""
								}

							}
, 							{
								"box" : 								{
									"maxclass" : "newobj",
									"text" : "route set recall",
									"patching_rect" : [ 24.0, 72.0, 89.0, 20.0 ],
									"numoutlets" : 3,
									"outlettype" : [ "", "", "" ],
									"id" : "obj-39",
									"fontname" : "Arial",
									"numinlets" : 1,
									"fontsize" : 12.0
								}

							}
, 							{
								"box" : 								{
									"maxclass" : "newobj",
									"text" : "int",
									"patching_rect" : [ 84.0, 108.0, 32.5, 20.0 ],
									"numoutlets" : 1,
									"outlettype" : [ "int" ],
									"id" : "obj-34",
									"fontname" : "Arial",
									"numinlets" : 2,
									"fontsize" : 12.0
								}

							}
, 							{
								"box" : 								{
									"maxclass" : "message",
									"text" : "store $1",
									"patching_rect" : [ 24.0, 156.0, 54.0, 18.0 ],
									"numoutlets" : 1,
									"outlettype" : [ "" ],
									"id" : "obj-28",
									"fontname" : "Arial",
									"numinlets" : 2,
									"fontsize" : 12.0
								}

							}
 ],
						"lines" : [ 							{
								"patchline" : 								{
									"source" : [ "obj-39", 1 ],
									"destination" : [ "obj-34", 0 ],
									"hidden" : 0,
									"midpoints" : [ 68.5, 105.0, 93.5, 105.0 ]
								}

							}
, 							{
								"patchline" : 								{
									"source" : [ "obj-39", 0 ],
									"destination" : [ "obj-2", 0 ],
									"hidden" : 0,
									"midpoints" : [  ]
								}

							}
, 							{
								"patchline" : 								{
									"source" : [ "obj-1", 0 ],
									"destination" : [ "obj-39", 0 ],
									"hidden" : 0,
									"midpoints" : [  ]
								}

							}
, 							{
								"patchline" : 								{
									"source" : [ "obj-3", 0 ],
									"destination" : [ "obj-2", 1 ],
									"hidden" : 0,
									"midpoints" : [ 141.5, 105.0, 47.0, 105.0 ]
								}

							}
, 							{
								"patchline" : 								{
									"source" : [ "obj-3", 0 ],
									"destination" : [ "obj-34", 1 ],
									"hidden" : 0,
									"midpoints" : [ 141.5, 105.0, 107.0, 105.0 ]
								}

							}
, 							{
								"patchline" : 								{
									"source" : [ "obj-34", 0 ],
									"destination" : [ "obj-4", 0 ],
									"hidden" : 0,
									"midpoints" : [ 93.5, 189.0, 33.5, 189.0 ]
								}

							}
, 							{
								"patchline" : 								{
									"source" : [ "obj-28", 0 ],
									"destination" : [ "obj-4", 0 ],
									"hidden" : 0,
									"midpoints" : [  ]
								}

							}
, 							{
								"patchline" : 								{
									"source" : [ "obj-2", 0 ],
									"destination" : [ "obj-28", 0 ],
									"hidden" : 0,
									"midpoints" : [  ]
								}

							}
 ]
					}
,
					"saved_object_attributes" : 					{
						"default_fontname" : "Arial",
						"default_fontsize" : 12.0,
						"fontname" : "Arial",
						"globalpatchername" : "",
						"default_fontface" : 0,
						"fontface" : 0,
						"fontsize" : 12.0
					}

				}

			}
, 			{
				"box" : 				{
					"maxclass" : "message",
					"text" : "set",
					"patching_rect" : [ 15.0, 150.0, 32.5, 18.0 ],
					"numoutlets" : 1,
					"presentation" : 1,
					"outlettype" : [ "" ],
					"id" : "obj-38",
					"fontname" : "Arial",
					"bgcolor" : [ 0.945098, 0.913725, 0.407843, 1.0 ],
					"presentation_rect" : [ 255.0, 15.0, 32.5, 18.0 ],
					"numinlets" : 2,
					"fontsize" : 12.0
				}

			}
, 			{
				"box" : 				{
					"maxclass" : "message",
					"text" : "recall",
					"patching_rect" : [ 15.0, 120.0, 39.0, 18.0 ],
					"numoutlets" : 1,
					"presentation" : 1,
					"outlettype" : [ "" ],
					"id" : "obj-36",
					"fontname" : "Arial",
					"bgcolor" : [ 0.047059, 0.913725, 0.913725, 1.0 ],
					"presentation_rect" : [ 195.0, 15.0, 37.0, 18.0 ],
					"numinlets" : 2,
					"fontsize" : 12.0
				}

			}
, 			{
				"box" : 				{
					"maxclass" : "number",
					"patching_rect" : [ 870.0, 345.0, 50.0, 20.0 ],
					"numoutlets" : 2,
					"presentation" : 1,
					"outlettype" : [ "int", "bang" ],
					"id" : "obj-24",
					"fontname" : "Arial",
					"bgcolor" : [ 1.0, 0.337255, 0.619608, 1.0 ],
					"presentation_rect" : [ 630.0, 390.0, 50.0, 20.0 ],
					"numinlets" : 1,
					"fontsize" : 12.0
				}

			}
, 			{
				"box" : 				{
					"maxclass" : "newobj",
					"text" : "ctlout 1",
					"patching_rect" : [ 810.0, 345.0, 49.0, 20.0 ],
					"numoutlets" : 0,
					"id" : "obj-25",
					"fontname" : "Arial",
					"presentation_rect" : [ 807.0, 342.0, 0.0, 0.0 ],
					"numinlets" : 3,
					"fontsize" : 12.0
				}

			}
, 			{
				"box" : 				{
					"maxclass" : "number",
					"patching_rect" : [ 870.0, 315.0, 50.0, 20.0 ],
					"numoutlets" : 2,
					"presentation" : 1,
					"outlettype" : [ "int", "bang" ],
					"id" : "obj-22",
					"fontname" : "Arial",
					"bgcolor" : [ 1.0, 0.337255, 0.619608, 1.0 ],
					"presentation_rect" : [ 630.0, 360.0, 50.0, 20.0 ],
					"numinlets" : 1,
					"fontsize" : 12.0
				}

			}
, 			{
				"box" : 				{
					"maxclass" : "newobj",
					"text" : "ctlout 1",
					"patching_rect" : [ 810.0, 315.0, 49.0, 20.0 ],
					"numoutlets" : 0,
					"id" : "obj-23",
					"fontname" : "Arial",
					"presentation_rect" : [ 810.0, 314.0, 0.0, 0.0 ],
					"numinlets" : 3,
					"fontsize" : 12.0
				}

			}
, 			{
				"box" : 				{
					"maxclass" : "number",
					"patching_rect" : [ 870.0, 285.0, 50.0, 20.0 ],
					"numoutlets" : 2,
					"presentation" : 1,
					"outlettype" : [ "int", "bang" ],
					"id" : "obj-20",
					"fontname" : "Arial",
					"bgcolor" : [ 1.0, 0.337255, 0.619608, 1.0 ],
					"presentation_rect" : [ 630.0, 330.0, 50.0, 20.0 ],
					"numinlets" : 1,
					"fontsize" : 12.0
				}

			}
, 			{
				"box" : 				{
					"maxclass" : "newobj",
					"text" : "ctlout 1",
					"patching_rect" : [ 810.0, 285.0, 49.0, 20.0 ],
					"numoutlets" : 0,
					"id" : "obj-21",
					"fontname" : "Arial",
					"presentation_rect" : [ 810.0, 283.0, 0.0, 0.0 ],
					"numinlets" : 3,
					"fontsize" : 12.0
				}

			}
, 			{
				"box" : 				{
					"maxclass" : "number",
					"patching_rect" : [ 870.0, 255.0, 50.0, 20.0 ],
					"numoutlets" : 2,
					"presentation" : 1,
					"outlettype" : [ "int", "bang" ],
					"id" : "obj-18",
					"fontname" : "Arial",
					"bgcolor" : [ 1.0, 0.337255, 0.619608, 1.0 ],
					"presentation_rect" : [ 630.0, 300.0, 50.0, 20.0 ],
					"numinlets" : 1,
					"fontsize" : 12.0
				}

			}
, 			{
				"box" : 				{
					"maxclass" : "newobj",
					"text" : "ctlout 1",
					"patching_rect" : [ 810.0, 255.0, 49.0, 20.0 ],
					"numoutlets" : 0,
					"id" : "obj-19",
					"fontname" : "Arial",
					"presentation_rect" : [ 809.0, 249.0, 0.0, 0.0 ],
					"numinlets" : 3,
					"fontsize" : 12.0
				}

			}
, 			{
				"box" : 				{
					"maxclass" : "number",
					"patching_rect" : [ 870.0, 225.0, 50.0, 20.0 ],
					"numoutlets" : 2,
					"presentation" : 1,
					"outlettype" : [ "int", "bang" ],
					"id" : "obj-16",
					"fontname" : "Arial",
					"bgcolor" : [ 1.0, 0.337255, 0.619608, 1.0 ],
					"presentation_rect" : [ 630.0, 270.0, 50.0, 20.0 ],
					"numinlets" : 1,
					"fontsize" : 12.0
				}

			}
, 			{
				"box" : 				{
					"maxclass" : "newobj",
					"text" : "ctlout 1",
					"patching_rect" : [ 810.0, 225.0, 49.0, 20.0 ],
					"numoutlets" : 0,
					"id" : "obj-17",
					"fontname" : "Arial",
					"presentation_rect" : [ 806.0, 226.0, 0.0, 0.0 ],
					"numinlets" : 3,
					"fontsize" : 12.0
				}

			}
, 			{
				"box" : 				{
					"maxclass" : "number",
					"patching_rect" : [ 870.0, 195.0, 50.0, 20.0 ],
					"numoutlets" : 2,
					"presentation" : 1,
					"outlettype" : [ "int", "bang" ],
					"id" : "obj-14",
					"fontname" : "Arial",
					"bgcolor" : [ 1.0, 0.337255, 0.619608, 1.0 ],
					"presentation_rect" : [ 630.0, 240.0, 50.0, 20.0 ],
					"numinlets" : 1,
					"fontsize" : 12.0
				}

			}
, 			{
				"box" : 				{
					"maxclass" : "newobj",
					"text" : "ctlout 1",
					"patching_rect" : [ 810.0, 195.0, 49.0, 20.0 ],
					"numoutlets" : 0,
					"id" : "obj-15",
					"fontname" : "Arial",
					"presentation_rect" : [ 809.0, 192.0, 0.0, 0.0 ],
					"numinlets" : 3,
					"fontsize" : 12.0
				}

			}
, 			{
				"box" : 				{
					"maxclass" : "number",
					"patching_rect" : [ 870.0, 165.0, 50.0, 20.0 ],
					"numoutlets" : 2,
					"presentation" : 1,
					"outlettype" : [ "int", "bang" ],
					"id" : "obj-12",
					"fontname" : "Arial",
					"bgcolor" : [ 1.0, 0.337255, 0.619608, 1.0 ],
					"presentation_rect" : [ 630.0, 210.0, 50.0, 20.0 ],
					"numinlets" : 1,
					"fontsize" : 12.0
				}

			}
, 			{
				"box" : 				{
					"maxclass" : "newobj",
					"text" : "ctlout 1",
					"patching_rect" : [ 810.0, 165.0, 49.0, 20.0 ],
					"numoutlets" : 0,
					"id" : "obj-13",
					"fontname" : "Arial",
					"presentation_rect" : [ 808.0, 161.0, 0.0, 0.0 ],
					"numinlets" : 3,
					"fontsize" : 12.0
				}

			}
, 			{
				"box" : 				{
					"maxclass" : "number",
					"patching_rect" : [ 870.0, 135.0, 50.0, 20.0 ],
					"numoutlets" : 2,
					"presentation" : 1,
					"outlettype" : [ "int", "bang" ],
					"id" : "obj-10",
					"fontname" : "Arial",
					"bgcolor" : [ 1.0, 0.337255, 0.619608, 1.0 ],
					"presentation_rect" : [ 630.0, 180.0, 50.0, 20.0 ],
					"numinlets" : 1,
					"fontsize" : 12.0
				}

			}
, 			{
				"box" : 				{
					"maxclass" : "newobj",
					"text" : "ctlout 1",
					"patching_rect" : [ 810.0, 135.0, 49.0, 20.0 ],
					"numoutlets" : 0,
					"id" : "obj-11",
					"fontname" : "Arial",
					"presentation_rect" : [ 810.0, 131.0, 0.0, 0.0 ],
					"numinlets" : 3,
					"fontsize" : 12.0
				}

			}
, 			{
				"box" : 				{
					"maxclass" : "number",
					"patching_rect" : [ 870.0, 105.0, 50.0, 20.0 ],
					"numoutlets" : 2,
					"presentation" : 1,
					"outlettype" : [ "int", "bang" ],
					"id" : "obj-8",
					"fontname" : "Arial",
					"bgcolor" : [ 1.0, 0.337255, 0.619608, 1.0 ],
					"presentation_rect" : [ 630.0, 150.0, 50.0, 20.0 ],
					"numinlets" : 1,
					"fontsize" : 12.0
				}

			}
, 			{
				"box" : 				{
					"maxclass" : "newobj",
					"text" : "ctlout 1",
					"patching_rect" : [ 810.0, 105.0, 49.0, 20.0 ],
					"numoutlets" : 0,
					"id" : "obj-9",
					"fontname" : "Arial",
					"presentation_rect" : [ 810.0, 108.0, 0.0, 0.0 ],
					"numinlets" : 3,
					"fontsize" : 12.0
				}

			}
, 			{
				"box" : 				{
					"maxclass" : "number",
					"patching_rect" : [ 870.0, 75.0, 50.0, 20.0 ],
					"numoutlets" : 2,
					"presentation" : 1,
					"outlettype" : [ "int", "bang" ],
					"id" : "obj-6",
					"fontname" : "Arial",
					"bgcolor" : [ 1.0, 0.337255, 0.619608, 1.0 ],
					"presentation_rect" : [ 630.0, 120.0, 50.0, 20.0 ],
					"numinlets" : 1,
					"fontsize" : 12.0
				}

			}
, 			{
				"box" : 				{
					"maxclass" : "newobj",
					"text" : "ctlout 1",
					"patching_rect" : [ 810.0, 75.0, 49.0, 20.0 ],
					"numoutlets" : 0,
					"id" : "obj-7",
					"fontname" : "Arial",
					"presentation_rect" : [ 810.0, 75.0, 0.0, 0.0 ],
					"numinlets" : 3,
					"fontsize" : 12.0
				}

			}
, 			{
				"box" : 				{
					"maxclass" : "number",
					"patching_rect" : [ 870.0, 45.0, 50.0, 20.0 ],
					"numoutlets" : 2,
					"presentation" : 1,
					"outlettype" : [ "int", "bang" ],
					"id" : "obj-5",
					"fontname" : "Arial",
					"bgcolor" : [ 1.0, 0.337255, 0.619608, 1.0 ],
					"presentation_rect" : [ 630.0, 90.0, 50.0, 20.0 ],
					"numinlets" : 1,
					"fontsize" : 12.0
				}

			}
, 			{
				"box" : 				{
					"maxclass" : "newobj",
					"text" : "ctlout 1",
					"patching_rect" : [ 810.0, 45.0, 49.0, 20.0 ],
					"numoutlets" : 0,
					"id" : "obj-3",
					"fontname" : "Arial",
					"numinlets" : 3,
					"fontsize" : 12.0
				}

			}
, 			{
				"box" : 				{
					"maxclass" : "number",
					"patching_rect" : [ 675.0, 345.0, 50.0, 20.0 ],
					"numoutlets" : 2,
					"presentation" : 1,
					"bordercolor" : [ 0.145098, 0.07451, 0.376471, 1.0 ],
					"outlettype" : [ "int", "bang" ],
					"id" : "obj-103",
					"fontname" : "Arial",
					"bgcolor" : [ 0.615686, 0.552941, 0.827451, 1.0 ],
					"presentation_rect" : [ 495.0, 390.0, 50.0, 20.0 ],
					"numinlets" : 1,
					"fontsize" : 12.0
				}

			}
, 			{
				"box" : 				{
					"maxclass" : "number",
					"patching_rect" : [ 675.0, 285.0, 50.0, 20.0 ],
					"numoutlets" : 2,
					"presentation" : 1,
					"bordercolor" : [ 0.145098, 0.07451, 0.376471, 1.0 ],
					"outlettype" : [ "int", "bang" ],
					"id" : "obj-101",
					"fontname" : "Arial",
					"bgcolor" : [ 0.615686, 0.552941, 0.827451, 1.0 ],
					"presentation_rect" : [ 495.0, 330.0, 50.0, 20.0 ],
					"numinlets" : 1,
					"fontsize" : 12.0
				}

			}
, 			{
				"box" : 				{
					"maxclass" : "number",
					"patching_rect" : [ 675.0, 315.0, 50.0, 20.0 ],
					"numoutlets" : 2,
					"presentation" : 1,
					"bordercolor" : [ 0.145098, 0.07451, 0.376471, 1.0 ],
					"outlettype" : [ "int", "bang" ],
					"id" : "obj-102",
					"fontname" : "Arial",
					"bgcolor" : [ 0.615686, 0.552941, 0.827451, 1.0 ],
					"presentation_rect" : [ 495.0, 360.0, 50.0, 20.0 ],
					"numinlets" : 1,
					"fontsize" : 12.0
				}

			}
, 			{
				"box" : 				{
					"maxclass" : "number",
					"patching_rect" : [ 675.0, 225.0, 50.0, 20.0 ],
					"numoutlets" : 2,
					"presentation" : 1,
					"bordercolor" : [ 0.145098, 0.07451, 0.376471, 1.0 ],
					"outlettype" : [ "int", "bang" ],
					"id" : "obj-99",
					"fontname" : "Arial",
					"bgcolor" : [ 0.615686, 0.552941, 0.827451, 1.0 ],
					"presentation_rect" : [ 495.0, 270.0, 50.0, 20.0 ],
					"numinlets" : 1,
					"fontsize" : 12.0
				}

			}
, 			{
				"box" : 				{
					"maxclass" : "number",
					"patching_rect" : [ 675.0, 255.0, 50.0, 20.0 ],
					"numoutlets" : 2,
					"presentation" : 1,
					"bordercolor" : [ 0.145098, 0.07451, 0.376471, 1.0 ],
					"outlettype" : [ "int", "bang" ],
					"id" : "obj-100",
					"fontname" : "Arial",
					"bgcolor" : [ 0.615686, 0.552941, 0.827451, 1.0 ],
					"presentation_rect" : [ 495.0, 300.0, 50.0, 20.0 ],
					"numinlets" : 1,
					"fontsize" : 12.0
				}

			}
, 			{
				"box" : 				{
					"maxclass" : "number",
					"patching_rect" : [ 675.0, 165.0, 50.0, 20.0 ],
					"numoutlets" : 2,
					"presentation" : 1,
					"bordercolor" : [ 0.145098, 0.07451, 0.376471, 1.0 ],
					"outlettype" : [ "int", "bang" ],
					"id" : "obj-97",
					"fontname" : "Arial",
					"bgcolor" : [ 0.615686, 0.552941, 0.827451, 1.0 ],
					"presentation_rect" : [ 495.0, 210.0, 50.0, 20.0 ],
					"numinlets" : 1,
					"fontsize" : 12.0
				}

			}
, 			{
				"box" : 				{
					"maxclass" : "number",
					"patching_rect" : [ 675.0, 195.0, 50.0, 20.0 ],
					"numoutlets" : 2,
					"presentation" : 1,
					"bordercolor" : [ 0.145098, 0.07451, 0.376471, 1.0 ],
					"outlettype" : [ "int", "bang" ],
					"id" : "obj-98",
					"fontname" : "Arial",
					"bgcolor" : [ 0.615686, 0.552941, 0.827451, 1.0 ],
					"presentation_rect" : [ 495.0, 240.0, 50.0, 20.0 ],
					"numinlets" : 1,
					"fontsize" : 12.0
				}

			}
, 			{
				"box" : 				{
					"maxclass" : "number",
					"patching_rect" : [ 675.0, 105.0, 50.0, 20.0 ],
					"numoutlets" : 2,
					"presentation" : 1,
					"bordercolor" : [ 0.145098, 0.07451, 0.376471, 1.0 ],
					"outlettype" : [ "int", "bang" ],
					"id" : "obj-96",
					"fontname" : "Arial",
					"bgcolor" : [ 0.615686, 0.552941, 0.827451, 1.0 ],
					"presentation_rect" : [ 495.0, 150.0, 50.0, 20.0 ],
					"numinlets" : 1,
					"fontsize" : 12.0
				}

			}
, 			{
				"box" : 				{
					"maxclass" : "number",
					"patching_rect" : [ 675.0, 135.0, 50.0, 20.0 ],
					"numoutlets" : 2,
					"presentation" : 1,
					"bordercolor" : [ 0.145098, 0.07451, 0.376471, 1.0 ],
					"outlettype" : [ "int", "bang" ],
					"id" : "obj-95",
					"fontname" : "Arial",
					"bgcolor" : [ 0.615686, 0.552941, 0.827451, 1.0 ],
					"presentation_rect" : [ 495.0, 180.0, 50.0, 20.0 ],
					"numinlets" : 1,
					"fontsize" : 12.0
				}

			}
, 			{
				"box" : 				{
					"maxclass" : "number",
					"patching_rect" : [ 675.0, 75.0, 50.0, 20.0 ],
					"numoutlets" : 2,
					"presentation" : 1,
					"bordercolor" : [ 0.145098, 0.07451, 0.376471, 1.0 ],
					"outlettype" : [ "int", "bang" ],
					"id" : "obj-94",
					"fontname" : "Arial",
					"bgcolor" : [ 0.615686, 0.552941, 0.827451, 1.0 ],
					"presentation_rect" : [ 495.0, 120.0, 50.0, 20.0 ],
					"numinlets" : 1,
					"fontsize" : 12.0
				}

			}
, 			{
				"box" : 				{
					"maxclass" : "number",
					"patching_rect" : [ 675.0, 45.0, 50.0, 20.0 ],
					"numoutlets" : 2,
					"presentation" : 1,
					"bordercolor" : [ 0.145098, 0.07451, 0.376471, 1.0 ],
					"outlettype" : [ "int", "bang" ],
					"id" : "obj-93",
					"fontname" : "Arial",
					"bgcolor" : [ 0.615686, 0.552941, 0.827451, 1.0 ],
					"presentation_rect" : [ 495.0, 90.0, 50.0, 20.0 ],
					"numinlets" : 1,
					"fontsize" : 12.0
				}

			}
, 			{
				"box" : 				{
					"maxclass" : "newobj",
					"text" : "midiscale",
					"patching_rect" : [ 735.0, 315.0, 61.0, 20.0 ],
					"numoutlets" : 1,
					"outlettype" : [ "float" ],
					"id" : "obj-88",
					"fontname" : "Arial",
					"numinlets" : 1,
					"fontsize" : 12.0
				}

			}
, 			{
				"box" : 				{
					"maxclass" : "newobj",
					"text" : "midiscale",
					"patching_rect" : [ 735.0, 345.0, 61.0, 20.0 ],
					"numoutlets" : 1,
					"outlettype" : [ "float" ],
					"id" : "obj-86",
					"fontname" : "Arial",
					"numinlets" : 1,
					"fontsize" : 12.0
				}

			}
, 			{
				"box" : 				{
					"maxclass" : "newobj",
					"text" : "midiscale",
					"patching_rect" : [ 735.0, 285.0, 61.0, 20.0 ],
					"numoutlets" : 1,
					"outlettype" : [ "float" ],
					"id" : "obj-87",
					"fontname" : "Arial",
					"numinlets" : 1,
					"fontsize" : 12.0
				}

			}
, 			{
				"box" : 				{
					"maxclass" : "newobj",
					"text" : "midiscale",
					"patching_rect" : [ 735.0, 255.0, 61.0, 20.0 ],
					"numoutlets" : 1,
					"outlettype" : [ "float" ],
					"id" : "obj-85",
					"fontname" : "Arial",
					"numinlets" : 1,
					"fontsize" : 12.0
				}

			}
, 			{
				"box" : 				{
					"maxclass" : "newobj",
					"text" : "midiscale",
					"patching_rect" : [ 735.0, 195.0, 61.0, 20.0 ],
					"numoutlets" : 1,
					"outlettype" : [ "float" ],
					"id" : "obj-84",
					"fontname" : "Arial",
					"numinlets" : 1,
					"fontsize" : 12.0
				}

			}
, 			{
				"box" : 				{
					"maxclass" : "newobj",
					"text" : "midiscale",
					"patching_rect" : [ 735.0, 135.0, 61.0, 20.0 ],
					"numoutlets" : 1,
					"outlettype" : [ "float" ],
					"id" : "obj-83",
					"fontname" : "Arial",
					"numinlets" : 1,
					"fontsize" : 12.0
				}

			}
, 			{
				"box" : 				{
					"maxclass" : "newobj",
					"text" : "midiscale",
					"patching_rect" : [ 735.0, 75.0, 61.0, 20.0 ],
					"numoutlets" : 1,
					"outlettype" : [ "float" ],
					"id" : "obj-82",
					"fontname" : "Arial",
					"numinlets" : 1,
					"fontsize" : 12.0
				}

			}
, 			{
				"box" : 				{
					"maxclass" : "newobj",
					"text" : "midiscale",
					"patching_rect" : [ 735.0, 225.0, 61.0, 20.0 ],
					"numoutlets" : 1,
					"outlettype" : [ "float" ],
					"id" : "obj-78",
					"fontname" : "Arial",
					"numinlets" : 1,
					"fontsize" : 12.0
				}

			}
, 			{
				"box" : 				{
					"maxclass" : "newobj",
					"text" : "midiscale",
					"patching_rect" : [ 735.0, 165.0, 61.0, 20.0 ],
					"numoutlets" : 1,
					"outlettype" : [ "float" ],
					"id" : "obj-76",
					"fontname" : "Arial",
					"numinlets" : 1,
					"fontsize" : 12.0
				}

			}
, 			{
				"box" : 				{
					"maxclass" : "newobj",
					"text" : "midiscale",
					"patching_rect" : [ 735.0, 105.0, 61.0, 20.0 ],
					"numoutlets" : 1,
					"outlettype" : [ "float" ],
					"id" : "obj-74",
					"fontname" : "Arial",
					"numinlets" : 1,
					"fontsize" : 12.0
				}

			}
, 			{
				"box" : 				{
					"maxclass" : "newobj",
					"text" : "midiscale",
					"patching_rect" : [ 735.0, 45.0, 61.0, 20.0 ],
					"numoutlets" : 1,
					"outlettype" : [ "float" ],
					"id" : "obj-71",
					"fontname" : "Arial",
					"numinlets" : 1,
					"fontsize" : 12.0
				}

			}
, 			{
				"box" : 				{
					"maxclass" : "comment",
					"text" : "Outputs are:\n1.) Mass: This external computes the overall “weight” of a greyscale or binary image. For binary data, \rthis amounts to counting the number of ON pixels. Otherwise, the values of all the cells in a \rmatrix are added together. If the data type is char, the result is normalised by 255.\n2.) Orientation: the general angle of the shape in radians. \n3.) Perimeter: the number of border pixels.\n4.) Compactness \n5.) Width to Height Ratio\n6.) Bounding box X axis size\n7.) Bounding box Y axis size.\n8.) Density\n9.) Movement\n10.) Contrasting features tracking X \n11.) Contrasting features tracking Y\n\n\n\n\n\n",
					"linecount" : 19,
					"presentation_linecount" : 21,
					"patching_rect" : [ 15.0, 315.0, 553.0, 269.0 ],
					"numoutlets" : 0,
					"presentation" : 1,
					"id" : "obj-179",
					"fontname" : "Arial",
					"presentation_rect" : [ 15.0, 150.0, 464.0, 296.0 ],
					"numinlets" : 1,
					"fontsize" : 12.0
				}

			}
, 			{
				"box" : 				{
					"maxclass" : "newobj",
					"text" : "unpack 0. 0. 0. 0. 0. 0. 0. 0. 0. 0. 0.",
					"patching_rect" : [ 30.0, 45.0, 196.0, 20.0 ],
					"numoutlets" : 11,
					"outlettype" : [ "float", "float", "float", "float", "float", "float", "float", "float", "float", "float", "float" ],
					"id" : "obj-139",
					"fontname" : "Arial",
					"numinlets" : 1,
					"fontsize" : 12.0
				}

			}
, 			{
				"box" : 				{
					"maxclass" : "newobj",
					"text" : "udpreceive 7000",
					"patching_rect" : [ 30.0, 15.0, 99.0, 20.0 ],
					"numoutlets" : 1,
					"outlettype" : [ "" ],
					"id" : "obj-129",
					"fontname" : "Arial",
					"numinlets" : 1,
					"fontsize" : 12.0
				}

			}
 ],
		"lines" : [ 			{
				"patchline" : 				{
					"source" : [ "obj-88", 0 ],
					"destination" : [ "obj-102", 0 ],
					"hidden" : 0,
					"midpoints" : [ 744.5, 336.0, 720.0, 336.0, 720.0, 342.0, 684.5, 342.0 ]
				}

			}
, 			{
				"patchline" : 				{
					"source" : [ "obj-139", 9 ],
					"destination" : [ "obj-88", 0 ],
					"hidden" : 0,
					"midpoints" : [ 198.800003, 300.0, 660.0, 300.0, 660.0, 312.0, 744.5, 312.0 ]
				}

			}
, 			{
				"patchline" : 				{
					"source" : [ "obj-88", 0 ],
					"destination" : [ "obj-23", 0 ],
					"hidden" : 0,
					"midpoints" : [ 744.5, 336.0, 807.0, 336.0, 807.0, 312.0, 819.5, 312.0 ]
				}

			}
, 			{
				"patchline" : 				{
					"source" : [ "obj-86", 0 ],
					"destination" : [ "obj-103", 0 ],
					"hidden" : 0,
					"midpoints" : [ 744.5, 375.0, 711.0, 375.0, 711.0, 372.0, 684.5, 372.0 ]
				}

			}
, 			{
				"patchline" : 				{
					"source" : [ "obj-139", 10 ],
					"destination" : [ "obj-86", 0 ],
					"hidden" : 0,
					"midpoints" : [ 216.5, 300.0, 660.0, 300.0, 660.0, 342.0, 744.5, 342.0 ]
				}

			}
, 			{
				"patchline" : 				{
					"source" : [ "obj-86", 0 ],
					"destination" : [ "obj-25", 0 ],
					"hidden" : 0,
					"midpoints" : [ 744.5, 375.0, 807.0, 375.0, 807.0, 342.0, 819.5, 342.0 ]
				}

			}
, 			{
				"patchline" : 				{
					"source" : [ "obj-87", 0 ],
					"destination" : [ "obj-101", 0 ],
					"hidden" : 0,
					"midpoints" : [ 744.5, 306.0, 720.0, 306.0, 720.0, 312.0, 684.5, 312.0 ]
				}

			}
, 			{
				"patchline" : 				{
					"source" : [ "obj-139", 8 ],
					"destination" : [ "obj-87", 0 ],
					"hidden" : 0,
					"midpoints" : [ 181.100006, 282.0, 744.5, 282.0 ]
				}

			}
, 			{
				"patchline" : 				{
					"source" : [ "obj-87", 0 ],
					"destination" : [ "obj-21", 0 ],
					"hidden" : 0,
					"midpoints" : [ 744.5, 306.0, 807.0, 306.0, 807.0, 282.0, 819.5, 282.0 ]
				}

			}
, 			{
				"patchline" : 				{
					"source" : [ "obj-85", 0 ],
					"destination" : [ "obj-100", 0 ],
					"hidden" : 0,
					"midpoints" : [ 744.5, 276.0, 720.0, 276.0, 720.0, 282.0, 684.5, 282.0 ]
				}

			}
, 			{
				"patchline" : 				{
					"source" : [ "obj-139", 7 ],
					"destination" : [ "obj-85", 0 ],
					"hidden" : 0,
					"midpoints" : [ 163.399994, 252.0, 744.5, 252.0 ]
				}

			}
, 			{
				"patchline" : 				{
					"source" : [ "obj-85", 0 ],
					"destination" : [ "obj-19", 0 ],
					"hidden" : 0,
					"midpoints" : [ 744.5, 276.0, 807.0, 276.0, 807.0, 252.0, 819.5, 252.0 ]
				}

			}
, 			{
				"patchline" : 				{
					"source" : [ "obj-84", 0 ],
					"destination" : [ "obj-98", 0 ],
					"hidden" : 0,
					"midpoints" : [ 744.5, 216.0, 720.0, 216.0, 720.0, 222.0, 684.5, 222.0 ]
				}

			}
, 			{
				"patchline" : 				{
					"source" : [ "obj-139", 5 ],
					"destination" : [ "obj-84", 0 ],
					"hidden" : 0,
					"midpoints" : [ 128.0, 192.0, 744.5, 192.0 ]
				}

			}
, 			{
				"patchline" : 				{
					"source" : [ "obj-84", 0 ],
					"destination" : [ "obj-15", 0 ],
					"hidden" : 0,
					"midpoints" : [ 744.5, 216.0, 807.0, 216.0, 807.0, 192.0, 819.5, 192.0 ]
				}

			}
, 			{
				"patchline" : 				{
					"source" : [ "obj-83", 0 ],
					"destination" : [ "obj-95", 0 ],
					"hidden" : 0,
					"midpoints" : [ 744.5, 156.0, 720.0, 156.0, 720.0, 162.0, 684.5, 162.0 ]
				}

			}
, 			{
				"patchline" : 				{
					"source" : [ "obj-139", 3 ],
					"destination" : [ "obj-83", 0 ],
					"hidden" : 0,
					"midpoints" : [ 92.599998, 132.0, 744.5, 132.0 ]
				}

			}
, 			{
				"patchline" : 				{
					"source" : [ "obj-83", 0 ],
					"destination" : [ "obj-11", 0 ],
					"hidden" : 0,
					"midpoints" : [ 744.5, 156.0, 807.0, 156.0, 807.0, 132.0, 819.5, 132.0 ]
				}

			}
, 			{
				"patchline" : 				{
					"source" : [ "obj-82", 0 ],
					"destination" : [ "obj-94", 0 ],
					"hidden" : 0,
					"midpoints" : [ 744.5, 96.0, 720.0, 96.0, 720.0, 102.0, 684.5, 102.0 ]
				}

			}
, 			{
				"patchline" : 				{
					"source" : [ "obj-139", 1 ],
					"destination" : [ "obj-82", 0 ],
					"hidden" : 0,
					"midpoints" : [ 57.200001, 75.0, 672.0, 75.0, 672.0, 72.0, 744.5, 72.0 ]
				}

			}
, 			{
				"patchline" : 				{
					"source" : [ "obj-82", 0 ],
					"destination" : [ "obj-7", 0 ],
					"hidden" : 0,
					"midpoints" : [ 744.5, 96.0, 807.0, 96.0, 807.0, 72.0, 819.5, 72.0 ]
				}

			}
, 			{
				"patchline" : 				{
					"source" : [ "obj-78", 0 ],
					"destination" : [ "obj-99", 0 ],
					"hidden" : 0,
					"midpoints" : [ 744.5, 246.0, 720.0, 246.0, 720.0, 252.0, 684.5, 252.0 ]
				}

			}
, 			{
				"patchline" : 				{
					"source" : [ "obj-139", 6 ],
					"destination" : [ "obj-78", 0 ],
					"hidden" : 0,
					"midpoints" : [ 145.699997, 222.0, 744.5, 222.0 ]
				}

			}
, 			{
				"patchline" : 				{
					"source" : [ "obj-78", 0 ],
					"destination" : [ "obj-17", 0 ],
					"hidden" : 0,
					"midpoints" : [ 744.5, 246.0, 807.0, 246.0, 807.0, 222.0, 819.5, 222.0 ]
				}

			}
, 			{
				"patchline" : 				{
					"source" : [ "obj-76", 0 ],
					"destination" : [ "obj-97", 0 ],
					"hidden" : 0,
					"midpoints" : [ 744.5, 186.0, 720.0, 186.0, 720.0, 192.0, 684.5, 192.0 ]
				}

			}
, 			{
				"patchline" : 				{
					"source" : [ "obj-139", 4 ],
					"destination" : [ "obj-76", 0 ],
					"hidden" : 0,
					"midpoints" : [ 110.300003, 135.0, 660.0, 135.0, 660.0, 162.0, 744.5, 162.0 ]
				}

			}
, 			{
				"patchline" : 				{
					"source" : [ "obj-76", 0 ],
					"destination" : [ "obj-13", 0 ],
					"hidden" : 0,
					"midpoints" : [ 744.5, 186.0, 807.0, 186.0, 807.0, 162.0, 819.5, 162.0 ]
				}

			}
, 			{
				"patchline" : 				{
					"source" : [ "obj-74", 0 ],
					"destination" : [ "obj-96", 0 ],
					"hidden" : 0,
					"midpoints" : [ 744.5, 126.0, 720.0, 126.0, 720.0, 132.0, 684.5, 132.0 ]
				}

			}
, 			{
				"patchline" : 				{
					"source" : [ "obj-139", 2 ],
					"destination" : [ "obj-74", 0 ],
					"hidden" : 0,
					"midpoints" : [ 74.900002, 102.0, 744.5, 102.0 ]
				}

			}
, 			{
				"patchline" : 				{
					"source" : [ "obj-74", 0 ],
					"destination" : [ "obj-9", 0 ],
					"hidden" : 0,
					"midpoints" : [ 744.5, 126.0, 807.0, 126.0, 807.0, 102.0, 819.5, 102.0 ]
				}

			}
, 			{
				"patchline" : 				{
					"source" : [ "obj-71", 0 ],
					"destination" : [ "obj-93", 0 ],
					"hidden" : 0,
					"midpoints" : [ 744.5, 66.0, 720.0, 66.0, 720.0, 60.0, 684.5, 60.0 ]
				}

			}
, 			{
				"patchline" : 				{
					"source" : [ "obj-139", 0 ],
					"destination" : [ "obj-71", 0 ],
					"hidden" : 0,
					"midpoints" : [ 39.5, 75.0, 660.0, 75.0, 660.0, 30.0, 744.5, 30.0 ]
				}

			}
, 			{
				"patchline" : 				{
					"source" : [ "obj-71", 0 ],
					"destination" : [ "obj-3", 0 ],
					"hidden" : 0,
					"midpoints" : [ 744.5, 66.0, 807.0, 66.0, 807.0, 42.0, 819.5, 42.0 ]
				}

			}
, 			{
				"patchline" : 				{
					"source" : [ "obj-46", 0 ],
					"destination" : [ "obj-47", 0 ],
					"hidden" : 0,
					"midpoints" : [  ]
				}

			}
, 			{
				"patchline" : 				{
					"source" : [ "obj-44", 0 ],
					"destination" : [ "obj-40", 1 ],
					"hidden" : 0,
					"midpoints" : [  ]
				}

			}
, 			{
				"patchline" : 				{
					"source" : [ "obj-36", 0 ],
					"destination" : [ "obj-40", 0 ],
					"hidden" : 0,
					"midpoints" : [ 24.5, 147.0, 12.0, 147.0, 12.0, 174.0, 24.5, 174.0 ]
				}

			}
, 			{
				"patchline" : 				{
					"source" : [ "obj-38", 0 ],
					"destination" : [ "obj-40", 0 ],
					"hidden" : 0,
					"midpoints" : [  ]
				}

			}
, 			{
				"patchline" : 				{
					"source" : [ "obj-40", 0 ],
					"destination" : [ "obj-41", 0 ],
					"hidden" : 0,
					"midpoints" : [  ]
				}

			}
, 			{
				"patchline" : 				{
					"source" : [ "obj-24", 0 ],
					"destination" : [ "obj-25", 1 ],
					"hidden" : 0,
					"midpoints" : [ 879.5, 366.0, 861.0, 366.0, 861.0, 342.0, 834.5, 342.0 ]
				}

			}
, 			{
				"patchline" : 				{
					"source" : [ "obj-22", 0 ],
					"destination" : [ "obj-23", 1 ],
					"hidden" : 0,
					"midpoints" : [ 879.5, 336.0, 861.0, 336.0, 861.0, 312.0, 834.5, 312.0 ]
				}

			}
, 			{
				"patchline" : 				{
					"source" : [ "obj-20", 0 ],
					"destination" : [ "obj-21", 1 ],
					"hidden" : 0,
					"midpoints" : [ 879.5, 306.0, 861.0, 306.0, 861.0, 282.0, 834.5, 282.0 ]
				}

			}
, 			{
				"patchline" : 				{
					"source" : [ "obj-18", 0 ],
					"destination" : [ "obj-19", 1 ],
					"hidden" : 0,
					"midpoints" : [ 879.5, 276.0, 861.0, 276.0, 861.0, 252.0, 834.5, 252.0 ]
				}

			}
, 			{
				"patchline" : 				{
					"source" : [ "obj-16", 0 ],
					"destination" : [ "obj-17", 1 ],
					"hidden" : 0,
					"midpoints" : [ 879.5, 246.0, 861.0, 246.0, 861.0, 222.0, 834.5, 222.0 ]
				}

			}
, 			{
				"patchline" : 				{
					"source" : [ "obj-14", 0 ],
					"destination" : [ "obj-15", 1 ],
					"hidden" : 0,
					"midpoints" : [ 879.5, 216.0, 861.0, 216.0, 861.0, 192.0, 834.5, 192.0 ]
				}

			}
, 			{
				"patchline" : 				{
					"source" : [ "obj-12", 0 ],
					"destination" : [ "obj-13", 1 ],
					"hidden" : 0,
					"midpoints" : [ 879.5, 186.0, 861.0, 186.0, 861.0, 162.0, 834.5, 162.0 ]
				}

			}
, 			{
				"patchline" : 				{
					"source" : [ "obj-10", 0 ],
					"destination" : [ "obj-11", 1 ],
					"hidden" : 0,
					"midpoints" : [ 879.5, 156.0, 861.0, 156.0, 861.0, 132.0, 834.5, 132.0 ]
				}

			}
, 			{
				"patchline" : 				{
					"source" : [ "obj-8", 0 ],
					"destination" : [ "obj-9", 1 ],
					"hidden" : 0,
					"midpoints" : [ 879.5, 126.0, 861.0, 126.0, 861.0, 102.0, 834.5, 102.0 ]
				}

			}
, 			{
				"patchline" : 				{
					"source" : [ "obj-6", 0 ],
					"destination" : [ "obj-7", 1 ],
					"hidden" : 0,
					"midpoints" : [ 879.5, 96.0, 861.0, 96.0, 861.0, 72.0, 834.5, 72.0 ]
				}

			}
, 			{
				"patchline" : 				{
					"source" : [ "obj-5", 0 ],
					"destination" : [ "obj-3", 1 ],
					"hidden" : 0,
					"midpoints" : [ 879.5, 66.0, 861.0, 66.0, 861.0, 42.0, 834.5, 42.0 ]
				}

			}
, 			{
				"patchline" : 				{
					"source" : [ "obj-129", 0 ],
					"destination" : [ "obj-139", 0 ],
					"hidden" : 0,
					"midpoints" : [  ]
				}

			}
 ]
	}

}
