{
	"patcher" : 	{
		"fileversion" : 1,
		"rect" : [ 130.0, 115.0, 640.0, 506.0 ],
		"bglocked" : 0,
		"defrect" : [ 130.0, 115.0, 640.0, 506.0 ],
		"openrect" : [ 0.0, 0.0, 0.0, 0.0 ],
		"openinpresentation" : 0,
		"default_fontsize" : 12.0,
		"default_fontface" : 0,
		"default_fontname" : "Arial",
		"gridonopen" : 0,
		"gridsize" : [ 15.0, 15.0 ],
		"gridsnaponopen" : 0,
		"toolbarvisible" : 1,
		"boxanimatetime" : 200,
		"imprint" : 0,
		"metadata" : [  ],
		"boxes" : [ 			{
				"box" : 				{
					"maxclass" : "message",
					"text" : "1",
					"patching_rect" : [ 408.0, 244.0, 32.5, 18.0 ],
					"outlettype" : [ "" ],
					"fontname" : "Arial",
					"fontsize" : 12.0,
					"numinlets" : 2,
					"id" : "obj-15",
					"numoutlets" : 1
				}

			}
, 			{
				"box" : 				{
					"maxclass" : "newobj",
					"text" : "/ 1",
					"patching_rect" : [ 366.0, 293.0, 32.5, 20.0 ],
					"outlettype" : [ "int" ],
					"fontname" : "Arial",
					"fontsize" : 12.0,
					"numinlets" : 2,
					"id" : "obj-14",
					"numoutlets" : 1
				}

			}
, 			{
				"box" : 				{
					"maxclass" : "newobj",
					"text" : "!- 1",
					"patching_rect" : [ 334.0, 341.0, 32.5, 20.0 ],
					"outlettype" : [ "int" ],
					"fontname" : "Arial",
					"fontsize" : 12.0,
					"numinlets" : 2,
					"id" : "obj-13",
					"numoutlets" : 1
				}

			}
, 			{
				"box" : 				{
					"maxclass" : "newobj",
					"text" : "*~",
					"patching_rect" : [ 201.0, 386.0, 32.5, 20.0 ],
					"outlettype" : [ "signal" ],
					"fontname" : "Arial",
					"fontsize" : 12.0,
					"numinlets" : 2,
					"id" : "obj-12",
					"numoutlets" : 1
				}

			}
, 			{
				"box" : 				{
					"maxclass" : "number",
					"patching_rect" : [ 268.0, 268.0, 50.0, 20.0 ],
					"outlettype" : [ "int", "bang" ],
					"fontname" : "Arial",
					"fontsize" : 12.0,
					"numinlets" : 1,
					"id" : "obj-4",
					"numoutlets" : 2
				}

			}
, 			{
				"box" : 				{
					"maxclass" : "message",
					"text" : "read fade1.wav",
					"patching_rect" : [ 65.0, 42.0, 93.0, 18.0 ],
					"outlettype" : [ "" ],
					"fontname" : "Arial",
					"fontsize" : 12.0,
					"numinlets" : 2,
					"id" : "obj-10",
					"numoutlets" : 1
				}

			}
, 			{
				"box" : 				{
					"maxclass" : "number",
					"patching_rect" : [ 202.0, 102.0, 50.0, 20.0 ],
					"outlettype" : [ "int", "bang" ],
					"fontname" : "Arial",
					"fontsize" : 12.0,
					"numinlets" : 1,
					"id" : "obj-9",
					"numoutlets" : 2
				}

			}
, 			{
				"box" : 				{
					"maxclass" : "message",
					"text" : "0",
					"patching_rect" : [ 320.0, 241.0, 32.5, 18.0 ],
					"outlettype" : [ "" ],
					"fontname" : "Arial",
					"fontsize" : 12.0,
					"numinlets" : 2,
					"id" : "obj-8",
					"numoutlets" : 1
				}

			}
, 			{
				"box" : 				{
					"maxclass" : "newobj",
					"text" : "* 50",
					"patching_rect" : [ 232.0, 238.0, 32.5, 20.0 ],
					"outlettype" : [ "int" ],
					"fontname" : "Arial",
					"fontsize" : 12.0,
					"numinlets" : 2,
					"id" : "obj-7",
					"numoutlets" : 1
				}

			}
, 			{
				"box" : 				{
					"maxclass" : "newobj",
					"text" : "ForwardDeltaThresholdInt",
					"patching_rect" : [ 195.0, 175.0, 149.0, 20.0 ],
					"outlettype" : [ "int", "bang" ],
					"fontname" : "Arial",
					"fontsize" : 12.0,
					"numinlets" : 2,
					"id" : "obj-6",
					"numoutlets" : 2
				}

			}
, 			{
				"box" : 				{
					"maxclass" : "ezdac~",
					"patching_rect" : [ 173.0, 442.0, 45.0, 45.0 ],
					"numinlets" : 2,
					"id" : "obj-5",
					"numoutlets" : 0
				}

			}
, 			{
				"box" : 				{
					"maxclass" : "newobj",
					"text" : "line~",
					"patching_rect" : [ 203.0, 279.0, 36.0, 20.0 ],
					"outlettype" : [ "signal", "bang" ],
					"fontname" : "Arial",
					"fontsize" : 12.0,
					"numinlets" : 2,
					"id" : "obj-3",
					"numoutlets" : 2
				}

			}
, 			{
				"box" : 				{
					"maxclass" : "newobj",
					"text" : "play~ Sample1",
					"patching_rect" : [ 201.0, 339.0, 90.0, 20.0 ],
					"outlettype" : [ "signal" ],
					"fontname" : "Arial",
					"fontsize" : 12.0,
					"numinlets" : 1,
					"id" : "obj-2",
					"numoutlets" : 1
				}

			}
, 			{
				"box" : 				{
					"maxclass" : "newobj",
					"text" : "buffer~ Sample1",
					"patching_rect" : [ 65.0, 70.0, 99.0, 20.0 ],
					"outlettype" : [ "float", "bang" ],
					"fontname" : "Arial",
					"fontsize" : 12.0,
					"numinlets" : 1,
					"id" : "obj-1",
					"numoutlets" : 2
				}

			}
 ],
		"lines" : [ 			{
				"patchline" : 				{
					"source" : [ "obj-13", 0 ],
					"destination" : [ "obj-12", 1 ],
					"hidden" : 0,
					"midpoints" : [  ]
				}

			}
, 			{
				"patchline" : 				{
					"source" : [ "obj-14", 0 ],
					"destination" : [ "obj-13", 0 ],
					"hidden" : 0,
					"midpoints" : [  ]
				}

			}
, 			{
				"patchline" : 				{
					"source" : [ "obj-6", 1 ],
					"destination" : [ "obj-15", 0 ],
					"hidden" : 0,
					"midpoints" : [  ]
				}

			}
, 			{
				"patchline" : 				{
					"source" : [ "obj-15", 0 ],
					"destination" : [ "obj-14", 0 ],
					"hidden" : 0,
					"midpoints" : [  ]
				}

			}
, 			{
				"patchline" : 				{
					"source" : [ "obj-6", 0 ],
					"destination" : [ "obj-14", 1 ],
					"hidden" : 0,
					"midpoints" : [  ]
				}

			}
, 			{
				"patchline" : 				{
					"source" : [ "obj-12", 0 ],
					"destination" : [ "obj-5", 1 ],
					"hidden" : 0,
					"midpoints" : [  ]
				}

			}
, 			{
				"patchline" : 				{
					"source" : [ "obj-2", 0 ],
					"destination" : [ "obj-12", 0 ],
					"hidden" : 0,
					"midpoints" : [  ]
				}

			}
, 			{
				"patchline" : 				{
					"source" : [ "obj-6", 1 ],
					"destination" : [ "obj-8", 0 ],
					"hidden" : 0,
					"midpoints" : [  ]
				}

			}
, 			{
				"patchline" : 				{
					"source" : [ "obj-7", 0 ],
					"destination" : [ "obj-3", 1 ],
					"hidden" : 0,
					"midpoints" : [  ]
				}

			}
, 			{
				"patchline" : 				{
					"source" : [ "obj-7", 0 ],
					"destination" : [ "obj-3", 0 ],
					"hidden" : 0,
					"midpoints" : [  ]
				}

			}
, 			{
				"patchline" : 				{
					"source" : [ "obj-6", 0 ],
					"destination" : [ "obj-7", 0 ],
					"hidden" : 0,
					"midpoints" : [  ]
				}

			}
, 			{
				"patchline" : 				{
					"source" : [ "obj-7", 0 ],
					"destination" : [ "obj-4", 0 ],
					"hidden" : 0,
					"midpoints" : [  ]
				}

			}
, 			{
				"patchline" : 				{
					"source" : [ "obj-3", 0 ],
					"destination" : [ "obj-2", 0 ],
					"hidden" : 0,
					"midpoints" : [  ]
				}

			}
, 			{
				"patchline" : 				{
					"source" : [ "obj-8", 0 ],
					"destination" : [ "obj-3", 0 ],
					"hidden" : 0,
					"midpoints" : [  ]
				}

			}
, 			{
				"patchline" : 				{
					"source" : [ "obj-9", 0 ],
					"destination" : [ "obj-6", 0 ],
					"hidden" : 0,
					"midpoints" : [  ]
				}

			}
, 			{
				"patchline" : 				{
					"source" : [ "obj-10", 0 ],
					"destination" : [ "obj-1", 0 ],
					"hidden" : 0,
					"midpoints" : [  ]
				}

			}
 ]
	}

}
