{
	"patcher" : 	{
		"fileversion" : 1,
		"rect" : [ 162.0, 132.0, 640.0, 480.0 ],
		"bglocked" : 0,
		"defrect" : [ 162.0, 132.0, 640.0, 480.0 ],
		"openrect" : [ 0.0, 0.0, 0.0, 0.0 ],
		"openinpresentation" : 0,
		"default_fontsize" : 12.0,
		"default_fontface" : 0,
		"default_fontname" : "Arial",
		"gridonopen" : 0,
		"gridsize" : [ 15.0, 15.0 ],
		"gridsnaponopen" : 0,
		"toolbarvisible" : 1,
		"boxanimatetime" : 200,
		"imprint" : 0,
		"metadata" : [  ],
		"boxes" : [ 			{
				"box" : 				{
					"maxclass" : "button",
					"outlettype" : [ "bang" ],
					"patching_rect" : [ 248.0, 188.0, 20.0, 20.0 ],
					"numinlets" : 1,
					"id" : "obj-3",
					"numoutlets" : 1
				}

			}
, 			{
				"box" : 				{
					"maxclass" : "button",
					"outlettype" : [ "bang" ],
					"patching_rect" : [ 257.0, 103.0, 20.0, 20.0 ],
					"numinlets" : 1,
					"id" : "obj-2",
					"numoutlets" : 1
				}

			}
, 			{
				"box" : 				{
					"maxclass" : "message",
					"text" : "#1",
					"outlettype" : [ "" ],
					"fontname" : "Arial",
					"fontsize" : 12.0,
					"patching_rect" : [ 174.0, 53.0, 32.5, 18.0 ],
					"numinlets" : 2,
					"id" : "obj-4",
					"numoutlets" : 1
				}

			}
, 			{
				"box" : 				{
					"maxclass" : "newobj",
					"text" : "loadbang",
					"outlettype" : [ "bang" ],
					"fontname" : "Arial",
					"fontsize" : 12.0,
					"patching_rect" : [ 213.0, 18.0, 60.0, 20.0 ],
					"numinlets" : 1,
					"id" : "obj-1",
					"numoutlets" : 1
				}

			}
, 			{
				"box" : 				{
					"maxclass" : "newobj",
					"text" : "gate",
					"outlettype" : [ "" ],
					"fontname" : "Arial",
					"fontsize" : 12.0,
					"patching_rect" : [ 292.0, 153.5, 34.0, 20.0 ],
					"numinlets" : 2,
					"id" : "obj-30",
					"numoutlets" : 1
				}

			}
, 			{
				"box" : 				{
					"maxclass" : "newobj",
					"text" : "gate",
					"outlettype" : [ "" ],
					"fontname" : "Arial",
					"fontsize" : 12.0,
					"patching_rect" : [ 158.0, 110.0, 34.0, 20.0 ],
					"numinlets" : 2,
					"id" : "obj-14",
					"numoutlets" : 1
				}

			}
, 			{
				"box" : 				{
					"maxclass" : "toggle",
					"outlettype" : [ "int" ],
					"patching_rect" : [ 195.0, 254.0, 20.0, 20.0 ],
					"numinlets" : 1,
					"id" : "obj-26",
					"numoutlets" : 1
				}

			}
, 			{
				"box" : 				{
					"maxclass" : "toggle",
					"outlettype" : [ "int" ],
					"patching_rect" : [ 252.0, 255.0, 20.0, 20.0 ],
					"numinlets" : 1,
					"id" : "obj-22",
					"numoutlets" : 1
				}

			}
, 			{
				"box" : 				{
					"maxclass" : "newobj",
					"text" : "sel 0",
					"outlettype" : [ "bang", "" ],
					"fontname" : "Arial",
					"fontsize" : 12.0,
					"patching_rect" : [ 40.0, 213.0, 36.0, 20.0 ],
					"numinlets" : 2,
					"id" : "obj-21",
					"numoutlets" : 2
				}

			}
, 			{
				"box" : 				{
					"maxclass" : "newobj",
					"text" : "if $i1 < $i2 then $i1 else 0",
					"outlettype" : [ "" ],
					"fontname" : "Arial",
					"fontsize" : 12.0,
					"patching_rect" : [ 46.0, 79.0, 147.0, 20.0 ],
					"numinlets" : 2,
					"id" : "obj-19",
					"numoutlets" : 1
				}

			}
, 			{
				"box" : 				{
					"maxclass" : "message",
					"text" : "1",
					"outlettype" : [ "" ],
					"fontname" : "Arial",
					"fontsize" : 12.0,
					"patching_rect" : [ 135.0, 169.0, 32.5, 18.0 ],
					"numinlets" : 2,
					"id" : "obj-17",
					"numoutlets" : 1
				}

			}
, 			{
				"box" : 				{
					"maxclass" : "newobj",
					"text" : "+ 1",
					"outlettype" : [ "int" ],
					"fontname" : "Arial",
					"fontsize" : 12.0,
					"patching_rect" : [ 79.0, 181.0, 32.5, 20.0 ],
					"numinlets" : 2,
					"id" : "obj-16",
					"numoutlets" : 1
				}

			}
, 			{
				"box" : 				{
					"maxclass" : "number",
					"outlettype" : [ "int", "bang" ],
					"fontname" : "Arial",
					"fontsize" : 12.0,
					"patching_rect" : [ 37.0, 33.0, 50.0, 20.0 ],
					"numinlets" : 1,
					"id" : "obj-15",
					"numoutlets" : 2
				}

			}
, 			{
				"box" : 				{
					"maxclass" : "inlet",
					"outlettype" : [ "" ],
					"patching_rect" : [ 307.0, 45.0, 25.0, 25.0 ],
					"numinlets" : 0,
					"id" : "obj-39",
					"numoutlets" : 1,
					"comment" : "info to gate"
				}

			}
, 			{
				"box" : 				{
					"maxclass" : "outlet",
					"patching_rect" : [ 313.0, 275.0, 25.0, 25.0 ],
					"numinlets" : 1,
					"id" : "obj-41",
					"numoutlets" : 0,
					"comment" : "gate_output"
				}

			}
 ],
		"lines" : [ 			{
				"patchline" : 				{
					"source" : [ "obj-30", 0 ],
					"destination" : [ "obj-3", 0 ],
					"hidden" : 0,
					"midpoints" : [  ]
				}

			}
, 			{
				"patchline" : 				{
					"source" : [ "obj-30", 0 ],
					"destination" : [ "obj-41", 0 ],
					"hidden" : 0,
					"midpoints" : [  ]
				}

			}
, 			{
				"patchline" : 				{
					"source" : [ "obj-26", 0 ],
					"destination" : [ "obj-30", 0 ],
					"hidden" : 0,
					"midpoints" : [ 204.5, 285.0, 288.0, 285.0, 288.0, 150.0, 301.5, 150.0 ]
				}

			}
, 			{
				"patchline" : 				{
					"source" : [ "obj-39", 0 ],
					"destination" : [ "obj-30", 1 ],
					"hidden" : 0,
					"midpoints" : [  ]
				}

			}
, 			{
				"patchline" : 				{
					"source" : [ "obj-3", 0 ],
					"destination" : [ "obj-22", 0 ],
					"hidden" : 0,
					"midpoints" : [  ]
				}

			}
, 			{
				"patchline" : 				{
					"source" : [ "obj-3", 0 ],
					"destination" : [ "obj-26", 0 ],
					"hidden" : 0,
					"midpoints" : [  ]
				}

			}
, 			{
				"patchline" : 				{
					"source" : [ "obj-22", 0 ],
					"destination" : [ "obj-14", 0 ],
					"hidden" : 0,
					"midpoints" : [ 261.5, 276.0, 127.0, 276.0, 127.0, 105.0, 167.5, 105.0 ]
				}

			}
, 			{
				"patchline" : 				{
					"source" : [ "obj-2", 0 ],
					"destination" : [ "obj-14", 1 ],
					"hidden" : 0,
					"midpoints" : [  ]
				}

			}
, 			{
				"patchline" : 				{
					"source" : [ "obj-39", 0 ],
					"destination" : [ "obj-2", 0 ],
					"hidden" : 0,
					"midpoints" : [  ]
				}

			}
, 			{
				"patchline" : 				{
					"source" : [ "obj-1", 0 ],
					"destination" : [ "obj-4", 0 ],
					"hidden" : 0,
					"midpoints" : [ 222.5, 39.0, 183.5, 39.0 ]
				}

			}
, 			{
				"patchline" : 				{
					"source" : [ "obj-4", 0 ],
					"destination" : [ "obj-19", 1 ],
					"hidden" : 0,
					"midpoints" : [  ]
				}

			}
, 			{
				"patchline" : 				{
					"source" : [ "obj-19", 0 ],
					"destination" : [ "obj-15", 0 ],
					"hidden" : 0,
					"midpoints" : [ 55.5, 99.0, 24.0, 99.0, 24.0, 30.0, 46.5, 30.0 ]
				}

			}
, 			{
				"patchline" : 				{
					"source" : [ "obj-16", 0 ],
					"destination" : [ "obj-19", 0 ],
					"hidden" : 0,
					"midpoints" : [ 88.5, 201.0, 66.0, 201.0, 66.0, 111.0, 33.0, 111.0, 33.0, 75.0, 55.5, 75.0 ]
				}

			}
, 			{
				"patchline" : 				{
					"source" : [ "obj-1", 0 ],
					"destination" : [ "obj-26", 0 ],
					"hidden" : 0,
					"midpoints" : [ 222.5, 138.0, 204.5, 138.0 ]
				}

			}
, 			{
				"patchline" : 				{
					"source" : [ "obj-15", 0 ],
					"destination" : [ "obj-16", 1 ],
					"hidden" : 0,
					"midpoints" : [ 46.5, 66.0, 33.0, 66.0, 33.0, 168.0, 102.0, 168.0 ]
				}

			}
, 			{
				"patchline" : 				{
					"source" : [ "obj-17", 0 ],
					"destination" : [ "obj-16", 0 ],
					"hidden" : 0,
					"midpoints" : [  ]
				}

			}
, 			{
				"patchline" : 				{
					"source" : [ "obj-15", 0 ],
					"destination" : [ "obj-21", 0 ],
					"hidden" : 0,
					"midpoints" : [ 46.5, 66.0, 33.0, 66.0, 33.0, 198.0, 49.5, 198.0 ]
				}

			}
, 			{
				"patchline" : 				{
					"source" : [ "obj-21", 0 ],
					"destination" : [ "obj-22", 0 ],
					"hidden" : 0,
					"midpoints" : [ 49.5, 243.0, 138.0, 243.0, 138.0, 243.0, 261.5, 243.0 ]
				}

			}
, 			{
				"patchline" : 				{
					"source" : [ "obj-14", 0 ],
					"destination" : [ "obj-17", 0 ],
					"hidden" : 0,
					"midpoints" : [ 167.5, 156.0, 144.5, 156.0 ]
				}

			}
, 			{
				"patchline" : 				{
					"source" : [ "obj-21", 0 ],
					"destination" : [ "obj-26", 0 ],
					"hidden" : 0,
					"midpoints" : [ 49.5, 243.0, 204.5, 243.0 ]
				}

			}
 ]
	}

}
