{
	"patcher" : 	{
		"fileversion" : 1,
		"rect" : [ 21.0, 86.0, 676.0, 471.0 ],
		"bgcolor" : [ 1.0, 1.0, 1.0, 1.0 ],
		"bglocked" : 0,
		"defrect" : [ 21.0, 86.0, 676.0, 471.0 ],
		"openrect" : [ 0.0, 0.0, 0.0, 0.0 ],
		"openinpresentation" : 0,
		"default_fontsize" : 10.0,
		"default_fontface" : 0,
		"default_fontname" : "Arial",
		"gridonopen" : 0,
		"gridsize" : [ 15.0, 15.0 ],
		"gridsnaponopen" : 0,
		"toolbarvisible" : 1,
		"boxanimatetime" : 200,
		"imprint" : 1,
		"metadata" : [  ],
		"boxes" : [ 			{
				"box" : 				{
					"maxclass" : "inlet",
					"presentation_rect" : [ 0.0, 0.0, 0.0, 0.0 ],
					"ignoreclick" : 1,
					"patching_rect" : [ 180.0, 10.0, 25.0, 25.0 ],
					"hidden" : 0,
					"presentation" : 0,
					"numinlets" : 0,
					"id" : "obj-1",
					"numoutlets" : 1,
					"outlettype" : [ "" ],
					"background" : 0,
					"comment" : "stop"
				}

			}
, 			{
				"box" : 				{
					"maxclass" : "slider",
					"presentation_rect" : [ 0.0, 0.0, 0.0, 0.0 ],
					"relative" : 0,
					"ignoreclick" : 0,
					"mult" : 1.0,
					"min" : 0.0,
					"patching_rect" : [ 513.0, 278.0, 20.0, 140.0 ],
					"knobcolor" : [ 0.2, 0.2, 0.2, 1.0 ],
					"hidden" : 0,
					"presentation" : 0,
					"numinlets" : 1,
					"id" : "obj-42",
					"bgcolor" : [ 1.0, 1.0, 1.0, 1.0 ],
					"numoutlets" : 1,
					"orientation" : 0,
					"bordercolor" : [ 0.5, 0.5, 0.5, 1.0 ],
					"outlettype" : [ "" ],
					"floatoutput" : 0,
					"background" : 0,
					"size" : 128.0
				}

			}
, 			{
				"box" : 				{
					"maxclass" : "slider",
					"presentation_rect" : [ 0.0, 0.0, 0.0, 0.0 ],
					"relative" : 0,
					"ignoreclick" : 0,
					"mult" : 1.0,
					"min" : 0.0,
					"patching_rect" : [ 483.0, 278.0, 20.0, 140.0 ],
					"knobcolor" : [ 0.2, 0.2, 0.2, 1.0 ],
					"hidden" : 0,
					"presentation" : 0,
					"numinlets" : 1,
					"id" : "obj-41",
					"bgcolor" : [ 1.0, 1.0, 1.0, 1.0 ],
					"numoutlets" : 1,
					"orientation" : 0,
					"bordercolor" : [ 0.5, 0.5, 0.5, 1.0 ],
					"outlettype" : [ "" ],
					"floatoutput" : 0,
					"background" : 0,
					"size" : 128.0
				}

			}
, 			{
				"box" : 				{
					"maxclass" : "slider",
					"presentation_rect" : [ 0.0, 0.0, 0.0, 0.0 ],
					"relative" : 0,
					"ignoreclick" : 0,
					"mult" : 1.0,
					"min" : 0.0,
					"patching_rect" : [ 452.0, 278.0, 20.0, 140.0 ],
					"knobcolor" : [ 0.2, 0.2, 0.2, 1.0 ],
					"hidden" : 0,
					"presentation" : 0,
					"numinlets" : 1,
					"id" : "obj-27",
					"bgcolor" : [ 1.0, 1.0, 1.0, 1.0 ],
					"numoutlets" : 1,
					"orientation" : 0,
					"bordercolor" : [ 0.5, 0.5, 0.5, 1.0 ],
					"outlettype" : [ "" ],
					"floatoutput" : 0,
					"background" : 0,
					"size" : 128.0
				}

			}
, 			{
				"box" : 				{
					"maxclass" : "inlet",
					"presentation_rect" : [ 0.0, 0.0, 0.0, 0.0 ],
					"ignoreclick" : 0,
					"patching_rect" : [ 258.0, 108.0, 25.0, 25.0 ],
					"hidden" : 0,
					"presentation" : 0,
					"numinlets" : 0,
					"id" : "obj-37",
					"numoutlets" : 1,
					"outlettype" : [ "" ],
					"background" : 0,
					"comment" : ""
				}

			}
, 			{
				"box" : 				{
					"maxclass" : "inlet",
					"presentation_rect" : [ 0.0, 0.0, 0.0, 0.0 ],
					"ignoreclick" : 0,
					"patching_rect" : [ 341.0, 108.0, 25.0, 25.0 ],
					"hidden" : 0,
					"presentation" : 0,
					"numinlets" : 0,
					"id" : "obj-36",
					"numoutlets" : 1,
					"outlettype" : [ "" ],
					"background" : 0,
					"comment" : ""
				}

			}
, 			{
				"box" : 				{
					"maxclass" : "inlet",
					"presentation_rect" : [ 0.0, 0.0, 0.0, 0.0 ],
					"ignoreclick" : 0,
					"patching_rect" : [ 415.0, 109.0, 25.0, 25.0 ],
					"hidden" : 0,
					"presentation" : 0,
					"numinlets" : 0,
					"id" : "obj-35",
					"numoutlets" : 1,
					"outlettype" : [ "" ],
					"background" : 0,
					"comment" : ""
				}

			}
, 			{
				"box" : 				{
					"maxclass" : "jit.pwindow",
					"presentation_rect" : [ 0.0, 0.0, 0.0, 0.0 ],
					"usedstrect" : 0,
					"interp" : 0,
					"ignoreclick" : 0,
					"stereo" : 0,
					"patching_rect" : [ 227.0, 293.0, 171.0, 126.0 ],
					"hidden" : 0,
					"planemap" : [ 0, 1, 2, 3 ],
					"presentation" : 0,
					"numinlets" : 1,
					"colormode" : "argb",
					"srcrect" : [ 0, 0, 320, 240 ],
					"id" : "obj-20",
					"doublebuffer" : 1,
					"border" : 0.0,
					"idlemouse" : 0,
					"numoutlets" : 2,
					"bordercolor" : [ 0.0, 0.0, 0.0, 1.0 ],
					"dstrect" : [ 0, 0, 320, 240 ],
					"fsaa" : 0,
					"onscreen" : 1,
					"outlettype" : [ "", "" ],
					"usesrcrect" : 0,
					"background" : 0,
					"depthbuffer" : 1
				}

			}
, 			{
				"box" : 				{
					"maxclass" : "outlet",
					"presentation_rect" : [ 0.0, 0.0, 0.0, 0.0 ],
					"ignoreclick" : 0,
					"patching_rect" : [ 157.0, 293.0, 25.0, 25.0 ],
					"hidden" : 0,
					"presentation" : 0,
					"numinlets" : 1,
					"id" : "obj-30",
					"numoutlets" : 0,
					"background" : 0,
					"comment" : ""
				}

			}
, 			{
				"box" : 				{
					"maxclass" : "inlet",
					"presentation_rect" : [ 0.0, 0.0, 0.0, 0.0 ],
					"ignoreclick" : 0,
					"patching_rect" : [ 229.0, 7.0, 25.0, 25.0 ],
					"hidden" : 0,
					"presentation" : 0,
					"numinlets" : 0,
					"id" : "obj-33",
					"numoutlets" : 1,
					"outlettype" : [ "" ],
					"background" : 0,
					"comment" : "moviematrixinput"
				}

			}
, 			{
				"box" : 				{
					"maxclass" : "message",
					"text" : "stop",
					"presentation_rect" : [ 0.0, 0.0, 0.0, 0.0 ],
					"fontname" : "Arial",
					"ignoreclick" : 0,
					"gradient" : 0,
					"patching_rect" : [ 168.0, 51.0, 32.5, 18.0 ],
					"hidden" : 0,
					"presentation" : 0,
					"numinlets" : 2,
					"id" : "obj-32",
					"bgcolor" : [ 0.867, 0.867, 0.867, 1.0 ],
					"fontface" : 0,
					"textcolor" : [ 0.0, 0.0, 0.0, 1.0 ],
					"fontsize" : 11.595187,
					"numoutlets" : 1,
					"outlettype" : [ "" ],
					"background" : 0,
					"bgcolor2" : [ 0.867, 0.867, 0.867, 1.0 ]
				}

			}
, 			{
				"box" : 				{
					"maxclass" : "toggle",
					"presentation_rect" : [ 0.0, 0.0, 0.0, 0.0 ],
					"ignoreclick" : 0,
					"patching_rect" : [ 31.0, 28.0, 20.0, 20.0 ],
					"hidden" : 0,
					"presentation" : 0,
					"numinlets" : 1,
					"id" : "obj-23",
					"bgcolor" : [ 1.0, 1.0, 1.0, 1.0 ],
					"numoutlets" : 1,
					"bordercolor" : [ 0.5, 0.5, 0.5, 1.0 ],
					"outlettype" : [ "int" ],
					"checkedcolor" : [ 0.0, 0.0, 0.0, 1.0 ],
					"background" : 0
				}

			}
, 			{
				"box" : 				{
					"maxclass" : "inlet",
					"presentation_rect" : [ 0.0, 0.0, 0.0, 0.0 ],
					"ignoreclick" : 0,
					"patching_rect" : [ 71.0, 14.0, 25.0, 25.0 ],
					"hidden" : 0,
					"presentation" : 0,
					"numinlets" : 0,
					"id" : "obj-29",
					"numoutlets" : 1,
					"outlettype" : [ "" ],
					"background" : 0,
					"comment" : "on/off"
				}

			}
, 			{
				"box" : 				{
					"maxclass" : "comment",
					"text" : "Auto-rotate",
					"presentation_rect" : [ 0.0, 0.0, 0.0, 0.0 ],
					"fontname" : "Arial",
					"ignoreclick" : 1,
					"patching_rect" : [ 478.0, 110.0, 68.0, 20.0 ],
					"hidden" : 0,
					"presentation" : 0,
					"numinlets" : 1,
					"id" : "obj-4",
					"bgcolor" : [ 1.0, 1.0, 1.0, 0.0 ],
					"frgb" : [ 0.0, 0.0, 0.0, 1.0 ],
					"underline" : 0,
					"fontface" : 0,
					"textcolor" : [ 0.0, 0.0, 0.0, 1.0 ],
					"fontsize" : 11.595187,
					"numoutlets" : 0,
					"background" : 0
				}

			}
, 			{
				"box" : 				{
					"maxclass" : "comment",
					"text" : "Rotate the hue",
					"presentation_rect" : [ 0.0, 0.0, 0.0, 0.0 ],
					"fontname" : "Arial",
					"ignoreclick" : 1,
					"patching_rect" : [ 205.0, 235.0, 87.0, 20.0 ],
					"hidden" : 0,
					"presentation" : 0,
					"numinlets" : 1,
					"id" : "obj-5",
					"bgcolor" : [ 1.0, 1.0, 1.0, 0.0 ],
					"frgb" : [ 0.0, 0.0, 0.0, 1.0 ],
					"underline" : 0,
					"fontface" : 0,
					"textcolor" : [ 0.0, 0.0, 0.0, 1.0 ],
					"fontsize" : 11.595187,
					"numoutlets" : 0,
					"background" : 0
				}

			}
, 			{
				"box" : 				{
					"maxclass" : "comment",
					"text" : "Change the contrast, brightness, and saturation of the matrix",
					"presentation_rect" : [ 0.0, 0.0, 0.0, 0.0 ],
					"fontname" : "Arial",
					"ignoreclick" : 1,
					"patching_rect" : [ 219.0, 197.0, 322.0, 20.0 ],
					"hidden" : 0,
					"presentation" : 0,
					"numinlets" : 1,
					"id" : "obj-6",
					"bgcolor" : [ 1.0, 1.0, 1.0, 0.0 ],
					"frgb" : [ 0.0, 0.0, 0.0, 1.0 ],
					"underline" : 0,
					"fontface" : 0,
					"textcolor" : [ 0.0, 0.0, 0.0, 1.0 ],
					"fontsize" : 11.595187,
					"numoutlets" : 0,
					"background" : 0
				}

			}
, 			{
				"box" : 				{
					"maxclass" : "toggle",
					"presentation_rect" : [ 0.0, 0.0, 0.0, 0.0 ],
					"ignoreclick" : 0,
					"patching_rect" : [ 548.0, 108.0, 20.0, 20.0 ],
					"hidden" : 0,
					"presentation" : 0,
					"numinlets" : 1,
					"id" : "obj-7",
					"bgcolor" : [ 1.0, 1.0, 1.0, 1.0 ],
					"numoutlets" : 1,
					"bordercolor" : [ 0.5, 0.5, 0.5, 1.0 ],
					"outlettype" : [ "int" ],
					"checkedcolor" : [ 0.0, 0.0, 0.0, 1.0 ],
					"background" : 0
				}

			}
, 			{
				"box" : 				{
					"maxclass" : "newobj",
					"text" : "p auto",
					"presentation_rect" : [ 0.0, 0.0, 0.0, 0.0 ],
					"fontname" : "Arial",
					"ignoreclick" : 0,
					"patching_rect" : [ 548.0, 131.0, 43.0, 20.0 ],
					"hidden" : 0,
					"presentation" : 0,
					"numinlets" : 2,
					"id" : "obj-8",
					"bgcolor" : [ 1.0, 1.0, 1.0, 1.0 ],
					"fontface" : 0,
					"textcolor" : [ 0.0, 0.0, 0.0, 1.0 ],
					"fontsize" : 11.595187,
					"numoutlets" : 1,
					"outlettype" : [ "" ],
					"background" : 0,
					"color" : [ 0.8, 0.84, 0.71, 1.0 ],
					"patcher" : 					{
						"fileversion" : 1,
						"rect" : [ 40.0, 55.0, 268.0, 327.0 ],
						"bglocked" : 0,
						"defrect" : [ 40.0, 55.0, 268.0, 327.0 ],
						"openrect" : [ 0.0, 0.0, 0.0, 0.0 ],
						"openinpresentation" : 0,
						"default_fontsize" : 10.0,
						"default_fontface" : 0,
						"default_fontname" : "Arial",
						"gridonopen" : 0,
						"gridsize" : [ 15.0, 15.0 ],
						"gridsnaponopen" : 0,
						"toolbarvisible" : 1,
						"boxanimatetime" : 200,
						"imprint" : 0,
						"metadata" : [  ],
						"boxes" : [ 							{
								"box" : 								{
									"maxclass" : "comment",
									"text" : "bline ramps from 0 to 360 over 200 bangs, then starts over",
									"linecount" : 3,
									"fontname" : "Arial",
									"patching_rect" : [ 118.0, 51.0, 135.0, 46.0 ],
									"numinlets" : 1,
									"id" : "obj-1",
									"fontsize" : 11.595187,
									"numoutlets" : 0
								}

							}
, 							{
								"box" : 								{
									"maxclass" : "inlet",
									"patching_rect" : [ 36.0, 57.0, 25.0, 25.0 ],
									"numinlets" : 0,
									"id" : "obj-2",
									"numoutlets" : 1,
									"outlettype" : [ "bang" ],
									"comment" : ""
								}

							}
, 							{
								"box" : 								{
									"maxclass" : "newobj",
									"text" : "gate",
									"fontname" : "Arial",
									"patching_rect" : [ 8.0, 116.0, 47.0, 20.0 ],
									"numinlets" : 2,
									"id" : "obj-3",
									"fontsize" : 11.595187,
									"numoutlets" : 1,
									"outlettype" : [ "" ]
								}

							}
, 							{
								"box" : 								{
									"maxclass" : "newobj",
									"text" : "del 1",
									"fontname" : "Arial",
									"patching_rect" : [ 110.0, 118.0, 36.0, 20.0 ],
									"numinlets" : 2,
									"id" : "obj-4",
									"fontsize" : 11.595187,
									"numoutlets" : 1,
									"outlettype" : [ "bang" ]
								}

							}
, 							{
								"box" : 								{
									"maxclass" : "message",
									"text" : "0 0 360 200",
									"fontname" : "Arial",
									"patching_rect" : [ 110.0, 149.0, 72.0, 18.0 ],
									"numinlets" : 2,
									"id" : "obj-5",
									"fontsize" : 11.595187,
									"numoutlets" : 1,
									"outlettype" : [ "" ]
								}

							}
, 							{
								"box" : 								{
									"maxclass" : "newobj",
									"text" : "bline",
									"fontname" : "Arial",
									"patching_rect" : [ 110.0, 174.0, 35.0, 20.0 ],
									"numinlets" : 1,
									"id" : "obj-6",
									"fontsize" : 11.595187,
									"numoutlets" : 2,
									"outlettype" : [ "", "" ],
									"color" : [ 1.0, 0.890196, 0.090196, 1.0 ]
								}

							}
, 							{
								"box" : 								{
									"maxclass" : "newobj",
									"text" : "loadbang",
									"fontname" : "Arial",
									"patching_rect" : [ 53.0, 84.0, 58.0, 20.0 ],
									"numinlets" : 1,
									"id" : "obj-7",
									"fontsize" : 11.595187,
									"numoutlets" : 1,
									"outlettype" : [ "bang" ]
								}

							}
, 							{
								"box" : 								{
									"maxclass" : "outlet",
									"patching_rect" : [ 110.0, 228.0, 25.0, 25.0 ],
									"numinlets" : 1,
									"id" : "obj-8",
									"numoutlets" : 0,
									"comment" : ""
								}

							}
, 							{
								"box" : 								{
									"maxclass" : "inlet",
									"patching_rect" : [ 8.0, 57.0, 25.0, 25.0 ],
									"numinlets" : 0,
									"id" : "obj-9",
									"numoutlets" : 1,
									"outlettype" : [ "int" ],
									"comment" : ""
								}

							}
 ],
						"lines" : [ 							{
								"patchline" : 								{
									"source" : [ "obj-6", 0 ],
									"destination" : [ "obj-8", 0 ],
									"hidden" : 0,
									"midpoints" : [  ]
								}

							}
, 							{
								"patchline" : 								{
									"source" : [ "obj-5", 0 ],
									"destination" : [ "obj-6", 0 ],
									"hidden" : 0,
									"midpoints" : [  ]
								}

							}
, 							{
								"patchline" : 								{
									"source" : [ "obj-3", 0 ],
									"destination" : [ "obj-6", 0 ],
									"hidden" : 0,
									"midpoints" : [ 17.5, 169.0, 119.5, 169.0 ]
								}

							}
, 							{
								"patchline" : 								{
									"source" : [ "obj-4", 0 ],
									"destination" : [ "obj-5", 0 ],
									"hidden" : 0,
									"midpoints" : [  ]
								}

							}
, 							{
								"patchline" : 								{
									"source" : [ "obj-7", 0 ],
									"destination" : [ "obj-5", 0 ],
									"hidden" : 0,
									"midpoints" : [  ]
								}

							}
, 							{
								"patchline" : 								{
									"source" : [ "obj-6", 1 ],
									"destination" : [ "obj-4", 0 ],
									"hidden" : 0,
									"midpoints" : [ 135.5, 199.0, 203.0, 199.0, 203.0, 103.0, 119.5, 103.0 ]
								}

							}
, 							{
								"patchline" : 								{
									"source" : [ "obj-2", 0 ],
									"destination" : [ "obj-3", 1 ],
									"hidden" : 0,
									"midpoints" : [  ]
								}

							}
, 							{
								"patchline" : 								{
									"source" : [ "obj-9", 0 ],
									"destination" : [ "obj-3", 0 ],
									"hidden" : 0,
									"midpoints" : [  ]
								}

							}
 ]
					}
,
					"saved_object_attributes" : 					{
						"default_fontname" : "Arial",
						"fontname" : "Arial",
						"default_fontsize" : 10.0,
						"fontface" : 0,
						"fontsize" : 10.0,
						"globalpatchername" : "",
						"default_fontface" : 0
					}

				}

			}
, 			{
				"box" : 				{
					"maxclass" : "comment",
					"text" : "Play",
					"presentation_rect" : [ 0.0, 0.0, 0.0, 0.0 ],
					"fontname" : "Arial",
					"ignoreclick" : 1,
					"patching_rect" : [ 46.0, 67.0, 33.0, 20.0 ],
					"hidden" : 0,
					"presentation" : 0,
					"numinlets" : 1,
					"id" : "obj-9",
					"bgcolor" : [ 1.0, 1.0, 1.0, 0.0 ],
					"frgb" : [ 0.0, 0.0, 0.0, 1.0 ],
					"underline" : 0,
					"fontface" : 0,
					"textcolor" : [ 0.0, 0.0, 0.0, 1.0 ],
					"fontsize" : 11.595187,
					"numoutlets" : 0,
					"background" : 0
				}

			}
, 			{
				"box" : 				{
					"maxclass" : "flonum",
					"presentation_rect" : [ 0.0, 0.0, 0.0, 0.0 ],
					"fontname" : "Arial",
					"triscale" : 0.9,
					"ignoreclick" : 0,
					"minimum" : "<none>",
					"patching_rect" : [ 548.0, 160.0, 54.0, 20.0 ],
					"hidden" : 0,
					"cantchange" : 0,
					"numdecimalplaces" : 0,
					"presentation" : 0,
					"numinlets" : 1,
					"id" : "obj-10",
					"bgcolor" : [ 0.866667, 0.866667, 0.866667, 1.0 ],
					"htricolor" : [ 0.87, 0.82, 0.24, 1.0 ],
					"maximum" : "<none>",
					"fontface" : 0,
					"textcolor" : [ 0.0, 0.0, 0.0, 1.0 ],
					"fontsize" : 11.595187,
					"numoutlets" : 2,
					"bordercolor" : [ 0.5, 0.5, 0.5, 1.0 ],
					"triangle" : 1,
					"hbgcolor" : [ 0.0, 0.0, 0.0, 1.0 ],
					"tricolor" : [ 0.75, 0.75, 0.75, 1.0 ],
					"outlettype" : [ "float", "bang" ],
					"htextcolor" : [ 0.870588, 0.870588, 0.870588, 1.0 ],
					"outputonclick" : 0,
					"background" : 0,
					"mouseup" : 0
				}

			}
, 			{
				"box" : 				{
					"maxclass" : "message",
					"text" : "hue_angle $1",
					"presentation_rect" : [ 0.0, 0.0, 0.0, 0.0 ],
					"fontname" : "Arial",
					"ignoreclick" : 0,
					"gradient" : 0,
					"patching_rect" : [ 548.0, 197.0, 81.0, 18.0 ],
					"hidden" : 0,
					"presentation" : 0,
					"numinlets" : 2,
					"id" : "obj-14",
					"bgcolor" : [ 0.867, 0.867, 0.867, 1.0 ],
					"fontface" : 0,
					"textcolor" : [ 0.0, 0.0, 0.0, 1.0 ],
					"fontsize" : 11.595187,
					"numoutlets" : 1,
					"outlettype" : [ "" ],
					"background" : 0,
					"bgcolor2" : [ 0.867, 0.867, 0.867, 1.0 ]
				}

			}
, 			{
				"box" : 				{
					"maxclass" : "message",
					"text" : "saturation $1",
					"presentation_rect" : [ 0.0, 0.0, 0.0, 0.0 ],
					"fontname" : "Arial",
					"ignoreclick" : 0,
					"gradient" : 0,
					"patching_rect" : [ 415.0, 143.0, 78.0, 18.0 ],
					"hidden" : 0,
					"presentation" : 0,
					"numinlets" : 2,
					"id" : "obj-15",
					"bgcolor" : [ 0.867, 0.867, 0.867, 1.0 ],
					"fontface" : 0,
					"textcolor" : [ 0.0, 0.0, 0.0, 1.0 ],
					"fontsize" : 11.595187,
					"numoutlets" : 1,
					"outlettype" : [ "" ],
					"background" : 0,
					"bgcolor2" : [ 0.867, 0.867, 0.867, 1.0 ]
				}

			}
, 			{
				"box" : 				{
					"maxclass" : "message",
					"text" : "brightness $1",
					"presentation_rect" : [ 0.0, 0.0, 0.0, 0.0 ],
					"fontname" : "Arial",
					"ignoreclick" : 0,
					"gradient" : 0,
					"patching_rect" : [ 258.0, 144.0, 80.0, 18.0 ],
					"hidden" : 0,
					"presentation" : 0,
					"numinlets" : 2,
					"id" : "obj-16",
					"bgcolor" : [ 0.867, 0.867, 0.867, 1.0 ],
					"fontface" : 0,
					"textcolor" : [ 0.0, 0.0, 0.0, 1.0 ],
					"fontsize" : 11.595187,
					"numoutlets" : 1,
					"outlettype" : [ "" ],
					"background" : 0,
					"bgcolor2" : [ 0.867, 0.867, 0.867, 1.0 ]
				}

			}
, 			{
				"box" : 				{
					"maxclass" : "message",
					"text" : "contrast $1",
					"presentation_rect" : [ 0.0, 0.0, 0.0, 0.0 ],
					"fontname" : "Arial",
					"ignoreclick" : 0,
					"gradient" : 0,
					"patching_rect" : [ 341.0, 144.0, 68.0, 18.0 ],
					"hidden" : 0,
					"presentation" : 0,
					"numinlets" : 2,
					"id" : "obj-17",
					"bgcolor" : [ 0.867, 0.867, 0.867, 1.0 ],
					"fontface" : 0,
					"textcolor" : [ 0.0, 0.0, 0.0, 1.0 ],
					"fontsize" : 11.595187,
					"numoutlets" : 1,
					"outlettype" : [ "" ],
					"background" : 0,
					"bgcolor2" : [ 0.867, 0.867, 0.867, 1.0 ]
				}

			}
, 			{
				"box" : 				{
					"maxclass" : "newobj",
					"text" : "metro 50",
					"presentation_rect" : [ 0.0, 0.0, 0.0, 0.0 ],
					"fontname" : "Arial",
					"ignoreclick" : 0,
					"patching_rect" : [ 99.0, 76.0, 56.0, 20.0 ],
					"hidden" : 0,
					"presentation" : 0,
					"numinlets" : 2,
					"id" : "obj-19",
					"bgcolor" : [ 1.0, 1.0, 1.0, 1.0 ],
					"fontface" : 0,
					"textcolor" : [ 0.0, 0.0, 0.0, 1.0 ],
					"fontsize" : 11.595187,
					"numoutlets" : 1,
					"outlettype" : [ "bang" ],
					"background" : 0,
					"color" : [ 0.8, 0.84, 0.71, 1.0 ]
				}

			}
, 			{
				"box" : 				{
					"maxclass" : "newobj",
					"text" : "jit.hue",
					"presentation_rect" : [ 0.0, 0.0, 0.0, 0.0 ],
					"fontname" : "Arial",
					"ignoreclick" : 0,
					"patching_rect" : [ 157.0, 234.0, 41.0, 20.0 ],
					"hidden" : 0,
					"presentation" : 0,
					"numinlets" : 1,
					"id" : "obj-21",
					"bgcolor" : [ 1.0, 1.0, 1.0, 1.0 ],
					"fontface" : 0,
					"textcolor" : [ 0.0, 0.0, 0.0, 1.0 ],
					"fontsize" : 11.595187,
					"numoutlets" : 2,
					"outlettype" : [ "jit_matrix", "" ],
					"background" : 0,
					"color" : [ 1.0, 0.890196, 0.090196, 1.0 ]
				}

			}
, 			{
				"box" : 				{
					"maxclass" : "newobj",
					"text" : "jit.brcosa",
					"presentation_rect" : [ 0.0, 0.0, 0.0, 0.0 ],
					"fontname" : "Arial",
					"ignoreclick" : 0,
					"patching_rect" : [ 158.0, 197.0, 57.0, 20.0 ],
					"hidden" : 0,
					"presentation" : 0,
					"numinlets" : 1,
					"id" : "obj-22",
					"bgcolor" : [ 1.0, 1.0, 1.0, 1.0 ],
					"fontface" : 0,
					"textcolor" : [ 0.0, 0.0, 0.0, 1.0 ],
					"fontsize" : 11.595187,
					"numoutlets" : 2,
					"outlettype" : [ "jit_matrix", "" ],
					"background" : 0,
					"color" : [ 1.0, 0.890196, 0.090196, 1.0 ]
				}

			}
, 			{
				"box" : 				{
					"maxclass" : "newobj",
					"text" : "jit.qt.movie",
					"presentation_rect" : [ 0.0, 0.0, 0.0, 0.0 ],
					"fontname" : "Arial",
					"ignoreclick" : 0,
					"patching_rect" : [ 113.0, 121.0, 66.0, 20.0 ],
					"hidden" : 0,
					"presentation" : 0,
					"numinlets" : 1,
					"id" : "obj-24",
					"bgcolor" : [ 1.0, 1.0, 1.0, 1.0 ],
					"fontface" : 0,
					"textcolor" : [ 0.0, 0.0, 0.0, 1.0 ],
					"fontsize" : 11.595187,
					"numoutlets" : 2,
					"outlettype" : [ "jit_matrix", "" ],
					"background" : 0,
					"color" : [ 0.8, 0.84, 0.71, 1.0 ]
				}

			}
, 			{
				"box" : 				{
					"maxclass" : "comment",
					"text" : "Open",
					"presentation_rect" : [ 0.0, 0.0, 0.0, 0.0 ],
					"fontname" : "Arial",
					"ignoreclick" : 1,
					"patching_rect" : [ 123.0, 51.0, 39.0, 20.0 ],
					"hidden" : 0,
					"presentation" : 0,
					"numinlets" : 1,
					"id" : "obj-25",
					"bgcolor" : [ 1.0, 1.0, 1.0, 0.0 ],
					"frgb" : [ 0.0, 0.0, 0.0, 1.0 ],
					"underline" : 0,
					"fontface" : 0,
					"textcolor" : [ 0.0, 0.0, 0.0, 1.0 ],
					"fontsize" : 11.595187,
					"numoutlets" : 0,
					"background" : 0
				}

			}
 ],
		"lines" : [ 			{
				"patchline" : 				{
					"source" : [ "obj-1", 0 ],
					"destination" : [ "obj-22", 0 ],
					"hidden" : 0,
					"color" : [ 0.0, 0.0, 0.0, 1.0 ],
					"midpoints" : [  ]
				}

			}
, 			{
				"patchline" : 				{
					"source" : [ "obj-33", 0 ],
					"destination" : [ "obj-22", 0 ],
					"hidden" : 0,
					"color" : [ 0.0, 0.0, 0.0, 1.0 ],
					"midpoints" : [  ]
				}

			}
, 			{
				"patchline" : 				{
					"source" : [ "obj-19", 0 ],
					"destination" : [ "obj-24", 0 ],
					"hidden" : 0,
					"color" : [ 0.0, 0.0, 0.0, 1.0 ],
					"midpoints" : [ 108.5, 102.0, 122.5, 102.0 ]
				}

			}
, 			{
				"patchline" : 				{
					"source" : [ "obj-19", 0 ],
					"destination" : [ "obj-8", 1 ],
					"hidden" : 0,
					"color" : [ 0.0, 0.0, 0.0, 1.0 ],
					"midpoints" : [ 108.5, 99.0, 581.5, 99.0 ]
				}

			}
, 			{
				"patchline" : 				{
					"source" : [ "obj-23", 0 ],
					"destination" : [ "obj-19", 0 ],
					"hidden" : 0,
					"color" : [ 0.0, 0.0, 0.0, 1.0 ],
					"midpoints" : [  ]
				}

			}
, 			{
				"patchline" : 				{
					"source" : [ "obj-29", 0 ],
					"destination" : [ "obj-19", 0 ],
					"hidden" : 0,
					"color" : [ 0.0, 0.0, 0.0, 1.0 ],
					"midpoints" : [  ]
				}

			}
, 			{
				"patchline" : 				{
					"source" : [ "obj-21", 0 ],
					"destination" : [ "obj-20", 0 ],
					"hidden" : 0,
					"color" : [ 0.0, 0.0, 0.0, 1.0 ],
					"midpoints" : [  ]
				}

			}
, 			{
				"patchline" : 				{
					"source" : [ "obj-21", 0 ],
					"destination" : [ "obj-30", 0 ],
					"hidden" : 0,
					"color" : [ 0.0, 0.0, 0.0, 1.0 ],
					"midpoints" : [  ]
				}

			}
, 			{
				"patchline" : 				{
					"source" : [ "obj-32", 0 ],
					"destination" : [ "obj-24", 0 ],
					"hidden" : 0,
					"color" : [ 0.0, 0.0, 0.0, 1.0 ],
					"midpoints" : [  ]
				}

			}
, 			{
				"patchline" : 				{
					"source" : [ "obj-10", 0 ],
					"destination" : [ "obj-14", 0 ],
					"hidden" : 0,
					"color" : [ 0.0, 0.0, 0.0, 1.0 ],
					"midpoints" : [  ]
				}

			}
, 			{
				"patchline" : 				{
					"source" : [ "obj-8", 0 ],
					"destination" : [ "obj-10", 0 ],
					"hidden" : 0,
					"color" : [ 0.0, 0.0, 0.0, 1.0 ],
					"midpoints" : [  ]
				}

			}
, 			{
				"patchline" : 				{
					"source" : [ "obj-7", 0 ],
					"destination" : [ "obj-8", 0 ],
					"hidden" : 0,
					"color" : [ 0.0, 0.0, 0.0, 1.0 ],
					"midpoints" : [  ]
				}

			}
, 			{
				"patchline" : 				{
					"source" : [ "obj-14", 0 ],
					"destination" : [ "obj-21", 0 ],
					"hidden" : 0,
					"color" : [ 0.0, 0.0, 0.0, 1.0 ],
					"midpoints" : [ 557.5, 226.0, 166.5, 226.0 ]
				}

			}
, 			{
				"patchline" : 				{
					"source" : [ "obj-22", 0 ],
					"destination" : [ "obj-21", 0 ],
					"hidden" : 0,
					"color" : [ 0.0, 0.0, 0.0, 1.0 ],
					"midpoints" : [  ]
				}

			}
, 			{
				"patchline" : 				{
					"source" : [ "obj-15", 0 ],
					"destination" : [ "obj-22", 0 ],
					"hidden" : 0,
					"color" : [ 0.0, 0.0, 0.0, 1.0 ],
					"midpoints" : [ 424.5, 183.0, 167.5, 183.0 ]
				}

			}
, 			{
				"patchline" : 				{
					"source" : [ "obj-17", 0 ],
					"destination" : [ "obj-22", 0 ],
					"hidden" : 0,
					"color" : [ 0.0, 0.0, 0.0, 1.0 ],
					"midpoints" : [ 350.5, 177.0, 167.5, 177.0 ]
				}

			}
, 			{
				"patchline" : 				{
					"source" : [ "obj-16", 0 ],
					"destination" : [ "obj-22", 0 ],
					"hidden" : 0,
					"color" : [ 0.0, 0.0, 0.0, 1.0 ],
					"midpoints" : [ 267.5, 170.0, 167.5, 170.0 ]
				}

			}
, 			{
				"patchline" : 				{
					"source" : [ "obj-24", 0 ],
					"destination" : [ "obj-22", 0 ],
					"hidden" : 0,
					"color" : [ 0.0, 0.0, 0.0, 1.0 ],
					"midpoints" : [  ]
				}

			}
, 			{
				"patchline" : 				{
					"source" : [ "obj-27", 0 ],
					"destination" : [ "obj-16", 0 ],
					"hidden" : 0,
					"color" : [ 0.0, 0.0, 0.0, 1.0 ],
					"midpoints" : [  ]
				}

			}
, 			{
				"patchline" : 				{
					"source" : [ "obj-41", 0 ],
					"destination" : [ "obj-17", 0 ],
					"hidden" : 0,
					"color" : [ 0.0, 0.0, 0.0, 1.0 ],
					"midpoints" : [  ]
				}

			}
, 			{
				"patchline" : 				{
					"source" : [ "obj-42", 0 ],
					"destination" : [ "obj-15", 0 ],
					"hidden" : 0,
					"color" : [ 0.0, 0.0, 0.0, 1.0 ],
					"midpoints" : [  ]
				}

			}
, 			{
				"patchline" : 				{
					"source" : [ "obj-37", 0 ],
					"destination" : [ "obj-16", 0 ],
					"hidden" : 0,
					"color" : [ 0.0, 0.0, 0.0, 1.0 ],
					"midpoints" : [  ]
				}

			}
, 			{
				"patchline" : 				{
					"source" : [ "obj-36", 0 ],
					"destination" : [ "obj-17", 0 ],
					"hidden" : 0,
					"color" : [ 0.0, 0.0, 0.0, 1.0 ],
					"midpoints" : [  ]
				}

			}
, 			{
				"patchline" : 				{
					"source" : [ "obj-35", 0 ],
					"destination" : [ "obj-15", 0 ],
					"hidden" : 0,
					"color" : [ 0.0, 0.0, 0.0, 1.0 ],
					"midpoints" : [  ]
				}

			}
 ]
	}

}
