{
	"patcher" : 	{
		"fileversion" : 1,
		"rect" : [ 251.0, 46.0, 680.0, 534.0 ],
		"bglocked" : 0,
		"defrect" : [ 251.0, 46.0, 680.0, 534.0 ],
		"openrect" : [ 0.0, 0.0, 0.0, 0.0 ],
		"openinpresentation" : 1,
		"default_fontsize" : 12.0,
		"default_fontface" : 0,
		"default_fontname" : "Arial",
		"gridonopen" : 0,
		"gridsize" : [ 15.0, 15.0 ],
		"gridsnaponopen" : 0,
		"toolbarvisible" : 1,
		"boxanimatetime" : 200,
		"imprint" : 0,
		"metadata" : [  ],
		"boxes" : [ 			{
				"box" : 				{
					"maxclass" : "comment",
					"text" : "fadetime",
					"patching_rect" : [ 226.0, 35.0, 72.0, 20.0 ],
					"presentation" : 1,
					"id" : "obj-53",
					"fontname" : "Arial",
					"fontsize" : 12.0,
					"numinlets" : 1,
					"presentation_rect" : [ 195.0, 121.0, 68.0, 20.0 ],
					"numoutlets" : 0
				}

			}
, 			{
				"box" : 				{
					"maxclass" : "newobj",
					"text" : "/",
					"patching_rect" : [ 941.0, 389.0, 36.0, 20.0 ],
					"outlettype" : [ "int" ],
					"id" : "obj-85",
					"fontname" : "Arial",
					"fontsize" : 11.595187,
					"numinlets" : 2,
					"numoutlets" : 1,
					"color" : [ 0.184314, 1.0, 0.0, 1.0 ]
				}

			}
, 			{
				"box" : 				{
					"maxclass" : "newobj",
					"text" : "-",
					"patching_rect" : [ 941.0, 359.0, 30.0, 20.0 ],
					"outlettype" : [ "int" ],
					"id" : "obj-86",
					"fontname" : "Arial",
					"fontsize" : 11.595187,
					"numinlets" : 2,
					"numoutlets" : 1,
					"color" : [ 0.184314, 1.0, 0.0, 1.0 ]
				}

			}
, 			{
				"box" : 				{
					"maxclass" : "newobj",
					"text" : "/",
					"patching_rect" : [ 899.0, 389.0, 36.0, 20.0 ],
					"outlettype" : [ "int" ],
					"id" : "obj-83",
					"fontname" : "Arial",
					"fontsize" : 11.595187,
					"numinlets" : 2,
					"numoutlets" : 1,
					"color" : [ 0.184314, 1.0, 0.0, 1.0 ]
				}

			}
, 			{
				"box" : 				{
					"maxclass" : "newobj",
					"text" : "-",
					"patching_rect" : [ 899.0, 359.0, 30.0, 20.0 ],
					"outlettype" : [ "int" ],
					"id" : "obj-84",
					"fontname" : "Arial",
					"fontsize" : 11.595187,
					"numinlets" : 2,
					"numoutlets" : 1,
					"color" : [ 0.184314, 1.0, 0.0, 1.0 ]
				}

			}
, 			{
				"box" : 				{
					"maxclass" : "newobj",
					"text" : "/",
					"patching_rect" : [ 856.0, 389.0, 36.0, 20.0 ],
					"outlettype" : [ "int" ],
					"id" : "obj-81",
					"fontname" : "Arial",
					"fontsize" : 11.595187,
					"numinlets" : 2,
					"numoutlets" : 1,
					"color" : [ 0.184314, 1.0, 0.0, 1.0 ]
				}

			}
, 			{
				"box" : 				{
					"maxclass" : "newobj",
					"text" : "-",
					"patching_rect" : [ 856.0, 359.0, 30.0, 20.0 ],
					"outlettype" : [ "int" ],
					"id" : "obj-82",
					"fontname" : "Arial",
					"fontsize" : 11.595187,
					"numinlets" : 2,
					"numoutlets" : 1,
					"color" : [ 0.184314, 1.0, 0.0, 1.0 ]
				}

			}
, 			{
				"box" : 				{
					"maxclass" : "newobj",
					"text" : "/",
					"patching_rect" : [ 814.0, 390.0, 36.0, 20.0 ],
					"outlettype" : [ "int" ],
					"id" : "obj-80",
					"fontname" : "Arial",
					"fontsize" : 11.595187,
					"numinlets" : 2,
					"numoutlets" : 1,
					"color" : [ 0.184314, 1.0, 0.0, 1.0 ]
				}

			}
, 			{
				"box" : 				{
					"maxclass" : "newobj",
					"text" : "-",
					"patching_rect" : [ 814.0, 360.0, 30.0, 20.0 ],
					"outlettype" : [ "int" ],
					"id" : "obj-79",
					"fontname" : "Arial",
					"fontsize" : 11.595187,
					"numinlets" : 2,
					"numoutlets" : 1,
					"color" : [ 0.184314, 1.0, 0.0, 1.0 ]
				}

			}
, 			{
				"box" : 				{
					"maxclass" : "comment",
					"text" : "maximum",
					"patching_rect" : [ 957.0, 278.0, 67.0, 20.0 ],
					"presentation" : 1,
					"id" : "obj-78",
					"fontname" : "Arial",
					"fontsize" : 12.0,
					"numinlets" : 1,
					"presentation_rect" : [ 559.0, 561.0, 68.0, 20.0 ],
					"numoutlets" : 0
				}

			}
, 			{
				"box" : 				{
					"maxclass" : "comment",
					"text" : "minimum",
					"patching_rect" : [ 894.0, 278.0, 60.0, 20.0 ],
					"presentation" : 1,
					"id" : "obj-75",
					"fontname" : "Arial",
					"fontsize" : 12.0,
					"numinlets" : 1,
					"presentation_rect" : [ 569.0, 585.0, 68.0, 20.0 ],
					"numoutlets" : 0
				}

			}
, 			{
				"box" : 				{
					"maxclass" : "number",
					"minimum" : 400,
					"patching_rect" : [ 959.0, 306.0, 53.0, 20.0 ],
					"outlettype" : [ "int", "bang" ],
					"id" : "obj-74",
					"fontname" : "Arial",
					"triscale" : 0.9,
					"fontsize" : 11.595187,
					"bgcolor" : [ 0.866667, 0.866667, 0.866667, 1.0 ],
					"numinlets" : 1,
					"htextcolor" : [ 0.870588, 0.870588, 0.870588, 1.0 ],
					"numoutlets" : 2
				}

			}
, 			{
				"box" : 				{
					"maxclass" : "number",
					"minimum" : 10,
					"patching_rect" : [ 900.0, 306.0, 53.0, 20.0 ],
					"outlettype" : [ "int", "bang" ],
					"id" : "obj-69",
					"fontname" : "Arial",
					"triscale" : 0.9,
					"fontsize" : 11.595187,
					"bgcolor" : [ 0.866667, 0.866667, 0.866667, 1.0 ],
					"numinlets" : 1,
					"htextcolor" : [ 0.870588, 0.870588, 0.870588, 1.0 ],
					"numoutlets" : 2
				}

			}
, 			{
				"box" : 				{
					"maxclass" : "slider",
					"patching_rect" : [ 706.0, 568.0, 20.0, 140.0 ],
					"outlettype" : [ "" ],
					"presentation" : 1,
					"id" : "obj-40",
					"min" : -500.0,
					"numinlets" : 1,
					"presentation_rect" : [ 589.0, 331.0, 20.0, 140.0 ],
					"numoutlets" : 1,
					"size" : 1000.0
				}

			}
, 			{
				"box" : 				{
					"maxclass" : "slider",
					"patching_rect" : [ 674.0, 568.0, 20.0, 140.0 ],
					"outlettype" : [ "" ],
					"presentation" : 1,
					"id" : "obj-41",
					"min" : -500.0,
					"numinlets" : 1,
					"presentation_rect" : [ 561.0, 331.0, 20.0, 140.0 ],
					"numoutlets" : 1,
					"size" : 1000.0
				}

			}
, 			{
				"box" : 				{
					"maxclass" : "slider",
					"patching_rect" : [ 704.0, 380.0, 20.0, 140.0 ],
					"outlettype" : [ "" ],
					"presentation" : 1,
					"id" : "obj-10",
					"min" : -10.0,
					"numinlets" : 1,
					"floatoutput" : 1,
					"presentation_rect" : [ 618.0, 149.0, 20.0, 140.0 ],
					"numoutlets" : 1,
					"size" : 20.0
				}

			}
, 			{
				"box" : 				{
					"maxclass" : "slider",
					"patching_rect" : [ 676.0, 378.0, 20.0, 140.0 ],
					"outlettype" : [ "" ],
					"presentation" : 1,
					"id" : "obj-34",
					"min" : -10.0,
					"numinlets" : 1,
					"floatoutput" : 1,
					"presentation_rect" : [ 587.0, 148.0, 20.0, 140.0 ],
					"numoutlets" : 1,
					"size" : 20.01
				}

			}
, 			{
				"box" : 				{
					"maxclass" : "slider",
					"patching_rect" : [ 649.0, 378.0, 20.0, 140.0 ],
					"outlettype" : [ "" ],
					"presentation" : 1,
					"id" : "obj-39",
					"min" : -10.0,
					"numinlets" : 1,
					"floatoutput" : 1,
					"presentation_rect" : [ 555.0, 147.0, 20.0, 140.0 ],
					"numoutlets" : 1,
					"size" : 20.0
				}

			}
, 			{
				"box" : 				{
					"maxclass" : "newobj",
					"text" : "foursensorinput",
					"patching_rect" : [ 754.0, 304.0, 93.0, 20.0 ],
					"outlettype" : [ "bang", "int", "int", "int", "int", "int" ],
					"id" : "obj-1",
					"fontname" : "Arial",
					"fontsize" : 12.0,
					"numinlets" : 0,
					"numoutlets" : 6
				}

			}
, 			{
				"box" : 				{
					"maxclass" : "newobj",
					"text" : "VideoInput",
					"patching_rect" : [ 942.0, 140.0, 68.0, 20.0 ],
					"outlettype" : [ "", "jit_matrix" ],
					"id" : "obj-73",
					"fontname" : "Arial",
					"fontsize" : 12.0,
					"numinlets" : 0,
					"numoutlets" : 2
				}

			}
, 			{
				"box" : 				{
					"maxclass" : "message",
					"text" : "start",
					"patching_rect" : [ 908.0, 68.0, 33.0, 18.0 ],
					"outlettype" : [ "" ],
					"id" : "obj-42",
					"fontname" : "Arial",
					"fontsize" : 11.595187,
					"numinlets" : 2,
					"numoutlets" : 1
				}

			}
, 			{
				"box" : 				{
					"maxclass" : "message",
					"text" : "stop",
					"patching_rect" : [ 873.0, 68.0, 32.5, 18.0 ],
					"outlettype" : [ "" ],
					"id" : "obj-43",
					"fontname" : "Arial",
					"fontsize" : 11.595187,
					"numinlets" : 2,
					"numoutlets" : 1
				}

			}
, 			{
				"box" : 				{
					"maxclass" : "newobj",
					"text" : "select 0 1",
					"patching_rect" : [ 873.0, 42.0, 89.0, 20.0 ],
					"outlettype" : [ "bang", "bang", "" ],
					"id" : "obj-45",
					"fontname" : "Arial",
					"fontsize" : 11.595187,
					"numinlets" : 1,
					"numoutlets" : 3
				}

			}
, 			{
				"box" : 				{
					"maxclass" : "newobj",
					"text" : "metro 50",
					"patching_rect" : [ 798.0, 42.0, 56.0, 20.0 ],
					"outlettype" : [ "bang" ],
					"id" : "obj-46",
					"fontname" : "Arial",
					"fontsize" : 11.595187,
					"numinlets" : 2,
					"numoutlets" : 1
				}

			}
, 			{
				"box" : 				{
					"maxclass" : "newobj",
					"text" : "jit.qt.movie 640 480",
					"patching_rect" : [ 815.0, 145.0, 111.0, 20.0 ],
					"outlettype" : [ "jit_matrix", "" ],
					"id" : "obj-54",
					"fontname" : "Arial",
					"fontsize" : 11.595187,
					"numinlets" : 1,
					"numoutlets" : 2
				}

			}
, 			{
				"box" : 				{
					"maxclass" : "newobj",
					"text" : "jit.xfade",
					"patching_rect" : [ 815.0, 190.0, 50.0, 20.0 ],
					"outlettype" : [ "jit_matrix", "" ],
					"id" : "obj-70",
					"fontname" : "Arial",
					"fontsize" : 11.595187,
					"numinlets" : 2,
					"numoutlets" : 2,
					"color" : [ 1.0, 0.890196, 0.090196, 1.0 ]
				}

			}
, 			{
				"box" : 				{
					"maxclass" : "comment",
					"text" : "B",
					"patching_rect" : [ 729.0, 166.0, 19.0, 20.0 ],
					"id" : "obj-38",
					"fontname" : "Arial",
					"fontsize" : 11.595187,
					"numinlets" : 1,
					"numoutlets" : 0
				}

			}
, 			{
				"box" : 				{
					"maxclass" : "comment",
					"text" : "Transition Time",
					"patching_rect" : [ 643.0, 86.0, 90.0, 20.0 ],
					"id" : "obj-32",
					"fontname" : "Arial",
					"fontsize" : 11.595187,
					"numinlets" : 1,
					"numoutlets" : 0
				}

			}
, 			{
				"box" : 				{
					"maxclass" : "comment",
					"text" : "ms",
					"patching_rect" : [ 712.0, 109.0, 26.0, 20.0 ],
					"id" : "obj-36",
					"fontname" : "Arial",
					"fontsize" : 11.595187,
					"numinlets" : 1,
					"numoutlets" : 0
				}

			}
, 			{
				"box" : 				{
					"maxclass" : "number",
					"minimum" : 5000,
					"patching_rect" : [ 647.0, 127.0, 53.0, 20.0 ],
					"outlettype" : [ "int", "bang" ],
					"presentation" : 1,
					"id" : "obj-37",
					"fontname" : "Arial",
					"triscale" : 0.9,
					"fontsize" : 11.595187,
					"bgcolor" : [ 0.866667, 0.866667, 0.866667, 1.0 ],
					"numinlets" : 1,
					"presentation_rect" : [ 193.0, 104.0, 53.0, 20.0 ],
					"htextcolor" : [ 0.870588, 0.870588, 0.870588, 1.0 ],
					"numoutlets" : 2
				}

			}
, 			{
				"box" : 				{
					"maxclass" : "newobj",
					"text" : "prepend xfade",
					"patching_rect" : [ 581.0, 235.0, 85.0, 20.0 ],
					"outlettype" : [ "" ],
					"id" : "obj-8",
					"fontname" : "Arial",
					"fontsize" : 11.595187,
					"numinlets" : 1,
					"numoutlets" : 1
				}

			}
, 			{
				"box" : 				{
					"maxclass" : "comment",
					"text" : "Mixer",
					"patching_rect" : [ 637.0, 187.0, 39.0, 20.0 ],
					"id" : "obj-17",
					"fontname" : "Arial",
					"fontsize" : 11.595187,
					"numinlets" : 1,
					"numoutlets" : 0
				}

			}
, 			{
				"box" : 				{
					"maxclass" : "comment",
					"text" : "A",
					"patching_rect" : [ 561.0, 166.0, 19.0, 20.0 ],
					"id" : "obj-19",
					"fontname" : "Arial",
					"fontsize" : 11.595187,
					"numinlets" : 1,
					"numoutlets" : 0
				}

			}
, 			{
				"box" : 				{
					"maxclass" : "flonum",
					"minimum" : 0.0,
					"patching_rect" : [ 581.0, 211.0, 48.0, 20.0 ],
					"outlettype" : [ "float", "bang" ],
					"id" : "obj-23",
					"fontname" : "Arial",
					"maximum" : 1.0,
					"triscale" : 0.9,
					"fontsize" : 11.595187,
					"bgcolor" : [ 0.866667, 0.866667, 0.866667, 1.0 ],
					"numinlets" : 1,
					"htextcolor" : [ 0.870588, 0.870588, 0.870588, 1.0 ],
					"numoutlets" : 2,
					"cantchange" : 1
				}

			}
, 			{
				"box" : 				{
					"maxclass" : "newobj",
					"text" : "pack",
					"patching_rect" : [ 581.0, 119.0, 57.0, 20.0 ],
					"outlettype" : [ "" ],
					"id" : "obj-24",
					"fontname" : "Arial",
					"fontsize" : 11.595187,
					"numinlets" : 2,
					"numoutlets" : 1
				}

			}
, 			{
				"box" : 				{
					"maxclass" : "newobj",
					"text" : "line 0 50",
					"patching_rect" : [ 581.0, 142.0, 54.0, 20.0 ],
					"outlettype" : [ "", "", "" ],
					"id" : "obj-29",
					"fontname" : "Arial",
					"fontsize" : 11.595187,
					"numinlets" : 3,
					"numoutlets" : 3
				}

			}
, 			{
				"box" : 				{
					"maxclass" : "newobj",
					"text" : "* 0.01",
					"patching_rect" : [ 581.0, 187.0, 41.0, 20.0 ],
					"outlettype" : [ "float" ],
					"id" : "obj-30",
					"fontname" : "Arial",
					"fontsize" : 11.595187,
					"numinlets" : 2,
					"numoutlets" : 1
				}

			}
, 			{
				"box" : 				{
					"maxclass" : "slider",
					"patching_rect" : [ 581.0, 166.0, 147.0, 17.0 ],
					"outlettype" : [ "" ],
					"id" : "obj-31",
					"orientation" : 1,
					"numinlets" : 1,
					"numoutlets" : 1,
					"size" : 101.0
				}

			}
, 			{
				"box" : 				{
					"maxclass" : "number",
					"patching_rect" : [ 187.0, 325.0, 50.0, 20.0 ],
					"outlettype" : [ "int", "bang" ],
					"id" : "obj-52",
					"fontname" : "Arial",
					"fontsize" : 11.595187,
					"numinlets" : 1,
					"numoutlets" : 2
				}

			}
, 			{
				"box" : 				{
					"maxclass" : "newobj",
					"text" : "switch 2",
					"patching_rect" : [ 186.0, 350.0, 52.0, 20.0 ],
					"outlettype" : [ "" ],
					"id" : "obj-48",
					"fontname" : "Arial",
					"fontsize" : 11.595187,
					"numinlets" : 3,
					"numoutlets" : 1,
					"color" : [ 0.035294, 0.721569, 0.0, 1.0 ]
				}

			}
, 			{
				"box" : 				{
					"maxclass" : "radiogroup",
					"patching_rect" : [ 189.0, 284.0, 18.0, 32.0 ],
					"outlettype" : [ "" ],
					"presentation" : 1,
					"offset" : 15,
					"id" : "obj-44",
					"numinlets" : 1,
					"presentation_rect" : [ 175.0, 496.0, 18.0, 32.0 ],
					"numoutlets" : 1,
					"itemtype" : 0,
					"size" : 2,
					"value" : 1,
					"disabled" : [ 0, 0 ]
				}

			}
, 			{
				"box" : 				{
					"maxclass" : "comment",
					"text" : "Esc for FullScreen Mode",
					"patching_rect" : [ 220.0, 288.0, 150.0, 20.0 ],
					"presentation" : 1,
					"id" : "obj-18",
					"fontname" : "Arial",
					"fontsize" : 12.0,
					"numinlets" : 1,
					"presentation_rect" : [ 125.0, 438.0, 147.0, 20.0 ],
					"numoutlets" : 0
				}

			}
, 			{
				"box" : 				{
					"maxclass" : "comment",
					"text" : "Effect Switch",
					"presentation_linecount" : 2,
					"patching_rect" : [ 12.0, 241.0, 150.0, 20.0 ],
					"presentation" : 1,
					"id" : "obj-2",
					"fontname" : "Arial",
					"fontsize" : 12.0,
					"numinlets" : 1,
					"presentation_rect" : [ 294.0, 43.0, 44.0, 34.0 ],
					"numoutlets" : 0
				}

			}
, 			{
				"box" : 				{
					"maxclass" : "newobj",
					"text" : "VideoOutput",
					"patching_rect" : [ 46.0, 500.0, 77.0, 20.0 ],
					"id" : "obj-77",
					"fontname" : "Arial",
					"fontsize" : 12.0,
					"numinlets" : 3,
					"numoutlets" : 0
				}

			}
, 			{
				"box" : 				{
					"maxclass" : "comment",
					"text" : "EnableSecondDisplay",
					"patching_rect" : [ 185.0, 257.0, 150.0, 20.0 ],
					"presentation" : 1,
					"id" : "obj-76",
					"fontname" : "Arial",
					"fontsize" : 12.0,
					"numinlets" : 1,
					"presentation_rect" : [ 130.0, 470.0, 131.0, 20.0 ],
					"numoutlets" : 0
				}

			}
, 			{
				"box" : 				{
					"maxclass" : "comment",
					"text" : "X",
					"patching_rect" : [ 558.0, 325.0, 21.0, 20.0 ],
					"presentation" : 1,
					"id" : "obj-72",
					"fontname" : "Arial",
					"fontsize" : 12.0,
					"numinlets" : 1,
					"presentation_rect" : [ 436.0, 302.0, 21.0, 20.0 ],
					"numoutlets" : 0
				}

			}
, 			{
				"box" : 				{
					"maxclass" : "comment",
					"text" : "Y",
					"patching_rect" : [ 589.0, 325.0, 25.0, 20.0 ],
					"presentation" : 1,
					"id" : "obj-71",
					"fontname" : "Arial",
					"fontsize" : 12.0,
					"numinlets" : 1,
					"presentation_rect" : [ 467.0, 302.0, 21.0, 20.0 ],
					"numoutlets" : 0
				}

			}
, 			{
				"box" : 				{
					"maxclass" : "comment",
					"text" : "S",
					"patching_rect" : [ 579.0, 356.0, 19.0, 20.0 ],
					"presentation" : 1,
					"id" : "obj-68",
					"fontname" : "Arial",
					"fontsize" : 12.0,
					"numinlets" : 1,
					"presentation_rect" : [ 622.0, 121.0, 21.0, 20.0 ],
					"numoutlets" : 0
				}

			}
, 			{
				"box" : 				{
					"maxclass" : "comment",
					"text" : "C",
					"patching_rect" : [ 552.0, 356.0, 21.0, 20.0 ],
					"presentation" : 1,
					"id" : "obj-67",
					"fontname" : "Arial",
					"fontsize" : 12.0,
					"numinlets" : 1,
					"presentation_rect" : [ 590.0, 119.0, 21.0, 20.0 ],
					"numoutlets" : 0
				}

			}
, 			{
				"box" : 				{
					"maxclass" : "comment",
					"text" : "B",
					"patching_rect" : [ 522.0, 356.0, 19.0, 20.0 ],
					"presentation" : 1,
					"id" : "obj-66",
					"fontname" : "Arial",
					"fontsize" : 12.0,
					"numinlets" : 1,
					"presentation_rect" : [ 488.0, 130.0, 21.0, 20.0 ],
					"numoutlets" : 0
				}

			}
, 			{
				"box" : 				{
					"maxclass" : "comment",
					"text" : "B",
					"patching_rect" : [ 583.0, 298.0, 27.0, 20.0 ],
					"presentation" : 1,
					"id" : "obj-65",
					"fontname" : "Arial",
					"fontsize" : 12.0,
					"numinlets" : 1,
					"presentation_rect" : [ 560.0, 119.0, 21.0, 20.0 ],
					"numoutlets" : 0
				}

			}
, 			{
				"box" : 				{
					"maxclass" : "comment",
					"text" : "G",
					"patching_rect" : [ 522.0, 324.0, 24.0, 20.0 ],
					"presentation" : 1,
					"id" : "obj-64",
					"fontname" : "Arial",
					"fontsize" : 12.0,
					"numinlets" : 1,
					"presentation_rect" : [ 459.0, 128.0, 21.0, 20.0 ],
					"numoutlets" : 0
				}

			}
, 			{
				"box" : 				{
					"maxclass" : "comment",
					"text" : "R",
					"patching_rect" : [ 522.0, 299.0, 19.0, 20.0 ],
					"presentation" : 1,
					"id" : "obj-63",
					"fontname" : "Arial",
					"fontsize" : 12.0,
					"numinlets" : 1,
					"presentation_rect" : [ 427.0, 129.0, 21.0, 20.0 ],
					"numoutlets" : 0
				}

			}
, 			{
				"box" : 				{
					"maxclass" : "comment",
					"text" : "BCS",
					"patching_rect" : [ 72.0, 298.0, 39.0, 20.0 ],
					"presentation" : 1,
					"id" : "obj-62",
					"fontname" : "Arial",
					"fontsize" : 12.0,
					"numinlets" : 1,
					"presentation_rect" : [ 293.0, 106.0, 68.0, 20.0 ],
					"numoutlets" : 0
				}

			}
, 			{
				"box" : 				{
					"maxclass" : "comment",
					"text" : "RGB",
					"patching_rect" : [ 71.0, 283.0, 47.0, 20.0 ],
					"presentation" : 1,
					"id" : "obj-61",
					"fontname" : "Arial",
					"fontsize" : 12.0,
					"numinlets" : 1,
					"presentation_rect" : [ 293.0, 91.0, 68.0, 20.0 ],
					"numoutlets" : 0
				}

			}
, 			{
				"box" : 				{
					"maxclass" : "comment",
					"text" : "DistortedMirror",
					"patching_rect" : [ 72.0, 313.0, 94.0, 20.0 ],
					"presentation" : 1,
					"id" : "obj-60",
					"fontname" : "Arial",
					"fontsize" : 12.0,
					"numinlets" : 1,
					"presentation_rect" : [ 292.0, 122.0, 91.0, 20.0 ],
					"numoutlets" : 0
				}

			}
, 			{
				"box" : 				{
					"maxclass" : "comment",
					"text" : "Exponential",
					"patching_rect" : [ 72.0, 333.0, 88.0, 20.0 ],
					"presentation" : 1,
					"id" : "obj-59",
					"fontname" : "Arial",
					"fontsize" : 12.0,
					"numinlets" : 1,
					"presentation_rect" : [ 291.0, 139.0, 76.0, 20.0 ],
					"numoutlets" : 0
				}

			}
, 			{
				"box" : 				{
					"maxclass" : "comment",
					"text" : "pick a file",
					"patching_rect" : [ 340.0, 20.0, 69.0, 20.0 ],
					"presentation" : 1,
					"id" : "obj-58",
					"fontname" : "Arial",
					"fontsize" : 12.0,
					"numinlets" : 1,
					"presentation_rect" : [ 194.0, 156.0, 68.0, 20.0 ],
					"numoutlets" : 0
				}

			}
, 			{
				"box" : 				{
					"maxclass" : "comment",
					"text" : "Stop",
					"patching_rect" : [ 71.0, 267.0, 37.0, 20.0 ],
					"presentation" : 1,
					"id" : "obj-57",
					"fontname" : "Arial",
					"fontsize" : 12.0,
					"numinlets" : 1,
					"presentation_rect" : [ 293.0, 76.0, 68.0, 20.0 ],
					"numoutlets" : 0
				}

			}
, 			{
				"box" : 				{
					"maxclass" : "comment",
					"text" : "On/Off",
					"patching_rect" : [ 287.0, 19.0, 51.0, 20.0 ],
					"presentation" : 1,
					"id" : "obj-56",
					"fontname" : "Arial",
					"fontsize" : 12.0,
					"numinlets" : 1,
					"presentation_rect" : [ 243.0, 58.0, 44.0, 20.0 ],
					"numoutlets" : 0
				}

			}
, 			{
				"box" : 				{
					"maxclass" : "comment",
					"text" : "Crossfade",
					"patching_rect" : [ 211.0, 20.0, 72.0, 20.0 ],
					"presentation" : 1,
					"id" : "obj-55",
					"fontname" : "Arial",
					"fontsize" : 12.0,
					"numinlets" : 1,
					"presentation_rect" : [ 180.0, 58.0, 68.0, 20.0 ],
					"numoutlets" : 0
				}

			}
, 			{
				"box" : 				{
					"maxclass" : "message",
					"text" : "autofit",
					"patching_rect" : [ 14.0, 6.0, 43.0, 18.0 ],
					"outlettype" : [ "" ],
					"id" : "obj-51",
					"fontname" : "Arial",
					"fontsize" : 12.0,
					"numinlets" : 2,
					"numoutlets" : 1
				}

			}
, 			{
				"box" : 				{
					"maxclass" : "message",
					"text" : "read logo.jpg",
					"patching_rect" : [ 80.0, 6.0, 80.0, 18.0 ],
					"outlettype" : [ "" ],
					"id" : "obj-50",
					"fontname" : "Arial",
					"fontsize" : 12.0,
					"numinlets" : 2,
					"numoutlets" : 1
				}

			}
, 			{
				"box" : 				{
					"maxclass" : "fpic",
					"patching_rect" : [ 9.0, 38.0, 183.0, 190.0 ],
					"pic" : "logo.jpg",
					"presentation" : 1,
					"id" : "obj-49",
					"numinlets" : 1,
					"presentation_rect" : [ 1.0, -1.0, 180.0, 186.0 ],
					"numoutlets" : 0
				}

			}
, 			{
				"box" : 				{
					"maxclass" : "slider",
					"patching_rect" : [ 570.0, 573.0, 20.0, 140.0 ],
					"outlettype" : [ "" ],
					"presentation" : 1,
					"id" : "obj-35",
					"min" : -1000.0,
					"numinlets" : 1,
					"presentation_rect" : [ 467.0, 323.0, 20.0, 140.0 ],
					"numoutlets" : 1,
					"size" : 2000.0
				}

			}
, 			{
				"box" : 				{
					"maxclass" : "slider",
					"patching_rect" : [ 538.0, 573.0, 20.0, 140.0 ],
					"outlettype" : [ "" ],
					"presentation" : 1,
					"id" : "obj-33",
					"min" : -1000.0,
					"numinlets" : 1,
					"presentation_rect" : [ 437.0, 323.0, 20.0, 140.0 ],
					"numoutlets" : 1,
					"size" : 2000.0
				}

			}
, 			{
				"box" : 				{
					"maxclass" : "newobj",
					"text" : "exponential",
					"patching_rect" : [ 397.0, 466.0, 72.0, 20.0 ],
					"outlettype" : [ "jit_matrix" ],
					"id" : "obj-4",
					"fontname" : "Arial",
					"fontsize" : 12.0,
					"numinlets" : 5,
					"numoutlets" : 1
				}

			}
, 			{
				"box" : 				{
					"maxclass" : "newobj",
					"text" : "mirrors",
					"patching_rect" : [ 305.0, 468.0, 59.5, 20.0 ],
					"outlettype" : [ "jit_matrix" ],
					"id" : "obj-3",
					"fontname" : "Arial",
					"fontsize" : 12.0,
					"numinlets" : 5,
					"numoutlets" : 1
				}

			}
, 			{
				"box" : 				{
					"maxclass" : "jit.pwindow",
					"patching_rect" : [ 125.0, 503.0, 320.0, 240.0 ],
					"outlettype" : [ "", "" ],
					"presentation" : 1,
					"id" : "obj-16",
					"numinlets" : 1,
					"presentation_rect" : [ 46.0, 187.0, 320.0, 240.0 ],
					"numoutlets" : 2,
					"depthbuffer" : 0
				}

			}
, 			{
				"box" : 				{
					"maxclass" : "jit.pwindow",
					"patching_rect" : [ 218.0, 171.0, 80.0, 60.0 ],
					"outlettype" : [ "", "" ],
					"id" : "obj-13",
					"numinlets" : 1,
					"numoutlets" : 2,
					"depthbuffer" : 0
				}

			}
, 			{
				"box" : 				{
					"maxclass" : "jit.pwindow",
					"patching_rect" : [ 311.0, 170.0, 80.0, 60.0 ],
					"outlettype" : [ "", "" ],
					"id" : "obj-11",
					"numinlets" : 1,
					"numoutlets" : 2,
					"depthbuffer" : 0
				}

			}
, 			{
				"box" : 				{
					"maxclass" : "message",
					"text" : "read",
					"patching_rect" : [ 350.0, 43.0, 34.0, 18.0 ],
					"outlettype" : [ "" ],
					"presentation" : 1,
					"id" : "obj-6",
					"fontname" : "Arial",
					"fontsize" : 11.595187,
					"numinlets" : 2,
					"presentation_rect" : [ 198.0, 137.0, 34.0, 18.0 ],
					"numoutlets" : 1
				}

			}
, 			{
				"box" : 				{
					"maxclass" : "comment",
					"text" : "B",
					"patching_rect" : [ 275.0, 43.0, 19.0, 20.0 ],
					"id" : "obj-25",
					"fontname" : "Arial",
					"fontsize" : 11.595187,
					"numinlets" : 1,
					"numoutlets" : 0
				}

			}
, 			{
				"box" : 				{
					"maxclass" : "comment",
					"text" : "A",
					"patching_rect" : [ 211.0, 42.0, 19.0, 20.0 ],
					"id" : "obj-27",
					"fontname" : "Arial",
					"fontsize" : 11.595187,
					"numinlets" : 1,
					"numoutlets" : 0
				}

			}
, 			{
				"box" : 				{
					"maxclass" : "toggle",
					"patching_rect" : [ 298.0, 43.0, 20.0, 20.0 ],
					"outlettype" : [ "int" ],
					"presentation" : 1,
					"id" : "obj-28",
					"numinlets" : 1,
					"presentation_rect" : [ 247.0, 83.0, 20.0, 20.0 ],
					"numoutlets" : 1
				}

			}
, 			{
				"box" : 				{
					"maxclass" : "slider",
					"patching_rect" : [ 232.0, 43.0, 42.0, 16.0 ],
					"outlettype" : [ "" ],
					"presentation" : 1,
					"id" : "obj-47",
					"mult" : 100.0,
					"orientation" : 1,
					"numinlets" : 1,
					"presentation_rect" : [ 195.0, 83.0, 45.0, 18.0 ],
					"numoutlets" : 1,
					"size" : 2.0
				}

			}
, 			{
				"box" : 				{
					"maxclass" : "message",
					"text" : "stop",
					"patching_rect" : [ 42.0, 361.0, 33.0, 18.0 ],
					"outlettype" : [ "" ],
					"id" : "obj-5",
					"fontname" : "Arial",
					"fontsize" : 12.0,
					"numinlets" : 2,
					"numoutlets" : 1
				}

			}
, 			{
				"box" : 				{
					"maxclass" : "slider",
					"patching_rect" : [ 592.0, 381.0, 20.0, 140.0 ],
					"outlettype" : [ "" ],
					"presentation" : 1,
					"id" : "obj-22",
					"min" : -10.0,
					"numinlets" : 1,
					"floatoutput" : 1,
					"presentation_rect" : [ 489.0, 147.0, 20.0, 140.0 ],
					"numoutlets" : 1,
					"size" : 20.0
				}

			}
, 			{
				"box" : 				{
					"maxclass" : "slider",
					"patching_rect" : [ 564.0, 379.0, 20.0, 140.0 ],
					"outlettype" : [ "" ],
					"presentation" : 1,
					"id" : "obj-21",
					"min" : -10.0,
					"numinlets" : 1,
					"floatoutput" : 1,
					"presentation_rect" : [ 459.0, 146.0, 20.0, 140.0 ],
					"numoutlets" : 1,
					"size" : 20.01
				}

			}
, 			{
				"box" : 				{
					"maxclass" : "slider",
					"patching_rect" : [ 532.0, 380.0, 20.0, 140.0 ],
					"outlettype" : [ "" ],
					"presentation" : 1,
					"id" : "obj-20",
					"min" : -10.0,
					"numinlets" : 1,
					"floatoutput" : 1,
					"presentation_rect" : [ 427.0, 147.0, 20.0, 140.0 ],
					"numoutlets" : 1,
					"size" : 20.0
				}

			}
, 			{
				"box" : 				{
					"maxclass" : "radiogroup",
					"patching_rect" : [ 44.0, 270.0, 18.0, 77.0 ],
					"outlettype" : [ "" ],
					"presentation" : 1,
					"offset" : 15,
					"id" : "obj-26",
					"numinlets" : 1,
					"presentation_rect" : [ 273.0, 80.0, 18.0, 77.0 ],
					"numoutlets" : 1,
					"itemtype" : 0,
					"size" : 5,
					"value" : 3,
					"disabled" : [ 0, 0, 0, 0, 0 ]
				}

			}
, 			{
				"box" : 				{
					"maxclass" : "number",
					"patching_rect" : [ 121.0, 362.0, 50.0, 20.0 ],
					"outlettype" : [ "int", "bang" ],
					"id" : "obj-12",
					"fontname" : "Arial",
					"fontsize" : 11.595187,
					"numinlets" : 1,
					"numoutlets" : 2
				}

			}
, 			{
				"box" : 				{
					"maxclass" : "newobj",
					"text" : "switch 4",
					"patching_rect" : [ 45.0, 408.0, 73.0, 20.0 ],
					"outlettype" : [ "" ],
					"id" : "obj-14",
					"fontname" : "Arial",
					"fontsize" : 11.595187,
					"numinlets" : 5,
					"numoutlets" : 1,
					"color" : [ 0.035294, 0.721569, 0.0, 1.0 ]
				}

			}
, 			{
				"box" : 				{
					"maxclass" : "newobj",
					"text" : "bcs",
					"patching_rect" : [ 190.0, 465.0, 73.0, 20.0 ],
					"outlettype" : [ "jit_matrix" ],
					"id" : "obj-9",
					"fontname" : "Arial",
					"fontsize" : 12.0,
					"numinlets" : 6,
					"numoutlets" : 1
				}

			}
, 			{
				"box" : 				{
					"maxclass" : "newobj",
					"text" : "RGB",
					"patching_rect" : [ 74.0, 466.0, 95.0, 20.0 ],
					"outlettype" : [ "jit_matrix" ],
					"id" : "obj-7",
					"fontname" : "Arial",
					"fontsize" : 12.0,
					"numinlets" : 6,
					"numoutlets" : 1
				}

			}
, 			{
				"box" : 				{
					"maxclass" : "jit.pwindow",
					"patching_rect" : [ 399.0, 169.0, 80.0, 60.0 ],
					"outlettype" : [ "", "" ],
					"id" : "obj-15",
					"numinlets" : 1,
					"numoutlets" : 2,
					"depthbuffer" : 0
				}

			}
 ],
		"lines" : [ 			{
				"patchline" : 				{
					"source" : [ "obj-8", 0 ],
					"destination" : [ "obj-70", 0 ],
					"hidden" : 0,
					"midpoints" : [  ]
				}

			}
, 			{
				"patchline" : 				{
					"source" : [ "obj-54", 0 ],
					"destination" : [ "obj-13", 0 ],
					"hidden" : 0,
					"midpoints" : [  ]
				}

			}
, 			{
				"patchline" : 				{
					"source" : [ "obj-73", 0 ],
					"destination" : [ "obj-11", 0 ],
					"hidden" : 0,
					"midpoints" : [  ]
				}

			}
, 			{
				"patchline" : 				{
					"source" : [ "obj-70", 0 ],
					"destination" : [ "obj-15", 0 ],
					"hidden" : 0,
					"midpoints" : [  ]
				}

			}
, 			{
				"patchline" : 				{
					"source" : [ "obj-6", 0 ],
					"destination" : [ "obj-54", 0 ],
					"hidden" : 0,
					"midpoints" : [  ]
				}

			}
, 			{
				"patchline" : 				{
					"source" : [ "obj-28", 0 ],
					"destination" : [ "obj-45", 0 ],
					"hidden" : 0,
					"midpoints" : [  ]
				}

			}
, 			{
				"patchline" : 				{
					"source" : [ "obj-28", 0 ],
					"destination" : [ "obj-46", 0 ],
					"hidden" : 0,
					"midpoints" : [  ]
				}

			}
, 			{
				"patchline" : 				{
					"source" : [ "obj-73", 0 ],
					"destination" : [ "obj-70", 1 ],
					"hidden" : 0,
					"midpoints" : [  ]
				}

			}
, 			{
				"patchline" : 				{
					"source" : [ "obj-42", 0 ],
					"destination" : [ "obj-54", 0 ],
					"hidden" : 0,
					"midpoints" : [  ]
				}

			}
, 			{
				"patchline" : 				{
					"source" : [ "obj-46", 0 ],
					"destination" : [ "obj-54", 0 ],
					"hidden" : 0,
					"midpoints" : [ 807.5, 134.0, 824.5, 134.0 ]
				}

			}
, 			{
				"patchline" : 				{
					"source" : [ "obj-43", 0 ],
					"destination" : [ "obj-54", 0 ],
					"hidden" : 0,
					"midpoints" : [  ]
				}

			}
, 			{
				"patchline" : 				{
					"source" : [ "obj-54", 0 ],
					"destination" : [ "obj-70", 0 ],
					"hidden" : 0,
					"midpoints" : [  ]
				}

			}
, 			{
				"patchline" : 				{
					"source" : [ "obj-45", 1 ],
					"destination" : [ "obj-42", 0 ],
					"hidden" : 0,
					"midpoints" : [  ]
				}

			}
, 			{
				"patchline" : 				{
					"source" : [ "obj-45", 0 ],
					"destination" : [ "obj-43", 0 ],
					"hidden" : 0,
					"midpoints" : [  ]
				}

			}
, 			{
				"patchline" : 				{
					"source" : [ "obj-47", 0 ],
					"destination" : [ "obj-24", 0 ],
					"hidden" : 0,
					"midpoints" : [  ]
				}

			}
, 			{
				"patchline" : 				{
					"source" : [ "obj-37", 0 ],
					"destination" : [ "obj-24", 1 ],
					"hidden" : 0,
					"midpoints" : [  ]
				}

			}
, 			{
				"patchline" : 				{
					"source" : [ "obj-23", 0 ],
					"destination" : [ "obj-8", 0 ],
					"hidden" : 0,
					"midpoints" : [  ]
				}

			}
, 			{
				"patchline" : 				{
					"source" : [ "obj-30", 0 ],
					"destination" : [ "obj-23", 0 ],
					"hidden" : 0,
					"midpoints" : [  ]
				}

			}
, 			{
				"patchline" : 				{
					"source" : [ "obj-31", 0 ],
					"destination" : [ "obj-30", 0 ],
					"hidden" : 0,
					"midpoints" : [  ]
				}

			}
, 			{
				"patchline" : 				{
					"source" : [ "obj-29", 0 ],
					"destination" : [ "obj-31", 0 ],
					"hidden" : 0,
					"midpoints" : [  ]
				}

			}
, 			{
				"patchline" : 				{
					"source" : [ "obj-24", 0 ],
					"destination" : [ "obj-29", 0 ],
					"hidden" : 0,
					"midpoints" : [  ]
				}

			}
, 			{
				"patchline" : 				{
					"source" : [ "obj-52", 1 ],
					"destination" : [ "obj-16", 0 ],
					"hidden" : 0,
					"midpoints" : [  ]
				}

			}
, 			{
				"patchline" : 				{
					"source" : [ "obj-14", 0 ],
					"destination" : [ "obj-16", 0 ],
					"hidden" : 0,
					"midpoints" : [  ]
				}

			}
, 			{
				"patchline" : 				{
					"source" : [ "obj-52", 0 ],
					"destination" : [ "obj-48", 0 ],
					"hidden" : 0,
					"midpoints" : [  ]
				}

			}
, 			{
				"patchline" : 				{
					"source" : [ "obj-44", 0 ],
					"destination" : [ "obj-52", 0 ],
					"hidden" : 0,
					"midpoints" : [  ]
				}

			}
, 			{
				"patchline" : 				{
					"source" : [ "obj-3", 0 ],
					"destination" : [ "obj-14", 3 ],
					"hidden" : 0,
					"midpoints" : [  ]
				}

			}
, 			{
				"patchline" : 				{
					"source" : [ "obj-9", 0 ],
					"destination" : [ "obj-14", 2 ],
					"hidden" : 0,
					"midpoints" : [  ]
				}

			}
, 			{
				"patchline" : 				{
					"source" : [ "obj-7", 0 ],
					"destination" : [ "obj-14", 1 ],
					"hidden" : 0,
					"midpoints" : [  ]
				}

			}
, 			{
				"patchline" : 				{
					"source" : [ "obj-12", 0 ],
					"destination" : [ "obj-14", 0 ],
					"hidden" : 0,
					"midpoints" : [  ]
				}

			}
, 			{
				"patchline" : 				{
					"source" : [ "obj-26", 0 ],
					"destination" : [ "obj-12", 0 ],
					"hidden" : 0,
					"midpoints" : [  ]
				}

			}
, 			{
				"patchline" : 				{
					"source" : [ "obj-15", 0 ],
					"destination" : [ "obj-7", 2 ],
					"hidden" : 0,
					"midpoints" : [  ]
				}

			}
, 			{
				"patchline" : 				{
					"source" : [ "obj-20", 0 ],
					"destination" : [ "obj-7", 3 ],
					"hidden" : 0,
					"midpoints" : [  ]
				}

			}
, 			{
				"patchline" : 				{
					"source" : [ "obj-21", 0 ],
					"destination" : [ "obj-7", 4 ],
					"hidden" : 0,
					"midpoints" : [  ]
				}

			}
, 			{
				"patchline" : 				{
					"source" : [ "obj-22", 0 ],
					"destination" : [ "obj-7", 5 ],
					"hidden" : 0,
					"midpoints" : [  ]
				}

			}
, 			{
				"patchline" : 				{
					"source" : [ "obj-5", 0 ],
					"destination" : [ "obj-7", 1 ],
					"hidden" : 0,
					"midpoints" : [  ]
				}

			}
, 			{
				"patchline" : 				{
					"source" : [ "obj-5", 0 ],
					"destination" : [ "obj-9", 1 ],
					"hidden" : 0,
					"midpoints" : [  ]
				}

			}
, 			{
				"patchline" : 				{
					"source" : [ "obj-15", 0 ],
					"destination" : [ "obj-9", 2 ],
					"hidden" : 0,
					"midpoints" : [  ]
				}

			}
, 			{
				"patchline" : 				{
					"source" : [ "obj-15", 0 ],
					"destination" : [ "obj-3", 2 ],
					"hidden" : 0,
					"midpoints" : [  ]
				}

			}
, 			{
				"patchline" : 				{
					"source" : [ "obj-5", 0 ],
					"destination" : [ "obj-3", 1 ],
					"hidden" : 0,
					"midpoints" : [  ]
				}

			}
, 			{
				"patchline" : 				{
					"source" : [ "obj-33", 0 ],
					"destination" : [ "obj-3", 3 ],
					"hidden" : 0,
					"midpoints" : [  ]
				}

			}
, 			{
				"patchline" : 				{
					"source" : [ "obj-35", 0 ],
					"destination" : [ "obj-3", 4 ],
					"hidden" : 0,
					"midpoints" : [  ]
				}

			}
, 			{
				"patchline" : 				{
					"source" : [ "obj-12", 1 ],
					"destination" : [ "obj-7", 0 ],
					"hidden" : 0,
					"midpoints" : [  ]
				}

			}
, 			{
				"patchline" : 				{
					"source" : [ "obj-12", 1 ],
					"destination" : [ "obj-9", 0 ],
					"hidden" : 0,
					"midpoints" : [  ]
				}

			}
, 			{
				"patchline" : 				{
					"source" : [ "obj-12", 1 ],
					"destination" : [ "obj-3", 0 ],
					"hidden" : 0,
					"midpoints" : [  ]
				}

			}
, 			{
				"patchline" : 				{
					"source" : [ "obj-50", 0 ],
					"destination" : [ "obj-49", 0 ],
					"hidden" : 0,
					"midpoints" : [  ]
				}

			}
, 			{
				"patchline" : 				{
					"source" : [ "obj-15", 0 ],
					"destination" : [ "obj-4", 2 ],
					"hidden" : 0,
					"midpoints" : [  ]
				}

			}
, 			{
				"patchline" : 				{
					"source" : [ "obj-5", 0 ],
					"destination" : [ "obj-4", 1 ],
					"hidden" : 0,
					"midpoints" : [  ]
				}

			}
, 			{
				"patchline" : 				{
					"source" : [ "obj-4", 0 ],
					"destination" : [ "obj-14", 4 ],
					"hidden" : 0,
					"midpoints" : [  ]
				}

			}
, 			{
				"patchline" : 				{
					"source" : [ "obj-12", 1 ],
					"destination" : [ "obj-4", 0 ],
					"hidden" : 0,
					"midpoints" : [  ]
				}

			}
, 			{
				"patchline" : 				{
					"source" : [ "obj-51", 0 ],
					"destination" : [ "obj-49", 0 ],
					"hidden" : 0,
					"midpoints" : [  ]
				}

			}
, 			{
				"patchline" : 				{
					"source" : [ "obj-14", 0 ],
					"destination" : [ "obj-77", 0 ],
					"hidden" : 0,
					"midpoints" : [  ]
				}

			}
, 			{
				"patchline" : 				{
					"source" : [ "obj-52", 1 ],
					"destination" : [ "obj-77", 1 ],
					"hidden" : 0,
					"midpoints" : [  ]
				}

			}
, 			{
				"patchline" : 				{
					"source" : [ "obj-52", 1 ],
					"destination" : [ "obj-77", 2 ],
					"hidden" : 0,
					"midpoints" : [  ]
				}

			}
, 			{
				"patchline" : 				{
					"source" : [ "obj-41", 0 ],
					"destination" : [ "obj-4", 3 ],
					"hidden" : 0,
					"midpoints" : [  ]
				}

			}
, 			{
				"patchline" : 				{
					"source" : [ "obj-40", 0 ],
					"destination" : [ "obj-4", 4 ],
					"hidden" : 0,
					"midpoints" : [  ]
				}

			}
, 			{
				"patchline" : 				{
					"source" : [ "obj-39", 0 ],
					"destination" : [ "obj-9", 3 ],
					"hidden" : 0,
					"midpoints" : [  ]
				}

			}
, 			{
				"patchline" : 				{
					"source" : [ "obj-34", 0 ],
					"destination" : [ "obj-9", 4 ],
					"hidden" : 0,
					"midpoints" : [  ]
				}

			}
, 			{
				"patchline" : 				{
					"source" : [ "obj-10", 0 ],
					"destination" : [ "obj-9", 5 ],
					"hidden" : 0,
					"midpoints" : [  ]
				}

			}
, 			{
				"patchline" : 				{
					"source" : [ "obj-1", 1 ],
					"destination" : [ "obj-79", 0 ],
					"hidden" : 0,
					"midpoints" : [  ]
				}

			}
, 			{
				"patchline" : 				{
					"source" : [ "obj-69", 0 ],
					"destination" : [ "obj-79", 1 ],
					"hidden" : 0,
					"midpoints" : [  ]
				}

			}
, 			{
				"patchline" : 				{
					"source" : [ "obj-79", 0 ],
					"destination" : [ "obj-80", 0 ],
					"hidden" : 0,
					"midpoints" : [  ]
				}

			}
, 			{
				"patchline" : 				{
					"source" : [ "obj-74", 0 ],
					"destination" : [ "obj-80", 1 ],
					"hidden" : 0,
					"midpoints" : [  ]
				}

			}
, 			{
				"patchline" : 				{
					"source" : [ "obj-82", 0 ],
					"destination" : [ "obj-81", 0 ],
					"hidden" : 0,
					"midpoints" : [  ]
				}

			}
, 			{
				"patchline" : 				{
					"source" : [ "obj-84", 0 ],
					"destination" : [ "obj-83", 0 ],
					"hidden" : 0,
					"midpoints" : [  ]
				}

			}
, 			{
				"patchline" : 				{
					"source" : [ "obj-86", 0 ],
					"destination" : [ "obj-85", 0 ],
					"hidden" : 0,
					"midpoints" : [  ]
				}

			}
, 			{
				"patchline" : 				{
					"source" : [ "obj-1", 2 ],
					"destination" : [ "obj-82", 0 ],
					"hidden" : 0,
					"midpoints" : [  ]
				}

			}
, 			{
				"patchline" : 				{
					"source" : [ "obj-1", 3 ],
					"destination" : [ "obj-84", 0 ],
					"hidden" : 0,
					"midpoints" : [  ]
				}

			}
, 			{
				"patchline" : 				{
					"source" : [ "obj-1", 4 ],
					"destination" : [ "obj-86", 0 ],
					"hidden" : 0,
					"midpoints" : [  ]
				}

			}
, 			{
				"patchline" : 				{
					"source" : [ "obj-69", 0 ],
					"destination" : [ "obj-82", 1 ],
					"hidden" : 0,
					"midpoints" : [  ]
				}

			}
, 			{
				"patchline" : 				{
					"source" : [ "obj-69", 0 ],
					"destination" : [ "obj-84", 1 ],
					"hidden" : 0,
					"midpoints" : [  ]
				}

			}
, 			{
				"patchline" : 				{
					"source" : [ "obj-69", 0 ],
					"destination" : [ "obj-86", 1 ],
					"hidden" : 0,
					"midpoints" : [  ]
				}

			}
, 			{
				"patchline" : 				{
					"source" : [ "obj-74", 0 ],
					"destination" : [ "obj-81", 1 ],
					"hidden" : 0,
					"midpoints" : [  ]
				}

			}
, 			{
				"patchline" : 				{
					"source" : [ "obj-74", 0 ],
					"destination" : [ "obj-83", 1 ],
					"hidden" : 0,
					"midpoints" : [  ]
				}

			}
, 			{
				"patchline" : 				{
					"source" : [ "obj-74", 0 ],
					"destination" : [ "obj-85", 1 ],
					"hidden" : 0,
					"midpoints" : [  ]
				}

			}
 ]
	}

}
