{
	"patcher" : 	{
		"fileversion" : 1,
		"rect" : [ 116.0, 65.0, 847.0, 579.0 ],
		"bgcolor" : [ 1.0, 1.0, 1.0, 1.0 ],
		"bglocked" : 0,
		"defrect" : [ 116.0, 65.0, 847.0, 579.0 ],
		"openrect" : [ 0.0, 0.0, 0.0, 0.0 ],
		"openinpresentation" : 0,
		"default_fontsize" : 10.0,
		"default_fontface" : 0,
		"default_fontname" : "Arial",
		"gridonopen" : 0,
		"gridsize" : [ 15.0, 15.0 ],
		"gridsnaponopen" : 0,
		"toolbarvisible" : 1,
		"boxanimatetime" : 200,
		"imprint" : 1,
		"metadata" : [  ],
		"boxes" : [ 			{
				"box" : 				{
					"maxclass" : "inlet",
					"presentation_rect" : [ 0.0, 0.0, 0.0, 0.0 ],
					"ignoreclick" : 0,
					"patching_rect" : [ 127.0, 5.0, 25.0, 25.0 ],
					"hidden" : 0,
					"presentation" : 0,
					"numinlets" : 0,
					"id" : "obj-2",
					"numoutlets" : 1,
					"outlettype" : [ "" ],
					"background" : 0,
					"comment" : "start"
				}

			}
, 			{
				"box" : 				{
					"maxclass" : "inlet",
					"presentation_rect" : [ 0.0, 0.0, 0.0, 0.0 ],
					"ignoreclick" : 0,
					"patching_rect" : [ 156.0, 4.0, 25.0, 25.0 ],
					"hidden" : 0,
					"presentation" : 0,
					"numinlets" : 0,
					"id" : "obj-59",
					"numoutlets" : 1,
					"outlettype" : [ "" ],
					"background" : 0,
					"comment" : "stop"
				}

			}
, 			{
				"box" : 				{
					"maxclass" : "inlet",
					"presentation_rect" : [ 0.0, 0.0, 0.0, 0.0 ],
					"ignoreclick" : 0,
					"patching_rect" : [ 621.0, 275.0, 25.0, 25.0 ],
					"hidden" : 0,
					"presentation" : 0,
					"numinlets" : 0,
					"id" : "obj-58",
					"numoutlets" : 1,
					"outlettype" : [ "" ],
					"background" : 0,
					"comment" : "bluefactor"
				}

			}
, 			{
				"box" : 				{
					"maxclass" : "inlet",
					"presentation_rect" : [ 0.0, 0.0, 0.0, 0.0 ],
					"ignoreclick" : 0,
					"patching_rect" : [ 440.0, 278.0, 25.0, 25.0 ],
					"hidden" : 0,
					"presentation" : 0,
					"numinlets" : 0,
					"id" : "obj-57",
					"numoutlets" : 1,
					"outlettype" : [ "" ],
					"background" : 0,
					"comment" : "greenfactor"
				}

			}
, 			{
				"box" : 				{
					"maxclass" : "inlet",
					"presentation_rect" : [ 0.0, 0.0, 0.0, 0.0 ],
					"ignoreclick" : 0,
					"patching_rect" : [ 357.0, 280.0, 25.0, 25.0 ],
					"hidden" : 0,
					"presentation" : 0,
					"numinlets" : 0,
					"id" : "obj-56",
					"numoutlets" : 1,
					"outlettype" : [ "" ],
					"background" : 0,
					"comment" : "redfactor"
				}

			}
, 			{
				"box" : 				{
					"maxclass" : "inlet",
					"presentation_rect" : [ 0.0, 0.0, 0.0, 0.0 ],
					"ignoreclick" : 0,
					"patching_rect" : [ 185.0, 3.0, 25.0, 25.0 ],
					"hidden" : 0,
					"presentation" : 0,
					"numinlets" : 0,
					"id" : "obj-55",
					"numoutlets" : 1,
					"outlettype" : [ "" ],
					"background" : 0,
					"comment" : "readinmovie"
				}

			}
, 			{
				"box" : 				{
					"maxclass" : "outlet",
					"presentation_rect" : [ 0.0, 0.0, 0.0, 0.0 ],
					"ignoreclick" : 0,
					"patching_rect" : [ 248.0, 430.0, 25.0, 25.0 ],
					"hidden" : 0,
					"presentation" : 0,
					"numinlets" : 1,
					"id" : "obj-61",
					"numoutlets" : 0,
					"background" : 0,
					"comment" : "stuff"
				}

			}
, 			{
				"box" : 				{
					"maxclass" : "comment",
					"text" : "Arrange single-plane matrices as one multi-plane matrix",
					"presentation_rect" : [ 0.0, 0.0, 0.0, 0.0 ],
					"fontname" : "Arial",
					"ignoreclick" : 1,
					"patching_rect" : [ 449.0, 412.0, 295.0, 20.0 ],
					"hidden" : 0,
					"presentation" : 0,
					"numinlets" : 1,
					"id" : "obj-1",
					"bgcolor" : [ 1.0, 1.0, 1.0, 0.0 ],
					"frgb" : [ 0.0, 0.0, 0.0, 1.0 ],
					"underline" : 0,
					"fontface" : 0,
					"textcolor" : [ 0.0, 0.0, 0.0, 1.0 ],
					"fontsize" : 11.595187,
					"numoutlets" : 0,
					"background" : 0
				}

			}
, 			{
				"box" : 				{
					"maxclass" : "comment",
					"text" : "Show movie",
					"presentation_rect" : [ 0.0, 0.0, 0.0, 0.0 ],
					"fontname" : "Arial",
					"ignoreclick" : 1,
					"patching_rect" : [ 37.0, 26.0, 72.0, 20.0 ],
					"hidden" : 0,
					"presentation" : 0,
					"numinlets" : 1,
					"id" : "obj-3",
					"bgcolor" : [ 1.0, 1.0, 1.0, 0.0 ],
					"frgb" : [ 0.0, 0.0, 0.0, 1.0 ],
					"underline" : 0,
					"fontface" : 0,
					"textcolor" : [ 0.0, 0.0, 0.0, 1.0 ],
					"fontsize" : 11.595187,
					"numoutlets" : 0,
					"background" : 0
				}

			}
, 			{
				"box" : 				{
					"maxclass" : "comment",
					"text" : "Send each plane out a different outlet",
					"presentation_rect" : [ 0.0, 0.0, 0.0, 0.0 ],
					"fontname" : "Arial",
					"ignoreclick" : 1,
					"patching_rect" : [ 541.0, 107.0, 201.0, 20.0 ],
					"hidden" : 0,
					"presentation" : 0,
					"numinlets" : 1,
					"id" : "obj-4",
					"bgcolor" : [ 1.0, 1.0, 1.0, 0.0 ],
					"frgb" : [ 0.0, 0.0, 0.0, 1.0 ],
					"underline" : 0,
					"fontface" : 0,
					"textcolor" : [ 0.0, 0.0, 0.0, 1.0 ],
					"fontsize" : 11.595187,
					"numoutlets" : 0,
					"background" : 0
				}

			}
, 			{
				"box" : 				{
					"maxclass" : "comment",
					"text" : "Rotate RGB planes",
					"linecount" : 3,
					"presentation_rect" : [ 0.0, 0.0, 0.0, 0.0 ],
					"fontname" : "Arial",
					"ignoreclick" : 1,
					"patching_rect" : [ 57.0, 315.0, 69.0, 46.0 ],
					"hidden" : 0,
					"presentation" : 0,
					"numinlets" : 1,
					"id" : "obj-5",
					"bgcolor" : [ 1.0, 1.0, 1.0, 0.0 ],
					"frgb" : [ 0.0, 0.0, 0.0, 1.0 ],
					"underline" : 0,
					"fontface" : 0,
					"textcolor" : [ 0.0, 0.0, 0.0, 1.0 ],
					"fontsize" : 11.595187,
					"numoutlets" : 0,
					"background" : 0
				}

			}
, 			{
				"box" : 				{
					"maxclass" : "comment",
					"text" : "Automate color changes",
					"presentation_rect" : [ 0.0, 0.0, 0.0, 0.0 ],
					"fontname" : "Arial",
					"ignoreclick" : 1,
					"patching_rect" : [ 602.0, 519.0, 134.0, 20.0 ],
					"hidden" : 0,
					"presentation" : 0,
					"numinlets" : 1,
					"id" : "obj-6",
					"bgcolor" : [ 1.0, 1.0, 1.0, 0.0 ],
					"frgb" : [ 0.0, 0.0, 0.0, 1.0 ],
					"underline" : 0,
					"fontface" : 0,
					"textcolor" : [ 0.0, 0.0, 0.0, 1.0 ],
					"fontsize" : 11.595187,
					"numoutlets" : 0,
					"background" : 0
				}

			}
, 			{
				"box" : 				{
					"maxclass" : "jit.pwindow",
					"presentation_rect" : [ 0.0, 0.0, 0.0, 0.0 ],
					"planemap" : [ 0, 1, 2, 3 ],
					"stereo" : 0,
					"interp" : 0,
					"ignoreclick" : 0,
					"onscreen" : 0,
					"idlemouse" : 0,
					"patching_rect" : [ 295.0, 443.0, 160.0, 120.0 ],
					"hidden" : 0,
					"presentation" : 0,
					"numinlets" : 1,
					"id" : "obj-7",
					"doublebuffer" : 0,
					"dstrect" : [ 0, 0, 320, 240 ],
					"srcrect" : [ 0, 0, 320, 240 ],
					"border" : 0.0,
					"numoutlets" : 2,
					"bordercolor" : [ 0.0, 0.0, 0.0, 1.0 ],
					"fsaa" : 0,
					"colormode" : "argb",
					"outlettype" : [ "", "" ],
					"usesrcrect" : 0,
					"usedstrect" : 0,
					"background" : 0,
					"depthbuffer" : 0
				}

			}
, 			{
				"box" : 				{
					"maxclass" : "newobj",
					"text" : "patcher colorgames",
					"presentation_rect" : [ 0.0, 0.0, 0.0, 0.0 ],
					"fontname" : "Arial",
					"ignoreclick" : 0,
					"patching_rect" : [ 587.0, 540.0, 110.0, 20.0 ],
					"hidden" : 0,
					"presentation" : 0,
					"numinlets" : 1,
					"id" : "obj-8",
					"bgcolor" : [ 1.0, 1.0, 1.0, 1.0 ],
					"fontface" : 0,
					"textcolor" : [ 0.0, 0.0, 0.0, 1.0 ],
					"fontsize" : 11.595187,
					"numoutlets" : 0,
					"background" : 0,
					"color" : [ 0.8, 0.84, 0.71, 1.0 ],
					"patcher" : 					{
						"fileversion" : 1,
						"rect" : [ 178.0, 93.0, 581.0, 212.0 ],
						"bglocked" : 0,
						"defrect" : [ 178.0, 93.0, 581.0, 212.0 ],
						"openrect" : [ 0.0, 0.0, 0.0, 0.0 ],
						"openinpresentation" : 0,
						"default_fontsize" : 10.0,
						"default_fontface" : 0,
						"default_fontname" : "Arial",
						"gridonopen" : 0,
						"gridsize" : [ 15.0, 15.0 ],
						"gridsnaponopen" : 0,
						"toolbarvisible" : 1,
						"boxanimatetime" : 200,
						"imprint" : 0,
						"metadata" : [  ],
						"boxes" : [ 							{
								"box" : 								{
									"maxclass" : "message",
									"text" : "stop",
									"fontname" : "Arial",
									"patching_rect" : [ 127.0, 56.0, 32.5, 18.0 ],
									"numinlets" : 2,
									"id" : "obj-1",
									"fontsize" : 11.595187,
									"numoutlets" : 1,
									"outlettype" : [ "" ]
								}

							}
, 							{
								"box" : 								{
									"maxclass" : "newobj",
									"text" : "sel 0 1",
									"fontname" : "Arial",
									"patching_rect" : [ 127.0, 27.0, 46.0, 20.0 ],
									"numinlets" : 1,
									"id" : "obj-2",
									"fontsize" : 11.595187,
									"numoutlets" : 3,
									"outlettype" : [ "bang", "bang", "" ]
								}

							}
, 							{
								"box" : 								{
									"maxclass" : "newobj",
									"text" : "s bluefactor",
									"fontname" : "Arial",
									"patching_rect" : [ 420.0, 104.0, 70.0, 20.0 ],
									"numinlets" : 1,
									"id" : "obj-3",
									"fontsize" : 11.595187,
									"numoutlets" : 0
								}

							}
, 							{
								"box" : 								{
									"maxclass" : "newobj",
									"text" : "s greenfactor",
									"fontname" : "Arial",
									"patching_rect" : [ 291.0, 104.0, 78.0, 20.0 ],
									"numinlets" : 1,
									"id" : "obj-4",
									"fontsize" : 11.595187,
									"numoutlets" : 0
								}

							}
, 							{
								"box" : 								{
									"maxclass" : "newobj",
									"text" : "s redfactor",
									"fontname" : "Arial",
									"patching_rect" : [ 162.0, 104.0, 65.0, 20.0 ],
									"numinlets" : 1,
									"id" : "obj-5",
									"fontsize" : 11.595187,
									"numoutlets" : 0
								}

							}
, 							{
								"box" : 								{
									"maxclass" : "message",
									"text" : "set 0.5, 1. 5000 50",
									"fontname" : "Arial",
									"patching_rect" : [ 420.0, 56.0, 107.0, 18.0 ],
									"numinlets" : 2,
									"id" : "obj-6",
									"fontsize" : 11.595187,
									"numoutlets" : 1,
									"outlettype" : [ "" ]
								}

							}
, 							{
								"box" : 								{
									"maxclass" : "newobj",
									"text" : "line 0.",
									"fontname" : "Arial",
									"patching_rect" : [ 420.0, 79.0, 46.0, 20.0 ],
									"numinlets" : 3,
									"id" : "obj-7",
									"fontsize" : 11.595187,
									"numoutlets" : 3,
									"outlettype" : [ "", "", "" ]
								}

							}
, 							{
								"box" : 								{
									"maxclass" : "message",
									"text" : "set 0.5, 1. 4000 40",
									"fontname" : "Arial",
									"patching_rect" : [ 291.0, 56.0, 107.0, 18.0 ],
									"numinlets" : 2,
									"id" : "obj-8",
									"fontsize" : 11.595187,
									"numoutlets" : 1,
									"outlettype" : [ "" ]
								}

							}
, 							{
								"box" : 								{
									"maxclass" : "newobj",
									"text" : "line 0.",
									"fontname" : "Arial",
									"patching_rect" : [ 291.0, 79.0, 46.0, 20.0 ],
									"numinlets" : 3,
									"id" : "obj-9",
									"fontsize" : 11.595187,
									"numoutlets" : 3,
									"outlettype" : [ "", "", "" ]
								}

							}
, 							{
								"box" : 								{
									"maxclass" : "message",
									"text" : "set 0.5, 1. 3000 30",
									"fontname" : "Arial",
									"patching_rect" : [ 162.0, 56.0, 107.0, 18.0 ],
									"numinlets" : 2,
									"id" : "obj-10",
									"fontsize" : 11.595187,
									"numoutlets" : 1,
									"outlettype" : [ "" ]
								}

							}
, 							{
								"box" : 								{
									"maxclass" : "newobj",
									"text" : "line 0.",
									"fontname" : "Arial",
									"patching_rect" : [ 162.0, 79.0, 46.0, 20.0 ],
									"numinlets" : 3,
									"id" : "obj-11",
									"fontsize" : 11.595187,
									"numoutlets" : 3,
									"outlettype" : [ "", "", "" ]
								}

							}
, 							{
								"box" : 								{
									"maxclass" : "comment",
									"text" : "Rotate colors every minute.",
									"fontname" : "Arial",
									"patching_rect" : [ 3.0, 124.0, 152.0, 20.0 ],
									"numinlets" : 1,
									"id" : "obj-12",
									"fontsize" : 11.595187,
									"numoutlets" : 0
								}

							}
, 							{
								"box" : 								{
									"maxclass" : "newobj",
									"text" : "s colorrotation",
									"fontname" : "Arial",
									"patching_rect" : [ 14.0, 104.0, 83.0, 20.0 ],
									"numinlets" : 1,
									"id" : "obj-13",
									"fontsize" : 11.595187,
									"numoutlets" : 0
								}

							}
, 							{
								"box" : 								{
									"maxclass" : "newobj",
									"text" : "counter 1 6",
									"fontname" : "Arial",
									"patching_rect" : [ 14.0, 83.0, 73.0, 20.0 ],
									"numinlets" : 5,
									"id" : "obj-14",
									"fontsize" : 11.595187,
									"numoutlets" : 4,
									"outlettype" : [ "int", "", "", "int" ]
								}

							}
, 							{
								"box" : 								{
									"maxclass" : "newobj",
									"text" : "metro 60000",
									"fontname" : "Arial",
									"patching_rect" : [ 14.0, 58.0, 76.0, 20.0 ],
									"numinlets" : 2,
									"id" : "obj-15",
									"fontsize" : 11.595187,
									"numoutlets" : 1,
									"outlettype" : [ "bang" ]
								}

							}
, 							{
								"box" : 								{
									"maxclass" : "inlet",
									"patching_rect" : [ 14.0, 25.0, 25.0, 25.0 ],
									"numinlets" : 0,
									"id" : "obj-16",
									"numoutlets" : 1,
									"outlettype" : [ "int" ],
									"comment" : "(1/0) on/off"
								}

							}
, 							{
								"box" : 								{
									"maxclass" : "comment",
									"text" : "on/off",
									"fontname" : "Arial",
									"patching_rect" : [ 42.0, 26.0, 40.0, 20.0 ],
									"numinlets" : 1,
									"id" : "obj-17",
									"fontsize" : 11.595187,
									"numoutlets" : 0
								}

							}
, 							{
								"box" : 								{
									"maxclass" : "comment",
									"text" : "Blue factor goes from 0.5 to 1 every 5 seconds.",
									"fontname" : "Arial",
									"patching_rect" : [ 213.0, 176.0, 254.0, 20.0 ],
									"numinlets" : 1,
									"id" : "obj-18",
									"fontsize" : 11.595187,
									"numoutlets" : 0
								}

							}
, 							{
								"box" : 								{
									"maxclass" : "comment",
									"text" : "Green factor goes from 0.5 to 1 every 4 seconds.",
									"fontname" : "Arial",
									"patching_rect" : [ 213.0, 154.0, 263.0, 20.0 ],
									"numinlets" : 1,
									"id" : "obj-19",
									"fontsize" : 11.595187,
									"numoutlets" : 0
								}

							}
, 							{
								"box" : 								{
									"maxclass" : "comment",
									"text" : "Red factor goes from 0.5 to 1 every 3 seconds.",
									"fontname" : "Arial",
									"patching_rect" : [ 213.0, 132.0, 252.0, 20.0 ],
									"numinlets" : 1,
									"id" : "obj-20",
									"fontsize" : 11.595187,
									"numoutlets" : 0
								}

							}
 ],
						"lines" : [ 							{
								"patchline" : 								{
									"source" : [ "obj-7", 0 ],
									"destination" : [ "obj-3", 0 ],
									"hidden" : 0,
									"midpoints" : [  ]
								}

							}
, 							{
								"patchline" : 								{
									"source" : [ "obj-6", 0 ],
									"destination" : [ "obj-7", 0 ],
									"hidden" : 0,
									"midpoints" : [  ]
								}

							}
, 							{
								"patchline" : 								{
									"source" : [ "obj-1", 0 ],
									"destination" : [ "obj-7", 0 ],
									"hidden" : 0,
									"midpoints" : [ 136.5, 75.0, 429.5, 75.0 ]
								}

							}
, 							{
								"patchline" : 								{
									"source" : [ "obj-7", 1 ],
									"destination" : [ "obj-6", 0 ],
									"hidden" : 0,
									"midpoints" : [ 443.0, 100.0, 545.0, 100.0, 545.0, 52.0, 429.5, 52.0 ]
								}

							}
, 							{
								"patchline" : 								{
									"source" : [ "obj-2", 1 ],
									"destination" : [ "obj-6", 0 ],
									"hidden" : 0,
									"midpoints" : [ 150.0, 48.0, 429.5, 48.0 ]
								}

							}
, 							{
								"patchline" : 								{
									"source" : [ "obj-9", 0 ],
									"destination" : [ "obj-4", 0 ],
									"hidden" : 0,
									"midpoints" : [  ]
								}

							}
, 							{
								"patchline" : 								{
									"source" : [ "obj-8", 0 ],
									"destination" : [ "obj-9", 0 ],
									"hidden" : 0,
									"midpoints" : [  ]
								}

							}
, 							{
								"patchline" : 								{
									"source" : [ "obj-1", 0 ],
									"destination" : [ "obj-9", 0 ],
									"hidden" : 0,
									"midpoints" : [ 136.5, 75.0, 300.5, 75.0 ]
								}

							}
, 							{
								"patchline" : 								{
									"source" : [ "obj-9", 1 ],
									"destination" : [ "obj-8", 0 ],
									"hidden" : 0,
									"midpoints" : [ 314.0, 100.0, 416.0, 100.0, 416.0, 52.0, 300.5, 52.0 ]
								}

							}
, 							{
								"patchline" : 								{
									"source" : [ "obj-2", 1 ],
									"destination" : [ "obj-8", 0 ],
									"hidden" : 0,
									"midpoints" : [ 150.0, 48.0, 300.5, 48.0 ]
								}

							}
, 							{
								"patchline" : 								{
									"source" : [ "obj-11", 0 ],
									"destination" : [ "obj-5", 0 ],
									"hidden" : 0,
									"midpoints" : [  ]
								}

							}
, 							{
								"patchline" : 								{
									"source" : [ "obj-10", 0 ],
									"destination" : [ "obj-11", 0 ],
									"hidden" : 0,
									"midpoints" : [  ]
								}

							}
, 							{
								"patchline" : 								{
									"source" : [ "obj-1", 0 ],
									"destination" : [ "obj-11", 0 ],
									"hidden" : 0,
									"midpoints" : [ 136.5, 75.0, 171.5, 75.0 ]
								}

							}
, 							{
								"patchline" : 								{
									"source" : [ "obj-11", 1 ],
									"destination" : [ "obj-10", 0 ],
									"hidden" : 0,
									"midpoints" : [ 185.0, 100.0, 287.0, 100.0, 287.0, 52.0, 171.5, 52.0 ]
								}

							}
, 							{
								"patchline" : 								{
									"source" : [ "obj-2", 1 ],
									"destination" : [ "obj-10", 0 ],
									"hidden" : 0,
									"midpoints" : [  ]
								}

							}
, 							{
								"patchline" : 								{
									"source" : [ "obj-2", 0 ],
									"destination" : [ "obj-1", 0 ],
									"hidden" : 0,
									"midpoints" : [  ]
								}

							}
, 							{
								"patchline" : 								{
									"source" : [ "obj-16", 0 ],
									"destination" : [ "obj-2", 0 ],
									"hidden" : 0,
									"midpoints" : [ 23.5, 54.0, 123.0, 54.0, 123.0, 23.0, 136.5, 23.0 ]
								}

							}
, 							{
								"patchline" : 								{
									"source" : [ "obj-16", 0 ],
									"destination" : [ "obj-14", 2 ],
									"hidden" : 0,
									"midpoints" : [ 23.5, 54.0, 90.0, 54.0, 90.0, 79.0, 50.5, 79.0 ]
								}

							}
, 							{
								"patchline" : 								{
									"source" : [ "obj-14", 0 ],
									"destination" : [ "obj-13", 0 ],
									"hidden" : 0,
									"midpoints" : [  ]
								}

							}
, 							{
								"patchline" : 								{
									"source" : [ "obj-15", 0 ],
									"destination" : [ "obj-14", 0 ],
									"hidden" : 0,
									"midpoints" : [  ]
								}

							}
, 							{
								"patchline" : 								{
									"source" : [ "obj-16", 0 ],
									"destination" : [ "obj-15", 0 ],
									"hidden" : 0,
									"midpoints" : [  ]
								}

							}
 ]
					}
,
					"saved_object_attributes" : 					{
						"default_fontname" : "Arial",
						"fontname" : "Arial",
						"default_fontsize" : 10.0,
						"fontface" : 0,
						"fontsize" : 10.0,
						"globalpatchername" : "",
						"default_fontface" : 0
					}

				}

			}
, 			{
				"box" : 				{
					"maxclass" : "toggle",
					"presentation_rect" : [ 0.0, 0.0, 0.0, 0.0 ],
					"ignoreclick" : 0,
					"patching_rect" : [ 587.0, 522.0, 15.0, 15.0 ],
					"hidden" : 0,
					"presentation" : 0,
					"numinlets" : 1,
					"id" : "obj-9",
					"bgcolor" : [ 1.0, 1.0, 1.0, 1.0 ],
					"numoutlets" : 1,
					"bordercolor" : [ 0.5, 0.5, 0.5, 1.0 ],
					"outlettype" : [ "int" ],
					"checkedcolor" : [ 0.0, 0.0, 0.0, 1.0 ],
					"background" : 0
				}

			}
, 			{
				"box" : 				{
					"maxclass" : "comment",
					"text" : "Original",
					"presentation_rect" : [ 0.0, 0.0, 0.0, 0.0 ],
					"fontname" : "Arial",
					"ignoreclick" : 1,
					"patching_rect" : [ 47.0, 266.0, 48.0, 20.0 ],
					"hidden" : 0,
					"presentation" : 0,
					"numinlets" : 1,
					"id" : "obj-10",
					"bgcolor" : [ 1.0, 1.0, 1.0, 0.0 ],
					"frgb" : [ 0.0, 0.0, 0.0, 1.0 ],
					"underline" : 0,
					"fontface" : 0,
					"textcolor" : [ 0.0, 0.0, 0.0, 1.0 ],
					"fontsize" : 11.595187,
					"numoutlets" : 0,
					"background" : 0
				}

			}
, 			{
				"box" : 				{
					"maxclass" : "comment",
					"text" : "Blue",
					"presentation_rect" : [ 0.0, 0.0, 0.0, 0.0 ],
					"fontname" : "Arial",
					"ignoreclick" : 1,
					"patching_rect" : [ 582.0, 130.0, 32.0, 20.0 ],
					"hidden" : 0,
					"presentation" : 0,
					"numinlets" : 1,
					"id" : "obj-13",
					"bgcolor" : [ 1.0, 1.0, 1.0, 0.0 ],
					"frgb" : [ 0.0, 0.0, 0.0, 1.0 ],
					"underline" : 0,
					"fontface" : 0,
					"textcolor" : [ 0.0, 0.0, 0.0, 1.0 ],
					"fontsize" : 11.595187,
					"numoutlets" : 0,
					"background" : 0
				}

			}
, 			{
				"box" : 				{
					"maxclass" : "comment",
					"text" : "Green",
					"presentation_rect" : [ 0.0, 0.0, 0.0, 0.0 ],
					"fontname" : "Arial",
					"ignoreclick" : 1,
					"patching_rect" : [ 414.0, 130.0, 41.0, 20.0 ],
					"hidden" : 0,
					"presentation" : 0,
					"numinlets" : 1,
					"id" : "obj-14",
					"bgcolor" : [ 1.0, 1.0, 1.0, 0.0 ],
					"frgb" : [ 0.0, 0.0, 0.0, 1.0 ],
					"underline" : 0,
					"fontface" : 0,
					"textcolor" : [ 0.0, 0.0, 0.0, 1.0 ],
					"fontsize" : 11.595187,
					"numoutlets" : 0,
					"background" : 0
				}

			}
, 			{
				"box" : 				{
					"maxclass" : "message",
					"text" : ";\rcolorrotation 1;\rredfactor 1.;\rgreenfactor 1.;\rbluefactor 1.;\r",
					"linecount" : 5,
					"presentation_rect" : [ 0.0, 0.0, 0.0, 0.0 ],
					"fontname" : "Arial",
					"ignoreclick" : 0,
					"gradient" : 0,
					"patching_rect" : [ 754.0, 69.0, 88.0, 71.0 ],
					"hidden" : 0,
					"presentation" : 0,
					"numinlets" : 2,
					"id" : "obj-15",
					"bgcolor" : [ 0.867, 0.867, 0.867, 1.0 ],
					"fontface" : 0,
					"textcolor" : [ 0.0, 0.0, 0.0, 1.0 ],
					"fontsize" : 11.595187,
					"numoutlets" : 1,
					"outlettype" : [ "" ],
					"background" : 0,
					"bgcolor2" : [ 0.867, 0.867, 0.867, 1.0 ]
				}

			}
, 			{
				"box" : 				{
					"maxclass" : "newobj",
					"text" : "loadbang",
					"presentation_rect" : [ 0.0, 0.0, 0.0, 0.0 ],
					"fontname" : "Arial",
					"ignoreclick" : 0,
					"patching_rect" : [ 754.0, 44.0, 56.0, 20.0 ],
					"hidden" : 0,
					"presentation" : 0,
					"numinlets" : 1,
					"id" : "obj-16",
					"bgcolor" : [ 1.0, 1.0, 1.0, 1.0 ],
					"fontface" : 0,
					"textcolor" : [ 0.0, 0.0, 0.0, 1.0 ],
					"fontsize" : 11.595187,
					"numoutlets" : 1,
					"outlettype" : [ "bang" ],
					"background" : 0,
					"color" : [ 0.8, 0.84, 0.71, 1.0 ]
				}

			}
, 			{
				"box" : 				{
					"maxclass" : "newobj",
					"text" : "r bluefactor",
					"presentation_rect" : [ 0.0, 0.0, 0.0, 0.0 ],
					"fontname" : "Arial",
					"ignoreclick" : 0,
					"patching_rect" : [ 674.0, 277.0, 67.0, 20.0 ],
					"hidden" : 0,
					"presentation" : 0,
					"numinlets" : 0,
					"id" : "obj-17",
					"bgcolor" : [ 1.0, 1.0, 1.0, 1.0 ],
					"fontface" : 0,
					"textcolor" : [ 0.0, 0.0, 0.0, 1.0 ],
					"fontsize" : 11.595187,
					"numoutlets" : 1,
					"outlettype" : [ "" ],
					"background" : 0,
					"color" : [ 0.8, 0.84, 0.71, 1.0 ]
				}

			}
, 			{
				"box" : 				{
					"maxclass" : "newobj",
					"text" : "r greenfactor",
					"presentation_rect" : [ 0.0, 0.0, 0.0, 0.0 ],
					"fontname" : "Arial",
					"ignoreclick" : 0,
					"patching_rect" : [ 494.0, 277.0, 74.0, 20.0 ],
					"hidden" : 0,
					"presentation" : 0,
					"numinlets" : 0,
					"id" : "obj-18",
					"bgcolor" : [ 1.0, 1.0, 1.0, 1.0 ],
					"fontface" : 0,
					"textcolor" : [ 0.0, 0.0, 0.0, 1.0 ],
					"fontsize" : 11.595187,
					"numoutlets" : 1,
					"outlettype" : [ "" ],
					"background" : 0,
					"color" : [ 0.8, 0.84, 0.71, 1.0 ]
				}

			}
, 			{
				"box" : 				{
					"maxclass" : "newobj",
					"text" : "r colorrotation",
					"presentation_rect" : [ 0.0, 0.0, 0.0, 0.0 ],
					"fontname" : "Arial",
					"ignoreclick" : 0,
					"patching_rect" : [ 8.0, 290.0, 79.0, 20.0 ],
					"hidden" : 0,
					"presentation" : 0,
					"numinlets" : 0,
					"id" : "obj-19",
					"bgcolor" : [ 1.0, 1.0, 1.0, 1.0 ],
					"fontface" : 0,
					"textcolor" : [ 0.0, 0.0, 0.0, 1.0 ],
					"fontsize" : 11.595187,
					"numoutlets" : 1,
					"outlettype" : [ "" ],
					"background" : 0,
					"color" : [ 0.8, 0.84, 0.71, 1.0 ]
				}

			}
, 			{
				"box" : 				{
					"maxclass" : "newobj",
					"text" : "r redfactor",
					"presentation_rect" : [ 0.0, 0.0, 0.0, 0.0 ],
					"fontname" : "Arial",
					"ignoreclick" : 0,
					"patching_rect" : [ 277.0, 277.0, 61.0, 20.0 ],
					"hidden" : 0,
					"presentation" : 0,
					"numinlets" : 0,
					"id" : "obj-20",
					"bgcolor" : [ 1.0, 1.0, 1.0, 1.0 ],
					"fontface" : 0,
					"textcolor" : [ 0.0, 0.0, 0.0, 1.0 ],
					"fontsize" : 11.595187,
					"numoutlets" : 1,
					"outlettype" : [ "" ],
					"background" : 0,
					"color" : [ 0.8, 0.84, 0.71, 1.0 ]
				}

			}
, 			{
				"box" : 				{
					"maxclass" : "flonum",
					"presentation_rect" : [ 0.0, 0.0, 0.0, 0.0 ],
					"outputonclick" : 0,
					"fontname" : "Arial",
					"ignoreclick" : 0,
					"minimum" : 0.0,
					"patching_rect" : [ 494.0, 302.0, 60.0, 20.0 ],
					"hidden" : 0,
					"presentation" : 0,
					"numinlets" : 1,
					"id" : "obj-21",
					"bgcolor" : [ 0.866667, 0.866667, 0.866667, 1.0 ],
					"htricolor" : [ 0.87, 0.82, 0.24, 1.0 ],
					"maximum" : 1.0,
					"fontface" : 0,
					"textcolor" : [ 0.0, 0.0, 0.0, 1.0 ],
					"fontsize" : 11.595187,
					"triscale" : 0.9,
					"numoutlets" : 2,
					"bordercolor" : [ 0.5, 0.5, 0.5, 1.0 ],
					"triangle" : 1,
					"hbgcolor" : [ 0.0, 0.0, 0.0, 1.0 ],
					"tricolor" : [ 0.75, 0.75, 0.75, 1.0 ],
					"numdecimalplaces" : 0,
					"cantchange" : 0,
					"outlettype" : [ "float", "bang" ],
					"htextcolor" : [ 0.870588, 0.870588, 0.870588, 1.0 ],
					"background" : 0,
					"mouseup" : 0
				}

			}
, 			{
				"box" : 				{
					"maxclass" : "newobj",
					"text" : "jit.op @op *",
					"presentation_rect" : [ 0.0, 0.0, 0.0, 0.0 ],
					"fontname" : "Arial",
					"ignoreclick" : 0,
					"patching_rect" : [ 424.0, 330.0, 69.0, 20.0 ],
					"hidden" : 0,
					"presentation" : 0,
					"numinlets" : 2,
					"id" : "obj-22",
					"bgcolor" : [ 1.0, 1.0, 1.0, 1.0 ],
					"fontface" : 0,
					"textcolor" : [ 0.0, 0.0, 0.0, 1.0 ],
					"fontsize" : 11.595187,
					"numoutlets" : 2,
					"outlettype" : [ "jit_matrix", "" ],
					"background" : 0,
					"color" : [ 0.8, 0.84, 0.71, 1.0 ]
				}

			}
, 			{
				"box" : 				{
					"maxclass" : "flonum",
					"presentation_rect" : [ 0.0, 0.0, 0.0, 0.0 ],
					"outputonclick" : 0,
					"fontname" : "Arial",
					"ignoreclick" : 0,
					"minimum" : 0.0,
					"patching_rect" : [ 277.0, 302.0, 60.0, 20.0 ],
					"hidden" : 0,
					"presentation" : 0,
					"numinlets" : 1,
					"id" : "obj-23",
					"bgcolor" : [ 0.866667, 0.866667, 0.866667, 1.0 ],
					"htricolor" : [ 0.87, 0.82, 0.24, 1.0 ],
					"maximum" : 1.0,
					"fontface" : 0,
					"textcolor" : [ 0.0, 0.0, 0.0, 1.0 ],
					"fontsize" : 11.595187,
					"triscale" : 0.9,
					"numoutlets" : 2,
					"bordercolor" : [ 0.5, 0.5, 0.5, 1.0 ],
					"triangle" : 1,
					"hbgcolor" : [ 0.0, 0.0, 0.0, 1.0 ],
					"tricolor" : [ 0.75, 0.75, 0.75, 1.0 ],
					"numdecimalplaces" : 0,
					"cantchange" : 0,
					"outlettype" : [ "float", "bang" ],
					"htextcolor" : [ 0.870588, 0.870588, 0.870588, 1.0 ],
					"background" : 0,
					"mouseup" : 0
				}

			}
, 			{
				"box" : 				{
					"maxclass" : "newobj",
					"text" : "jit.op @op *",
					"presentation_rect" : [ 0.0, 0.0, 0.0, 0.0 ],
					"fontname" : "Arial",
					"ignoreclick" : 0,
					"patching_rect" : [ 207.0, 330.0, 69.0, 20.0 ],
					"hidden" : 0,
					"presentation" : 0,
					"numinlets" : 2,
					"id" : "obj-24",
					"bgcolor" : [ 1.0, 1.0, 1.0, 1.0 ],
					"fontface" : 0,
					"textcolor" : [ 0.0, 0.0, 0.0, 1.0 ],
					"fontsize" : 11.595187,
					"numoutlets" : 2,
					"outlettype" : [ "jit_matrix", "" ],
					"background" : 0,
					"color" : [ 0.8, 0.84, 0.71, 1.0 ]
				}

			}
, 			{
				"box" : 				{
					"maxclass" : "flonum",
					"presentation_rect" : [ 0.0, 0.0, 0.0, 0.0 ],
					"outputonclick" : 0,
					"fontname" : "Arial",
					"ignoreclick" : 0,
					"minimum" : 0.0,
					"patching_rect" : [ 674.0, 302.0, 60.0, 20.0 ],
					"hidden" : 0,
					"presentation" : 0,
					"numinlets" : 1,
					"id" : "obj-25",
					"bgcolor" : [ 0.866667, 0.866667, 0.866667, 1.0 ],
					"htricolor" : [ 0.87, 0.82, 0.24, 1.0 ],
					"maximum" : 1.0,
					"fontface" : 0,
					"textcolor" : [ 0.0, 0.0, 0.0, 1.0 ],
					"fontsize" : 11.595187,
					"triscale" : 0.9,
					"numoutlets" : 2,
					"bordercolor" : [ 0.5, 0.5, 0.5, 1.0 ],
					"triangle" : 1,
					"hbgcolor" : [ 0.0, 0.0, 0.0, 1.0 ],
					"tricolor" : [ 0.75, 0.75, 0.75, 1.0 ],
					"numdecimalplaces" : 0,
					"cantchange" : 0,
					"outlettype" : [ "float", "bang" ],
					"htextcolor" : [ 0.870588, 0.870588, 0.870588, 1.0 ],
					"background" : 0,
					"mouseup" : 0
				}

			}
, 			{
				"box" : 				{
					"maxclass" : "newobj",
					"text" : "jit.op @op *",
					"presentation_rect" : [ 0.0, 0.0, 0.0, 0.0 ],
					"fontname" : "Arial",
					"ignoreclick" : 0,
					"patching_rect" : [ 604.0, 330.0, 69.0, 20.0 ],
					"hidden" : 0,
					"presentation" : 0,
					"numinlets" : 2,
					"id" : "obj-26",
					"bgcolor" : [ 1.0, 1.0, 1.0, 1.0 ],
					"fontface" : 0,
					"textcolor" : [ 0.0, 0.0, 0.0, 1.0 ],
					"fontsize" : 11.595187,
					"numoutlets" : 2,
					"outlettype" : [ "jit_matrix", "" ],
					"background" : 0,
					"color" : [ 0.8, 0.84, 0.71, 1.0 ]
				}

			}
, 			{
				"box" : 				{
					"maxclass" : "number",
					"presentation_rect" : [ 0.0, 0.0, 0.0, 0.0 ],
					"outputonclick" : 0,
					"fontname" : "Arial",
					"ignoreclick" : 0,
					"minimum" : 0,
					"patching_rect" : [ 536.0, 330.0, 36.0, 20.0 ],
					"hidden" : 0,
					"presentation" : 0,
					"numinlets" : 1,
					"id" : "obj-27",
					"bgcolor" : [ 0.866667, 0.866667, 0.866667, 1.0 ],
					"htricolor" : [ 0.87, 0.82, 0.24, 1.0 ],
					"maximum" : 3,
					"fontface" : 0,
					"textcolor" : [ 0.0, 0.0, 0.0, 1.0 ],
					"format" : 0,
					"fontsize" : 11.595187,
					"triscale" : 0.9,
					"numoutlets" : 2,
					"bordercolor" : [ 0.5, 0.5, 0.5, 1.0 ],
					"triangle" : 1,
					"hbgcolor" : [ 0.0, 0.0, 0.0, 1.0 ],
					"tricolor" : [ 0.75, 0.75, 0.75, 1.0 ],
					"cantchange" : 0,
					"outlettype" : [ "int", "bang" ],
					"htextcolor" : [ 0.870588, 0.870588, 0.870588, 1.0 ],
					"background" : 0,
					"mouseup" : 0
				}

			}
, 			{
				"box" : 				{
					"maxclass" : "number",
					"presentation_rect" : [ 0.0, 0.0, 0.0, 0.0 ],
					"outputonclick" : 0,
					"fontname" : "Arial",
					"ignoreclick" : 0,
					"minimum" : 0,
					"patching_rect" : [ 338.0, 330.0, 36.0, 20.0 ],
					"hidden" : 0,
					"presentation" : 0,
					"numinlets" : 1,
					"id" : "obj-28",
					"bgcolor" : [ 0.866667, 0.866667, 0.866667, 1.0 ],
					"htricolor" : [ 0.87, 0.82, 0.24, 1.0 ],
					"maximum" : 3,
					"fontface" : 0,
					"textcolor" : [ 0.0, 0.0, 0.0, 1.0 ],
					"format" : 0,
					"fontsize" : 11.595187,
					"triscale" : 0.9,
					"numoutlets" : 2,
					"bordercolor" : [ 0.5, 0.5, 0.5, 1.0 ],
					"triangle" : 1,
					"hbgcolor" : [ 0.0, 0.0, 0.0, 1.0 ],
					"tricolor" : [ 0.75, 0.75, 0.75, 1.0 ],
					"cantchange" : 0,
					"outlettype" : [ "int", "bang" ],
					"htextcolor" : [ 0.870588, 0.870588, 0.870588, 1.0 ],
					"background" : 0,
					"mouseup" : 0
				}

			}
, 			{
				"box" : 				{
					"maxclass" : "number",
					"presentation_rect" : [ 0.0, 0.0, 0.0, 0.0 ],
					"outputonclick" : 0,
					"fontname" : "Arial",
					"ignoreclick" : 0,
					"minimum" : 0,
					"patching_rect" : [ 139.0, 330.0, 36.0, 20.0 ],
					"hidden" : 0,
					"presentation" : 0,
					"numinlets" : 1,
					"id" : "obj-29",
					"bgcolor" : [ 0.866667, 0.866667, 0.866667, 1.0 ],
					"htricolor" : [ 0.87, 0.82, 0.24, 1.0 ],
					"maximum" : 3,
					"fontface" : 0,
					"textcolor" : [ 0.0, 0.0, 0.0, 1.0 ],
					"format" : 0,
					"fontsize" : 11.595187,
					"triscale" : 0.9,
					"numoutlets" : 2,
					"bordercolor" : [ 0.5, 0.5, 0.5, 1.0 ],
					"triangle" : 1,
					"hbgcolor" : [ 0.0, 0.0, 0.0, 1.0 ],
					"tricolor" : [ 0.75, 0.75, 0.75, 1.0 ],
					"cantchange" : 0,
					"outlettype" : [ "int", "bang" ],
					"htextcolor" : [ 0.870588, 0.870588, 0.870588, 1.0 ],
					"background" : 0,
					"mouseup" : 0
				}

			}
, 			{
				"box" : 				{
					"maxclass" : "umenu",
					"presentation_rect" : [ 0.0, 0.0, 0.0, 0.0 ],
					"arrowframe" : 1,
					"items" : [ "No", "Output", ",", "Red-Green-Blue", ",", "Red-Blue-Green", ",", "Green-Red-Blue", ",", "Green-Blue-Red", ",", "Blue-Red-Green", ",", "Blue-Green-Red" ],
					"arrow" : 1,
					"fontname" : "Arial",
					"prefix" : "",
					"ignoreclick" : 0,
					"arrowcolor" : [ 0.22, 0.22, 0.22, 1.0 ],
					"togcolor" : [ 0.55, 0.55, 0.55, 1.0 ],
					"types" : [  ],
					"patching_rect" : [ 178.0, 462.0, 93.0, 20.0 ],
					"hidden" : 0,
					"prefix_mode" : 0,
					"presentation" : 0,
					"numinlets" : 1,
					"id" : "obj-30",
					"bgcolor" : [ 1.0, 1.0, 1.0, 1.0 ],
					"framecolor" : [ 0.5, 0.5, 0.5, 1.0 ],
					"hltcolor" : [ 0.92, 0.92, 0.92, 1.0 ],
					"rounded" : 8,
					"underline" : 0,
					"fontface" : 0,
					"textcolor" : [ 0.15, 0.15, 0.15, 1.0 ],
					"textcolor2" : [ 0.15, 0.15, 0.15, 1.0 ],
					"fontsize" : 11.595187,
					"pattrmode" : 0,
					"numoutlets" : 3,
					"discolor" : [ 0.43, 0.43, 0.43, 1.0 ],
					"autopopulate" : 0,
					"showdotfiles" : 0,
					"outlettype" : [ "int", "", "" ],
					"depth" : 0,
					"arrowlink" : 1,
					"arrowbgcolor" : [ 0.86, 0.86, 0.86, 1.0 ],
					"background" : 0,
					"align" : 0,
					"labelclick" : 0,
					"menumode" : 2,
					"bgcolor2" : [ 1.0, 1.0, 1.0, 1.0 ]
				}

			}
, 			{
				"box" : 				{
					"maxclass" : "newobj",
					"text" : "select 0 1",
					"presentation_rect" : [ 0.0, 0.0, 0.0, 0.0 ],
					"fontname" : "Arial",
					"ignoreclick" : 0,
					"patching_rect" : [ 85.0, 51.0, 68.0, 20.0 ],
					"hidden" : 0,
					"presentation" : 0,
					"numinlets" : 1,
					"id" : "obj-31",
					"bgcolor" : [ 1.0, 1.0, 1.0, 1.0 ],
					"fontface" : 0,
					"textcolor" : [ 0.0, 0.0, 0.0, 1.0 ],
					"fontsize" : 11.595187,
					"numoutlets" : 3,
					"outlettype" : [ "bang", "bang", "" ],
					"background" : 0,
					"color" : [ 0.8, 0.84, 0.71, 1.0 ]
				}

			}
, 			{
				"box" : 				{
					"maxclass" : "button",
					"presentation_rect" : [ 0.0, 0.0, 0.0, 0.0 ],
					"outlinecolor" : [ 0.71328, 0.71328, 0.71328, 1.0 ],
					"ignoreclick" : 0,
					"fgcolor" : [ 1.0, 1.0, 1.0, 1.0 ],
					"patching_rect" : [ 11.0, 76.0, 20.0, 20.0 ],
					"hidden" : 0,
					"presentation" : 0,
					"numinlets" : 1,
					"id" : "obj-32",
					"bgcolor" : [ 0.91328, 0.91328, 0.91328, 0.75 ],
					"numoutlets" : 1,
					"outlettype" : [ "bang" ],
					"background" : 0,
					"blinkcolor" : [ 1.0, 0.890196, 0.090196, 1.0 ]
				}

			}
, 			{
				"box" : 				{
					"maxclass" : "newobj",
					"text" : "jit.pack",
					"presentation_rect" : [ 0.0, 0.0, 0.0, 0.0 ],
					"fontname" : "Arial",
					"ignoreclick" : 0,
					"patching_rect" : [ 295.0, 410.0, 148.0, 20.0 ],
					"hidden" : 0,
					"presentation" : 0,
					"numinlets" : 4,
					"id" : "obj-33",
					"bgcolor" : [ 1.0, 1.0, 1.0, 1.0 ],
					"fontface" : 0,
					"textcolor" : [ 0.0, 0.0, 0.0, 1.0 ],
					"fontsize" : 11.595187,
					"numoutlets" : 2,
					"outlettype" : [ "jit_matrix", "" ],
					"background" : 0,
					"color" : [ 1.0, 0.890196, 0.090196, 1.0 ]
				}

			}
, 			{
				"box" : 				{
					"maxclass" : "newobj",
					"text" : "gate 3",
					"presentation_rect" : [ 0.0, 0.0, 0.0, 0.0 ],
					"fontname" : "Arial",
					"ignoreclick" : 0,
					"patching_rect" : [ 536.0, 359.0, 87.0, 20.0 ],
					"hidden" : 0,
					"presentation" : 0,
					"numinlets" : 2,
					"id" : "obj-34",
					"bgcolor" : [ 1.0, 1.0, 1.0, 1.0 ],
					"fontface" : 0,
					"textcolor" : [ 0.0, 0.0, 0.0, 1.0 ],
					"fontsize" : 11.595187,
					"numoutlets" : 3,
					"outlettype" : [ "", "", "" ],
					"background" : 0,
					"color" : [ 0.8, 0.84, 0.71, 1.0 ]
				}

			}
, 			{
				"box" : 				{
					"maxclass" : "newobj",
					"text" : "gate 3",
					"presentation_rect" : [ 0.0, 0.0, 0.0, 0.0 ],
					"fontname" : "Arial",
					"ignoreclick" : 0,
					"patching_rect" : [ 338.0, 359.0, 105.0, 20.0 ],
					"hidden" : 0,
					"presentation" : 0,
					"numinlets" : 2,
					"id" : "obj-35",
					"bgcolor" : [ 1.0, 1.0, 1.0, 1.0 ],
					"fontface" : 0,
					"textcolor" : [ 0.0, 0.0, 0.0, 1.0 ],
					"fontsize" : 11.595187,
					"numoutlets" : 3,
					"outlettype" : [ "", "", "" ],
					"background" : 0,
					"color" : [ 0.8, 0.84, 0.71, 1.0 ]
				}

			}
, 			{
				"box" : 				{
					"maxclass" : "newobj",
					"text" : "unpack 0 0 0",
					"presentation_rect" : [ 0.0, 0.0, 0.0, 0.0 ],
					"fontname" : "Arial",
					"ignoreclick" : 0,
					"patching_rect" : [ 8.0, 373.0, 75.0, 20.0 ],
					"hidden" : 0,
					"presentation" : 0,
					"numinlets" : 1,
					"id" : "obj-36",
					"bgcolor" : [ 1.0, 1.0, 1.0, 1.0 ],
					"fontface" : 0,
					"textcolor" : [ 0.0, 0.0, 0.0, 1.0 ],
					"fontsize" : 11.595187,
					"numoutlets" : 3,
					"outlettype" : [ "int", "int", "int" ],
					"background" : 0,
					"color" : [ 0.8, 0.84, 0.71, 1.0 ]
				}

			}
, 			{
				"box" : 				{
					"maxclass" : "number",
					"presentation_rect" : [ 0.0, 0.0, 0.0, 0.0 ],
					"outputonclick" : 0,
					"fontname" : "Arial",
					"ignoreclick" : 0,
					"minimum" : 0,
					"patching_rect" : [ 8.0, 318.0, 46.0, 20.0 ],
					"hidden" : 0,
					"presentation" : 0,
					"numinlets" : 1,
					"id" : "obj-37",
					"bgcolor" : [ 0.866667, 0.866667, 0.866667, 1.0 ],
					"htricolor" : [ 0.87, 0.82, 0.24, 1.0 ],
					"maximum" : 6,
					"fontface" : 0,
					"textcolor" : [ 0.0, 0.0, 0.0, 1.0 ],
					"format" : 0,
					"fontsize" : 11.595187,
					"triscale" : 0.9,
					"numoutlets" : 2,
					"bordercolor" : [ 0.5, 0.5, 0.5, 1.0 ],
					"triangle" : 1,
					"hbgcolor" : [ 0.0, 0.0, 0.0, 1.0 ],
					"tricolor" : [ 0.75, 0.75, 0.75, 1.0 ],
					"cantchange" : 0,
					"outlettype" : [ "int", "bang" ],
					"htextcolor" : [ 0.870588, 0.870588, 0.870588, 1.0 ],
					"background" : 0,
					"mouseup" : 0
				}

			}
, 			{
				"box" : 				{
					"maxclass" : "newobj",
					"text" : "coll",
					"presentation_rect" : [ 0.0, 0.0, 0.0, 0.0 ],
					"fontname" : "Arial",
					"ignoreclick" : 0,
					"patching_rect" : [ 8.0, 345.0, 42.0, 20.0 ],
					"hidden" : 0,
					"presentation" : 0,
					"numinlets" : 1,
					"id" : "obj-38",
					"bgcolor" : [ 1.0, 1.0, 1.0, 1.0 ],
					"fontface" : 0,
					"textcolor" : [ 0.0, 0.0, 0.0, 1.0 ],
					"fontsize" : 11.595187,
					"numoutlets" : 4,
					"outlettype" : [ "", "", "", "" ],
					"background" : 0,
					"color" : [ 0.8, 0.84, 0.71, 1.0 ],
					"save" : [ "#N", "coll", ";", "#T", "flags", 1, 0, ";", "#T", 0, 0, 0, 0, ";", "#T", 1, 1, 2, 3, ";", "#T", 2, 1, 3, 2, ";", "#T", 3, 2, 1, 3, ";", "#T", 4, 2, 3, 1, ";", "#T", 5, 3, 1, 2, ";", "#T", 6, 3, 2, 1, ";" ],
					"saved_object_attributes" : 					{
						"embed" : 1
					}

				}

			}
, 			{
				"box" : 				{
					"maxclass" : "newobj",
					"text" : "gate 3",
					"presentation_rect" : [ 0.0, 0.0, 0.0, 0.0 ],
					"fontname" : "Arial",
					"ignoreclick" : 0,
					"patching_rect" : [ 139.0, 359.0, 87.0, 20.0 ],
					"hidden" : 0,
					"presentation" : 0,
					"numinlets" : 2,
					"id" : "obj-39",
					"bgcolor" : [ 1.0, 1.0, 1.0, 1.0 ],
					"fontface" : 0,
					"textcolor" : [ 0.0, 0.0, 0.0, 1.0 ],
					"fontsize" : 11.595187,
					"numoutlets" : 3,
					"outlettype" : [ "", "", "" ],
					"background" : 0,
					"color" : [ 0.8, 0.84, 0.71, 1.0 ]
				}

			}
, 			{
				"box" : 				{
					"maxclass" : "jit.pwindow",
					"presentation_rect" : [ 0.0, 0.0, 0.0, 0.0 ],
					"planemap" : [ 0, 1, 2, 3 ],
					"stereo" : 0,
					"interp" : 0,
					"ignoreclick" : 0,
					"onscreen" : 0,
					"idlemouse" : 0,
					"patching_rect" : [ 22.0, 145.0, 160.0, 120.0 ],
					"hidden" : 0,
					"presentation" : 0,
					"numinlets" : 1,
					"id" : "obj-43",
					"doublebuffer" : 0,
					"dstrect" : [ 0, 0, 320, 240 ],
					"srcrect" : [ 0, 0, 320, 240 ],
					"border" : 0.0,
					"numoutlets" : 2,
					"bordercolor" : [ 0.0, 0.0, 0.0, 1.0 ],
					"fsaa" : 0,
					"colormode" : "argb",
					"outlettype" : [ "", "" ],
					"usesrcrect" : 0,
					"usedstrect" : 0,
					"background" : 0,
					"depthbuffer" : 463945120
				}

			}
, 			{
				"box" : 				{
					"maxclass" : "message",
					"text" : "stop",
					"presentation_rect" : [ 0.0, 0.0, 0.0, 0.0 ],
					"fontname" : "Arial",
					"ignoreclick" : 0,
					"gradient" : 0,
					"patching_rect" : [ 85.0, 76.0, 30.0, 18.0 ],
					"hidden" : 0,
					"presentation" : 0,
					"numinlets" : 2,
					"id" : "obj-44",
					"bgcolor" : [ 0.867, 0.867, 0.867, 1.0 ],
					"fontface" : 0,
					"textcolor" : [ 0.0, 0.0, 0.0, 1.0 ],
					"fontsize" : 11.595187,
					"numoutlets" : 1,
					"outlettype" : [ "" ],
					"background" : 0,
					"bgcolor2" : [ 0.867, 0.867, 0.867, 1.0 ]
				}

			}
, 			{
				"box" : 				{
					"maxclass" : "message",
					"text" : "start",
					"presentation_rect" : [ 0.0, 0.0, 0.0, 0.0 ],
					"fontname" : "Arial",
					"ignoreclick" : 0,
					"gradient" : 0,
					"patching_rect" : [ 120.0, 76.0, 31.0, 18.0 ],
					"hidden" : 0,
					"presentation" : 0,
					"numinlets" : 2,
					"id" : "obj-45",
					"bgcolor" : [ 0.867, 0.867, 0.867, 1.0 ],
					"fontface" : 0,
					"textcolor" : [ 0.0, 0.0, 0.0, 1.0 ],
					"fontsize" : 11.595187,
					"numoutlets" : 1,
					"outlettype" : [ "" ],
					"background" : 0,
					"bgcolor2" : [ 0.867, 0.867, 0.867, 1.0 ]
				}

			}
, 			{
				"box" : 				{
					"maxclass" : "newobj",
					"text" : "metro 50",
					"presentation_rect" : [ 0.0, 0.0, 0.0, 0.0 ],
					"fontname" : "Arial",
					"ignoreclick" : 0,
					"patching_rect" : [ 11.0, 51.0, 56.0, 20.0 ],
					"hidden" : 0,
					"presentation" : 0,
					"numinlets" : 2,
					"id" : "obj-47",
					"bgcolor" : [ 1.0, 1.0, 1.0, 1.0 ],
					"fontface" : 0,
					"textcolor" : [ 0.0, 0.0, 0.0, 1.0 ],
					"fontsize" : 11.595187,
					"numoutlets" : 1,
					"outlettype" : [ "bang" ],
					"background" : 0,
					"color" : [ 0.8, 0.84, 0.71, 1.0 ]
				}

			}
, 			{
				"box" : 				{
					"maxclass" : "toggle",
					"presentation_rect" : [ 0.0, 0.0, 0.0, 0.0 ],
					"ignoreclick" : 0,
					"patching_rect" : [ 11.0, 15.0, 20.0, 20.0 ],
					"hidden" : 0,
					"presentation" : 0,
					"numinlets" : 1,
					"id" : "obj-48",
					"bgcolor" : [ 1.0, 1.0, 1.0, 1.0 ],
					"numoutlets" : 1,
					"bordercolor" : [ 0.5, 0.5, 0.5, 1.0 ],
					"outlettype" : [ "int" ],
					"checkedcolor" : [ 0.0, 0.0, 0.0, 1.0 ],
					"background" : 0
				}

			}
, 			{
				"box" : 				{
					"maxclass" : "newobj",
					"text" : "jit.qt.movie 640 480",
					"presentation_rect" : [ 0.0, 0.0, 0.0, 0.0 ],
					"fontname" : "Arial",
					"ignoreclick" : 0,
					"patching_rect" : [ 23.0, 100.0, 111.0, 20.0 ],
					"hidden" : 0,
					"presentation" : 0,
					"numinlets" : 1,
					"id" : "obj-49",
					"bgcolor" : [ 1.0, 1.0, 1.0, 1.0 ],
					"fontface" : 0,
					"textcolor" : [ 0.0, 0.0, 0.0, 1.0 ],
					"fontsize" : 11.595187,
					"numoutlets" : 2,
					"outlettype" : [ "jit_matrix", "" ],
					"background" : 0,
					"color" : [ 0.8, 0.84, 0.71, 1.0 ]
				}

			}
, 			{
				"box" : 				{
					"maxclass" : "jit.pwindow",
					"presentation_rect" : [ 0.0, 0.0, 0.0, 0.0 ],
					"planemap" : [ 0, 1, 2, 3 ],
					"stereo" : 0,
					"interp" : 0,
					"ignoreclick" : 0,
					"onscreen" : 0,
					"idlemouse" : 0,
					"patching_rect" : [ 556.0, 148.0, 160.0, 120.0 ],
					"hidden" : 0,
					"presentation" : 0,
					"numinlets" : 1,
					"id" : "obj-50",
					"doublebuffer" : 0,
					"dstrect" : [ 0, 0, 320, 240 ],
					"srcrect" : [ 0, 0, 320, 240 ],
					"border" : 0.0,
					"numoutlets" : 2,
					"bordercolor" : [ 0.0, 0.0, 0.0, 1.0 ],
					"fsaa" : 0,
					"colormode" : "argb",
					"outlettype" : [ "", "" ],
					"usesrcrect" : 0,
					"usedstrect" : 0,
					"background" : 0,
					"depthbuffer" : 0
				}

			}
, 			{
				"box" : 				{
					"maxclass" : "jit.pwindow",
					"presentation_rect" : [ 0.0, 0.0, 0.0, 0.0 ],
					"planemap" : [ 0, 1, 2, 3 ],
					"stereo" : 0,
					"interp" : 0,
					"ignoreclick" : 0,
					"onscreen" : 0,
					"idlemouse" : 0,
					"patching_rect" : [ 390.0, 148.0, 160.0, 120.0 ],
					"hidden" : 0,
					"presentation" : 0,
					"numinlets" : 1,
					"id" : "obj-51",
					"doublebuffer" : 0,
					"dstrect" : [ 0, 0, 320, 240 ],
					"srcrect" : [ 0, 0, 320, 240 ],
					"border" : 0.0,
					"numoutlets" : 2,
					"bordercolor" : [ 0.0, 0.0, 0.0, 1.0 ],
					"fsaa" : 0,
					"colormode" : "argb",
					"outlettype" : [ "", "" ],
					"usesrcrect" : 0,
					"usedstrect" : 0,
					"background" : 0,
					"depthbuffer" : 0
				}

			}
, 			{
				"box" : 				{
					"maxclass" : "jit.pwindow",
					"presentation_rect" : [ 0.0, 0.0, 0.0, 0.0 ],
					"planemap" : [ 0, 1, 2, 3 ],
					"stereo" : 0,
					"interp" : 0,
					"ignoreclick" : 0,
					"onscreen" : 0,
					"idlemouse" : 0,
					"patching_rect" : [ 224.0, 148.0, 160.0, 120.0 ],
					"hidden" : 0,
					"presentation" : 0,
					"numinlets" : 1,
					"id" : "obj-52",
					"doublebuffer" : 0,
					"dstrect" : [ 0, 0, 320, 240 ],
					"srcrect" : [ 0, 0, 320, 240 ],
					"border" : 0.0,
					"numoutlets" : 2,
					"bordercolor" : [ 0.0, 0.0, 0.0, 1.0 ],
					"fsaa" : 0,
					"colormode" : "argb",
					"outlettype" : [ "", "" ],
					"usesrcrect" : 0,
					"usedstrect" : 0,
					"background" : 0,
					"depthbuffer" : 0
				}

			}
, 			{
				"box" : 				{
					"maxclass" : "newobj",
					"text" : "jit.unpack",
					"presentation_rect" : [ 0.0, 0.0, 0.0, 0.0 ],
					"fontname" : "Arial",
					"ignoreclick" : 0,
					"patching_rect" : [ 288.0, 58.0, 328.0, 20.0 ],
					"hidden" : 0,
					"presentation" : 0,
					"numinlets" : 1,
					"id" : "obj-53",
					"bgcolor" : [ 1.0, 1.0, 1.0, 1.0 ],
					"fontface" : 0,
					"textcolor" : [ 0.0, 0.0, 0.0, 1.0 ],
					"fontsize" : 11.595187,
					"numoutlets" : 5,
					"outlettype" : [ "jit_matrix", "jit_matrix", "jit_matrix", "jit_matrix", "" ],
					"background" : 0,
					"color" : [ 1.0, 0.890196, 0.090196, 1.0 ]
				}

			}
, 			{
				"box" : 				{
					"maxclass" : "comment",
					"text" : "Red",
					"presentation_rect" : [ 0.0, 0.0, 0.0, 0.0 ],
					"fontname" : "Arial",
					"ignoreclick" : 1,
					"patching_rect" : [ 248.0, 130.0, 30.0, 20.0 ],
					"hidden" : 0,
					"presentation" : 0,
					"numinlets" : 1,
					"id" : "obj-54",
					"bgcolor" : [ 1.0, 1.0, 1.0, 0.0 ],
					"frgb" : [ 0.0, 0.0, 0.0, 1.0 ],
					"underline" : 0,
					"fontface" : 0,
					"textcolor" : [ 0.0, 0.0, 0.0, 1.0 ],
					"fontsize" : 11.595187,
					"numoutlets" : 0,
					"background" : 0
				}

			}
 ],
		"lines" : [ 			{
				"patchline" : 				{
					"source" : [ "obj-45", 0 ],
					"destination" : [ "obj-49", 0 ],
					"hidden" : 0,
					"color" : [ 0.0, 0.0, 0.0, 1.0 ],
					"midpoints" : [ 129.5, 96.0, 32.5, 96.0 ]
				}

			}
, 			{
				"patchline" : 				{
					"source" : [ "obj-44", 0 ],
					"destination" : [ "obj-49", 0 ],
					"hidden" : 0,
					"color" : [ 0.0, 0.0, 0.0, 1.0 ],
					"midpoints" : [ 94.5, 96.0, 32.5, 96.0 ]
				}

			}
, 			{
				"patchline" : 				{
					"source" : [ "obj-32", 0 ],
					"destination" : [ "obj-49", 0 ],
					"hidden" : 0,
					"color" : [ 0.0, 0.0, 0.0, 1.0 ],
					"midpoints" : [  ]
				}

			}
, 			{
				"patchline" : 				{
					"source" : [ "obj-49", 0 ],
					"destination" : [ "obj-43", 0 ],
					"hidden" : 0,
					"color" : [ 0.0, 0.0, 0.0, 1.0 ],
					"midpoints" : [  ]
				}

			}
, 			{
				"patchline" : 				{
					"source" : [ "obj-49", 0 ],
					"destination" : [ "obj-53", 0 ],
					"hidden" : 0,
					"color" : [ 0.0, 0.0, 0.0, 1.0 ],
					"midpoints" : [ 32.5, 130.0, 195.0, 130.0, 195.0, 34.0, 297.5, 34.0 ]
				}

			}
, 			{
				"patchline" : 				{
					"source" : [ "obj-59", 0 ],
					"destination" : [ "obj-44", 0 ],
					"hidden" : 0,
					"color" : [ 0.0, 0.0, 0.0, 1.0 ],
					"midpoints" : [  ]
				}

			}
, 			{
				"patchline" : 				{
					"source" : [ "obj-58", 0 ],
					"destination" : [ "obj-26", 0 ],
					"hidden" : 0,
					"color" : [ 0.0, 0.0, 0.0, 1.0 ],
					"midpoints" : [  ]
				}

			}
, 			{
				"patchline" : 				{
					"source" : [ "obj-57", 0 ],
					"destination" : [ "obj-22", 0 ],
					"hidden" : 0,
					"color" : [ 0.0, 0.0, 0.0, 1.0 ],
					"midpoints" : [  ]
				}

			}
, 			{
				"patchline" : 				{
					"source" : [ "obj-56", 0 ],
					"destination" : [ "obj-24", 1 ],
					"hidden" : 0,
					"color" : [ 0.0, 0.0, 0.0, 1.0 ],
					"midpoints" : [  ]
				}

			}
, 			{
				"patchline" : 				{
					"source" : [ "obj-25", 0 ],
					"destination" : [ "obj-26", 1 ],
					"hidden" : 0,
					"color" : [ 0.0, 0.0, 0.0, 1.0 ],
					"midpoints" : [  ]
				}

			}
, 			{
				"patchline" : 				{
					"source" : [ "obj-17", 0 ],
					"destination" : [ "obj-25", 0 ],
					"hidden" : 0,
					"color" : [ 0.0, 0.0, 0.0, 1.0 ],
					"midpoints" : [  ]
				}

			}
, 			{
				"patchline" : 				{
					"source" : [ "obj-26", 0 ],
					"destination" : [ "obj-34", 1 ],
					"hidden" : 0,
					"color" : [ 0.0, 0.0, 0.0, 1.0 ],
					"midpoints" : [  ]
				}

			}
, 			{
				"patchline" : 				{
					"source" : [ "obj-50", 0 ],
					"destination" : [ "obj-26", 0 ],
					"hidden" : 0,
					"color" : [ 0.0, 0.0, 0.0, 1.0 ],
					"midpoints" : [ 565.5, 306.0, 613.5, 306.0 ]
				}

			}
, 			{
				"patchline" : 				{
					"source" : [ "obj-16", 0 ],
					"destination" : [ "obj-15", 0 ],
					"hidden" : 0,
					"color" : [ 0.0, 0.0, 0.0, 1.0 ],
					"midpoints" : [  ]
				}

			}
, 			{
				"patchline" : 				{
					"source" : [ "obj-9", 0 ],
					"destination" : [ "obj-8", 0 ],
					"hidden" : 0,
					"color" : [ 0.0, 0.0, 0.0, 1.0 ],
					"midpoints" : [  ]
				}

			}
, 			{
				"patchline" : 				{
					"source" : [ "obj-53", 3 ],
					"destination" : [ "obj-50", 0 ],
					"hidden" : 0,
					"color" : [ 0.0, 0.0, 0.0, 1.0 ],
					"midpoints" : [ 529.25, 129.0, 565.5, 129.0 ]
				}

			}
, 			{
				"patchline" : 				{
					"source" : [ "obj-27", 0 ],
					"destination" : [ "obj-34", 0 ],
					"hidden" : 0,
					"color" : [ 0.0, 0.0, 0.0, 1.0 ],
					"midpoints" : [  ]
				}

			}
, 			{
				"patchline" : 				{
					"source" : [ "obj-36", 2 ],
					"destination" : [ "obj-27", 0 ],
					"hidden" : 0,
					"color" : [ 0.0, 0.0, 0.0, 1.0 ],
					"midpoints" : [ 73.5, 395.0, 282.0, 395.0, 282.0, 377.0, 522.0, 377.0, 522.0, 314.0, 545.5, 314.0 ]
				}

			}
, 			{
				"patchline" : 				{
					"source" : [ "obj-21", 0 ],
					"destination" : [ "obj-22", 1 ],
					"hidden" : 0,
					"color" : [ 0.0, 0.0, 0.0, 1.0 ],
					"midpoints" : [  ]
				}

			}
, 			{
				"patchline" : 				{
					"source" : [ "obj-18", 0 ],
					"destination" : [ "obj-21", 0 ],
					"hidden" : 0,
					"color" : [ 0.0, 0.0, 0.0, 1.0 ],
					"midpoints" : [  ]
				}

			}
, 			{
				"patchline" : 				{
					"source" : [ "obj-39", 2 ],
					"destination" : [ "obj-33", 3 ],
					"hidden" : 0,
					"color" : [ 0.0, 0.0, 0.0, 1.0 ],
					"midpoints" : [  ]
				}

			}
, 			{
				"patchline" : 				{
					"source" : [ "obj-35", 2 ],
					"destination" : [ "obj-33", 3 ],
					"hidden" : 0,
					"color" : [ 0.0, 0.0, 0.0, 1.0 ],
					"midpoints" : [  ]
				}

			}
, 			{
				"patchline" : 				{
					"source" : [ "obj-34", 2 ],
					"destination" : [ "obj-33", 3 ],
					"hidden" : 0,
					"color" : [ 0.0, 0.0, 0.0, 1.0 ],
					"midpoints" : [  ]
				}

			}
, 			{
				"patchline" : 				{
					"source" : [ "obj-22", 0 ],
					"destination" : [ "obj-35", 1 ],
					"hidden" : 0,
					"color" : [ 0.0, 0.0, 0.0, 1.0 ],
					"midpoints" : [  ]
				}

			}
, 			{
				"patchline" : 				{
					"source" : [ "obj-51", 0 ],
					"destination" : [ "obj-22", 0 ],
					"hidden" : 0,
					"color" : [ 0.0, 0.0, 0.0, 1.0 ],
					"midpoints" : [ 399.5, 306.0, 433.5, 306.0 ]
				}

			}
, 			{
				"patchline" : 				{
					"source" : [ "obj-53", 2 ],
					"destination" : [ "obj-51", 0 ],
					"hidden" : 0,
					"color" : [ 0.0, 0.0, 0.0, 1.0 ],
					"midpoints" : [ 452.0, 129.0, 399.5, 129.0 ]
				}

			}
, 			{
				"patchline" : 				{
					"source" : [ "obj-39", 1 ],
					"destination" : [ "obj-33", 2 ],
					"hidden" : 0,
					"color" : [ 0.0, 0.0, 0.0, 1.0 ],
					"midpoints" : [  ]
				}

			}
, 			{
				"patchline" : 				{
					"source" : [ "obj-35", 1 ],
					"destination" : [ "obj-33", 2 ],
					"hidden" : 0,
					"color" : [ 0.0, 0.0, 0.0, 1.0 ],
					"midpoints" : [  ]
				}

			}
, 			{
				"patchline" : 				{
					"source" : [ "obj-34", 1 ],
					"destination" : [ "obj-33", 2 ],
					"hidden" : 0,
					"color" : [ 0.0, 0.0, 0.0, 1.0 ],
					"midpoints" : [  ]
				}

			}
, 			{
				"patchline" : 				{
					"source" : [ "obj-39", 0 ],
					"destination" : [ "obj-33", 1 ],
					"hidden" : 0,
					"color" : [ 0.0, 0.0, 0.0, 1.0 ],
					"midpoints" : [  ]
				}

			}
, 			{
				"patchline" : 				{
					"source" : [ "obj-35", 0 ],
					"destination" : [ "obj-33", 1 ],
					"hidden" : 0,
					"color" : [ 0.0, 0.0, 0.0, 1.0 ],
					"midpoints" : [  ]
				}

			}
, 			{
				"patchline" : 				{
					"source" : [ "obj-34", 0 ],
					"destination" : [ "obj-33", 1 ],
					"hidden" : 0,
					"color" : [ 0.0, 0.0, 0.0, 1.0 ],
					"midpoints" : [  ]
				}

			}
, 			{
				"patchline" : 				{
					"source" : [ "obj-28", 0 ],
					"destination" : [ "obj-35", 0 ],
					"hidden" : 0,
					"color" : [ 0.0, 0.0, 0.0, 1.0 ],
					"midpoints" : [  ]
				}

			}
, 			{
				"patchline" : 				{
					"source" : [ "obj-36", 1 ],
					"destination" : [ "obj-28", 0 ],
					"hidden" : 0,
					"color" : [ 0.0, 0.0, 0.0, 1.0 ],
					"midpoints" : [ 45.5, 404.0, 282.0, 404.0, 282.0, 350.0, 316.0, 350.0, 316.0, 314.0, 347.5, 314.0 ]
				}

			}
, 			{
				"patchline" : 				{
					"source" : [ "obj-33", 0 ],
					"destination" : [ "obj-7", 0 ],
					"hidden" : 0,
					"color" : [ 0.0, 0.0, 0.0, 1.0 ],
					"midpoints" : [  ]
				}

			}
, 			{
				"patchline" : 				{
					"source" : [ "obj-53", 0 ],
					"destination" : [ "obj-33", 0 ],
					"hidden" : 0,
					"color" : [ 0.0, 0.0, 0.0, 1.0 ],
					"midpoints" : [ 297.5, 140.0, 192.0, 140.0, 192.0, 269.0, 132.0, 269.0, 132.0, 407.0, 304.5, 407.0 ]
				}

			}
, 			{
				"patchline" : 				{
					"source" : [ "obj-23", 0 ],
					"destination" : [ "obj-24", 1 ],
					"hidden" : 0,
					"color" : [ 0.0, 0.0, 0.0, 1.0 ],
					"midpoints" : [  ]
				}

			}
, 			{
				"patchline" : 				{
					"source" : [ "obj-20", 0 ],
					"destination" : [ "obj-23", 0 ],
					"hidden" : 0,
					"color" : [ 0.0, 0.0, 0.0, 1.0 ],
					"midpoints" : [  ]
				}

			}
, 			{
				"patchline" : 				{
					"source" : [ "obj-24", 0 ],
					"destination" : [ "obj-39", 1 ],
					"hidden" : 0,
					"color" : [ 0.0, 0.0, 0.0, 1.0 ],
					"midpoints" : [  ]
				}

			}
, 			{
				"patchline" : 				{
					"source" : [ "obj-52", 0 ],
					"destination" : [ "obj-24", 0 ],
					"hidden" : 0,
					"color" : [ 0.0, 0.0, 0.0, 1.0 ],
					"midpoints" : [  ]
				}

			}
, 			{
				"patchline" : 				{
					"source" : [ "obj-53", 1 ],
					"destination" : [ "obj-52", 0 ],
					"hidden" : 0,
					"color" : [ 0.0, 0.0, 0.0, 1.0 ],
					"midpoints" : [ 374.75, 129.0, 233.5, 129.0 ]
				}

			}
, 			{
				"patchline" : 				{
					"source" : [ "obj-37", 0 ],
					"destination" : [ "obj-30", 0 ],
					"hidden" : 0,
					"color" : [ 0.0, 0.0, 0.0, 1.0 ],
					"midpoints" : [ 17.5, 335.0, 3.0, 335.0, 3.0, 437.0, 187.5, 437.0 ]
				}

			}
, 			{
				"patchline" : 				{
					"source" : [ "obj-31", 1 ],
					"destination" : [ "obj-45", 0 ],
					"hidden" : 0,
					"color" : [ 0.0, 0.0, 0.0, 1.0 ],
					"midpoints" : [  ]
				}

			}
, 			{
				"patchline" : 				{
					"source" : [ "obj-29", 0 ],
					"destination" : [ "obj-39", 0 ],
					"hidden" : 0,
					"color" : [ 0.0, 0.0, 0.0, 1.0 ],
					"midpoints" : [  ]
				}

			}
, 			{
				"patchline" : 				{
					"source" : [ "obj-36", 0 ],
					"destination" : [ "obj-29", 0 ],
					"hidden" : 0,
					"color" : [ 0.0, 0.0, 0.0, 1.0 ],
					"midpoints" : [ 17.5, 404.0, 135.0, 404.0, 135.0, 314.0, 148.5, 314.0 ]
				}

			}
, 			{
				"patchline" : 				{
					"source" : [ "obj-31", 0 ],
					"destination" : [ "obj-44", 0 ],
					"hidden" : 0,
					"color" : [ 0.0, 0.0, 0.0, 1.0 ],
					"midpoints" : [  ]
				}

			}
, 			{
				"patchline" : 				{
					"source" : [ "obj-48", 0 ],
					"destination" : [ "obj-31", 0 ],
					"hidden" : 0,
					"color" : [ 0.0, 0.0, 0.0, 1.0 ],
					"midpoints" : [ 20.5, 47.0, 94.5, 47.0 ]
				}

			}
, 			{
				"patchline" : 				{
					"source" : [ "obj-38", 0 ],
					"destination" : [ "obj-36", 0 ],
					"hidden" : 0,
					"color" : [ 0.0, 0.0, 0.0, 1.0 ],
					"midpoints" : [  ]
				}

			}
, 			{
				"patchline" : 				{
					"source" : [ "obj-37", 0 ],
					"destination" : [ "obj-38", 0 ],
					"hidden" : 0,
					"color" : [ 0.0, 0.0, 0.0, 1.0 ],
					"midpoints" : [  ]
				}

			}
, 			{
				"patchline" : 				{
					"source" : [ "obj-19", 0 ],
					"destination" : [ "obj-37", 0 ],
					"hidden" : 0,
					"color" : [ 0.0, 0.0, 0.0, 1.0 ],
					"midpoints" : [  ]
				}

			}
, 			{
				"patchline" : 				{
					"source" : [ "obj-33", 0 ],
					"destination" : [ "obj-61", 0 ],
					"hidden" : 0,
					"color" : [ 0.0, 0.0, 0.0, 1.0 ],
					"midpoints" : [  ]
				}

			}
, 			{
				"patchline" : 				{
					"source" : [ "obj-55", 0 ],
					"destination" : [ "obj-43", 0 ],
					"hidden" : 0,
					"color" : [ 0.0, 0.0, 0.0, 1.0 ],
					"midpoints" : [  ]
				}

			}
, 			{
				"patchline" : 				{
					"source" : [ "obj-55", 0 ],
					"destination" : [ "obj-53", 0 ],
					"hidden" : 0,
					"color" : [ 0.0, 0.0, 0.0, 1.0 ],
					"midpoints" : [  ]
				}

			}
, 			{
				"patchline" : 				{
					"source" : [ "obj-2", 0 ],
					"destination" : [ "obj-47", 0 ],
					"hidden" : 0,
					"color" : [ 0.0, 0.0, 0.0, 1.0 ],
					"midpoints" : [  ]
				}

			}
, 			{
				"patchline" : 				{
					"source" : [ "obj-48", 0 ],
					"destination" : [ "obj-47", 0 ],
					"hidden" : 0,
					"color" : [ 0.0, 0.0, 0.0, 1.0 ],
					"midpoints" : [  ]
				}

			}
, 			{
				"patchline" : 				{
					"source" : [ "obj-47", 0 ],
					"destination" : [ "obj-32", 0 ],
					"hidden" : 0,
					"color" : [ 0.0, 0.0, 0.0, 1.0 ],
					"midpoints" : [  ]
				}

			}
 ]
	}

}
