{
	"patcher" : 	{
		"fileversion" : 1,
		"rect" : [ 56.0, 56.0, 650.0, 471.0 ],
		"bglocked" : 0,
		"defrect" : [ 56.0, 56.0, 650.0, 471.0 ],
		"openrect" : [ 0.0, 0.0, 0.0, 0.0 ],
		"openinpresentation" : 0,
		"default_fontsize" : 11.595187,
		"default_fontface" : 0,
		"default_fontname" : "Arial",
		"gridonopen" : 0,
		"gridsize" : [ 15.0, 15.0 ],
		"gridsnaponopen" : 0,
		"toolbarvisible" : 1,
		"boxanimatetime" : 200,
		"imprint" : 0,
		"metadata" : [  ],
		"boxes" : [ 			{
				"box" : 				{
					"maxclass" : "message",
					"text" : "read",
					"fontname" : "Arial",
					"patching_rect" : [ 71.0, 36.0, 34.0, 18.0 ],
					"numinlets" : 2,
					"id" : "obj-33",
					"fontsize" : 11.595187,
					"numoutlets" : 1,
					"outlettype" : [ "" ]
				}

			}
, 			{
				"box" : 				{
					"maxclass" : "inlet",
					"patching_rect" : [ 462.0, 93.0, 25.0, 25.0 ],
					"numinlets" : 0,
					"id" : "obj-7",
					"numoutlets" : 1,
					"outlettype" : [ "" ],
					"comment" : "yexp"
				}

			}
, 			{
				"box" : 				{
					"maxclass" : "inlet",
					"patching_rect" : [ 393.0, 93.0, 25.0, 25.0 ],
					"numinlets" : 0,
					"id" : "obj-5",
					"numoutlets" : 1,
					"outlettype" : [ "" ],
					"comment" : "xexp"
				}

			}
, 			{
				"box" : 				{
					"maxclass" : "outlet",
					"patching_rect" : [ 177.0, 143.0, 25.0, 25.0 ],
					"numinlets" : 1,
					"id" : "obj-41",
					"numoutlets" : 0,
					"comment" : "out"
				}

			}
, 			{
				"box" : 				{
					"maxclass" : "inlet",
					"patching_rect" : [ 167.0, 71.0, 25.0, 25.0 ],
					"numinlets" : 0,
					"id" : "obj-4",
					"numoutlets" : 1,
					"outlettype" : [ "" ],
					"comment" : "matrix input"
				}

			}
, 			{
				"box" : 				{
					"maxclass" : "inlet",
					"patching_rect" : [ 118.0, 5.0, 25.0, 25.0 ],
					"numinlets" : 0,
					"id" : "obj-42",
					"numoutlets" : 1,
					"outlettype" : [ "" ],
					"comment" : "stop"
				}

			}
, 			{
				"box" : 				{
					"maxclass" : "inlet",
					"patching_rect" : [ 89.0, 5.0, 25.0, 25.0 ],
					"numinlets" : 0,
					"id" : "obj-38",
					"numoutlets" : 1,
					"outlettype" : [ "" ],
					"comment" : "start"
				}

			}
, 			{
				"box" : 				{
					"maxclass" : "comment",
					"text" : "Spatial Map -> Exponential",
					"fontname" : "Arial",
					"patching_rect" : [ 343.0, 312.0, 304.0, 33.0 ],
					"numinlets" : 1,
					"id" : "obj-32",
					"fontface" : 1,
					"fontsize" : 23.190374,
					"numoutlets" : 0
				}

			}
, 			{
				"box" : 				{
					"maxclass" : "comment",
					"text" : "0=ignore;\n1=clear;\n2=wrap;\n3=clip(default);\n4=fold;",
					"linecount" : 5,
					"fontname" : "Arial",
					"patching_rect" : [ 540.0, 181.0, 88.0, 73.0 ],
					"numinlets" : 1,
					"id" : "obj-31",
					"fontsize" : 11.595187,
					"numoutlets" : 0
				}

			}
, 			{
				"box" : 				{
					"maxclass" : "jit.fpsgui",
					"fontname" : "Arial",
					"patching_rect" : [ 342.0, 422.0, 80.0, 35.0 ],
					"numinlets" : 1,
					"id" : "obj-30",
					"fontsize" : 11.595187,
					"numoutlets" : 2,
					"outlettype" : [ "", "" ]
				}

			}
, 			{
				"box" : 				{
					"maxclass" : "jit.pwindow",
					"patching_rect" : [ 16.0, 215.0, 320.0, 240.0 ],
					"numinlets" : 1,
					"id" : "obj-29",
					"numoutlets" : 2,
					"outlettype" : [ "", "" ]
				}

			}
, 			{
				"box" : 				{
					"maxclass" : "newobj",
					"text" : "loadbang",
					"fontname" : "Arial",
					"patching_rect" : [ 229.0, 4.0, 58.0, 20.0 ],
					"hidden" : 1,
					"numinlets" : 1,
					"id" : "obj-28",
					"fontsize" : 11.595187,
					"numoutlets" : 1,
					"outlettype" : [ "bang" ]
				}

			}
, 			{
				"box" : 				{
					"maxclass" : "message",
					"text" : "boundmode $1",
					"fontname" : "Arial",
					"patching_rect" : [ 536.0, 161.0, 88.0, 18.0 ],
					"numinlets" : 2,
					"id" : "obj-26",
					"fontsize" : 11.595187,
					"numoutlets" : 1,
					"outlettype" : [ "" ]
				}

			}
, 			{
				"box" : 				{
					"maxclass" : "number",
					"fontname" : "Arial",
					"patching_rect" : [ 535.0, 130.0, 50.0, 20.0 ],
					"numinlets" : 1,
					"id" : "obj-27",
					"fontsize" : 11.595187,
					"numoutlets" : 2,
					"outlettype" : [ "int", "bang" ]
				}

			}
, 			{
				"box" : 				{
					"maxclass" : "message",
					"text" : "offset_y $1",
					"fontname" : "Arial",
					"patching_rect" : [ 460.0, 161.0, 67.0, 18.0 ],
					"numinlets" : 2,
					"id" : "obj-24",
					"fontsize" : 11.595187,
					"numoutlets" : 1,
					"outlettype" : [ "" ]
				}

			}
, 			{
				"box" : 				{
					"maxclass" : "number",
					"fontname" : "Arial",
					"patching_rect" : [ 460.0, 140.0, 50.0, 20.0 ],
					"numinlets" : 1,
					"id" : "obj-25",
					"fontsize" : 11.595187,
					"numoutlets" : 2,
					"outlettype" : [ "int", "bang" ]
				}

			}
, 			{
				"box" : 				{
					"maxclass" : "message",
					"text" : "offset_x $1",
					"fontname" : "Arial",
					"patching_rect" : [ 380.0, 161.0, 67.0, 18.0 ],
					"numinlets" : 2,
					"id" : "obj-23",
					"fontsize" : 11.595187,
					"numoutlets" : 1,
					"outlettype" : [ "" ]
				}

			}
, 			{
				"box" : 				{
					"maxclass" : "number",
					"fontname" : "Arial",
					"patching_rect" : [ 386.0, 131.0, 50.0, 20.0 ],
					"numinlets" : 1,
					"id" : "obj-22",
					"fontsize" : 11.595187,
					"numoutlets" : 2,
					"outlettype" : [ "int", "bang" ]
				}

			}
, 			{
				"box" : 				{
					"maxclass" : "newobj",
					"text" : "jit.repos 4 char 640 480 @interpbits 8",
					"fontname" : "Arial",
					"patching_rect" : [ 16.0, 190.0, 203.0, 20.0 ],
					"numinlets" : 2,
					"id" : "obj-21",
					"fontsize" : 11.595187,
					"numoutlets" : 2,
					"outlettype" : [ "jit_matrix", "" ]
				}

			}
, 			{
				"box" : 				{
					"maxclass" : "comment",
					"text" : "the makemap patch fills a matrix with a spatial mapping of linear to exponential space.",
					"linecount" : 3,
					"fontname" : "Arial",
					"patching_rect" : [ 383.0, 47.0, 163.0, 46.0 ],
					"numinlets" : 1,
					"id" : "obj-20",
					"fontsize" : 11.595187,
					"numoutlets" : 0
				}

			}
, 			{
				"box" : 				{
					"maxclass" : "flonum",
					"fontname" : "Arial",
					"patching_rect" : [ 326.0, 46.0, 50.0, 20.0 ],
					"numinlets" : 1,
					"id" : "obj-19",
					"fontsize" : 11.595187,
					"numoutlets" : 2,
					"outlettype" : [ "float", "bang" ]
				}

			}
, 			{
				"box" : 				{
					"maxclass" : "flonum",
					"fontname" : "Arial",
					"patching_rect" : [ 274.0, 46.0, 50.0, 20.0 ],
					"numinlets" : 1,
					"id" : "obj-18",
					"fontsize" : 11.595187,
					"numoutlets" : 2,
					"outlettype" : [ "float", "bang" ]
				}

			}
, 			{
				"box" : 				{
					"maxclass" : "button",
					"patching_rect" : [ 229.0, 41.0, 20.0, 20.0 ],
					"numinlets" : 1,
					"id" : "obj-17",
					"numoutlets" : 1,
					"outlettype" : [ "bang" ]
				}

			}
, 			{
				"box" : 				{
					"maxclass" : "newobj",
					"text" : "jit.matrix 2 long 320 240",
					"fontname" : "Arial",
					"patching_rect" : [ 229.0, 99.0, 134.0, 20.0 ],
					"numinlets" : 1,
					"id" : "obj-16",
					"fontsize" : 11.595187,
					"numoutlets" : 2,
					"outlettype" : [ "jit_matrix", "" ]
				}

			}
, 			{
				"box" : 				{
					"maxclass" : "newobj",
					"text" : "p makemap",
					"fontname" : "Arial",
					"patching_rect" : [ 248.0, 72.0, 71.0, 20.0 ],
					"numinlets" : 3,
					"id" : "obj-15",
					"fontsize" : 11.595187,
					"numoutlets" : 1,
					"outlettype" : [ "" ],
					"patcher" : 					{
						"fileversion" : 1,
						"rect" : [ 612.0, 44.0, 466.0, 406.0 ],
						"bglocked" : 0,
						"defrect" : [ 612.0, 44.0, 466.0, 406.0 ],
						"openrect" : [ 0.0, 0.0, 0.0, 0.0 ],
						"openinpresentation" : 0,
						"default_fontsize" : 10.0,
						"default_fontface" : 0,
						"default_fontname" : "Arial",
						"gridonopen" : 0,
						"gridsize" : [ 15.0, 15.0 ],
						"gridsnaponopen" : 0,
						"toolbarvisible" : 1,
						"boxanimatetime" : 200,
						"imprint" : 0,
						"metadata" : [  ],
						"boxes" : [ 							{
								"box" : 								{
									"maxclass" : "outlet",
									"patching_rect" : [ 108.0, 369.0, 25.0, 25.0 ],
									"numinlets" : 1,
									"id" : "obj-17",
									"numoutlets" : 0,
									"comment" : ""
								}

							}
, 							{
								"box" : 								{
									"maxclass" : "inlet",
									"patching_rect" : [ 356.0, 12.0, 25.0, 25.0 ],
									"numinlets" : 0,
									"id" : "obj-16",
									"numoutlets" : 1,
									"outlettype" : [ "float" ],
									"comment" : ""
								}

							}
, 							{
								"box" : 								{
									"maxclass" : "newobj",
									"text" : "pack setcell 0 0 val 0 0",
									"fontname" : "Arial",
									"patching_rect" : [ 108.0, 345.0, 166.0, 20.0 ],
									"numinlets" : 6,
									"id" : "obj-15",
									"fontsize" : 11.595187,
									"numoutlets" : 1,
									"outlettype" : [ "" ]
								}

							}
, 							{
								"box" : 								{
									"maxclass" : "newobj",
									"text" : "* 256.",
									"fontname" : "Arial",
									"patching_rect" : [ 341.0, 278.0, 41.0, 20.0 ],
									"numinlets" : 2,
									"id" : "obj-11",
									"fontsize" : 11.595187,
									"numoutlets" : 1,
									"outlettype" : [ "float" ]
								}

							}
, 							{
								"box" : 								{
									"maxclass" : "newobj",
									"text" : "expr pow(240.\\,$f1)",
									"fontname" : "Arial",
									"patching_rect" : [ 341.0, 252.0, 110.0, 20.0 ],
									"numinlets" : 1,
									"id" : "obj-12",
									"fontsize" : 11.595187,
									"numoutlets" : 1,
									"outlettype" : [ "" ]
								}

							}
, 							{
								"box" : 								{
									"maxclass" : "newobj",
									"text" : "/ 240.",
									"fontname" : "Arial",
									"patching_rect" : [ 341.0, 225.0, 40.0, 20.0 ],
									"numinlets" : 2,
									"id" : "obj-13",
									"fontsize" : 11.595187,
									"numoutlets" : 1,
									"outlettype" : [ "float" ]
								}

							}
, 							{
								"box" : 								{
									"maxclass" : "newobj",
									"text" : "* 1.",
									"fontname" : "Arial",
									"patching_rect" : [ 341.0, 198.0, 33.5, 20.0 ],
									"numinlets" : 2,
									"id" : "obj-14",
									"fontsize" : 11.595187,
									"numoutlets" : 1,
									"outlettype" : [ "float" ]
								}

							}
, 							{
								"box" : 								{
									"maxclass" : "inlet",
									"patching_rect" : [ 241.0, 12.0, 25.0, 25.0 ],
									"numinlets" : 0,
									"id" : "obj-10",
									"numoutlets" : 1,
									"outlettype" : [ "float" ],
									"comment" : ""
								}

							}
, 							{
								"box" : 								{
									"maxclass" : "newobj",
									"text" : "* 256.",
									"fontname" : "Arial",
									"patching_rect" : [ 226.0, 263.0, 41.0, 20.0 ],
									"numinlets" : 2,
									"id" : "obj-9",
									"fontsize" : 11.595187,
									"numoutlets" : 1,
									"outlettype" : [ "float" ]
								}

							}
, 							{
								"box" : 								{
									"maxclass" : "newobj",
									"text" : "expr pow(320.\\,$f1)",
									"fontname" : "Arial",
									"patching_rect" : [ 226.0, 237.0, 110.0, 20.0 ],
									"numinlets" : 1,
									"id" : "obj-8",
									"fontsize" : 11.595187,
									"numoutlets" : 1,
									"outlettype" : [ "" ]
								}

							}
, 							{
								"box" : 								{
									"maxclass" : "newobj",
									"text" : "/ 320.",
									"fontname" : "Arial",
									"patching_rect" : [ 226.0, 210.0, 40.0, 20.0 ],
									"numinlets" : 2,
									"id" : "obj-7",
									"fontsize" : 11.595187,
									"numoutlets" : 1,
									"outlettype" : [ "float" ]
								}

							}
, 							{
								"box" : 								{
									"maxclass" : "newobj",
									"text" : "* 1.",
									"fontname" : "Arial",
									"patching_rect" : [ 226.0, 183.0, 33.5, 20.0 ],
									"numinlets" : 2,
									"id" : "obj-6",
									"fontsize" : 11.595187,
									"numoutlets" : 1,
									"outlettype" : [ "float" ]
								}

							}
, 							{
								"box" : 								{
									"maxclass" : "newobj",
									"text" : "- 1",
									"fontname" : "Arial",
									"patching_rect" : [ 137.0, 135.0, 32.5, 20.0 ],
									"numinlets" : 2,
									"id" : "obj-5",
									"fontsize" : 11.595187,
									"numoutlets" : 1,
									"outlettype" : [ "int" ]
								}

							}
, 							{
								"box" : 								{
									"maxclass" : "newobj",
									"text" : "uzi 320",
									"fontname" : "Arial",
									"patching_rect" : [ 108.0, 109.0, 48.0, 20.0 ],
									"numinlets" : 2,
									"id" : "obj-4",
									"fontsize" : 11.595187,
									"numoutlets" : 3,
									"outlettype" : [ "bang", "bang", "int" ]
								}

							}
, 							{
								"box" : 								{
									"maxclass" : "newobj",
									"text" : "- 1",
									"fontname" : "Arial",
									"patching_rect" : [ 45.0, 72.0, 32.5, 20.0 ],
									"numinlets" : 2,
									"id" : "obj-3",
									"fontsize" : 11.595187,
									"numoutlets" : 1,
									"outlettype" : [ "int" ]
								}

							}
, 							{
								"box" : 								{
									"maxclass" : "newobj",
									"text" : "uzi 240",
									"fontname" : "Arial",
									"patching_rect" : [ 16.0, 46.0, 48.0, 20.0 ],
									"numinlets" : 2,
									"id" : "obj-2",
									"fontsize" : 11.595187,
									"numoutlets" : 3,
									"outlettype" : [ "bang", "bang", "int" ]
								}

							}
, 							{
								"box" : 								{
									"maxclass" : "inlet",
									"patching_rect" : [ 16.0, 12.0, 25.0, 25.0 ],
									"numinlets" : 0,
									"id" : "obj-1",
									"numoutlets" : 1,
									"outlettype" : [ "bang" ],
									"comment" : ""
								}

							}
 ],
						"lines" : [ 							{
								"patchline" : 								{
									"source" : [ "obj-1", 0 ],
									"destination" : [ "obj-2", 0 ],
									"hidden" : 0,
									"midpoints" : [  ]
								}

							}
, 							{
								"patchline" : 								{
									"source" : [ "obj-2", 2 ],
									"destination" : [ "obj-3", 0 ],
									"hidden" : 0,
									"midpoints" : [  ]
								}

							}
, 							{
								"patchline" : 								{
									"source" : [ "obj-4", 2 ],
									"destination" : [ "obj-5", 0 ],
									"hidden" : 0,
									"midpoints" : [  ]
								}

							}
, 							{
								"patchline" : 								{
									"source" : [ "obj-6", 0 ],
									"destination" : [ "obj-7", 0 ],
									"hidden" : 0,
									"midpoints" : [  ]
								}

							}
, 							{
								"patchline" : 								{
									"source" : [ "obj-5", 0 ],
									"destination" : [ "obj-6", 0 ],
									"hidden" : 0,
									"midpoints" : [  ]
								}

							}
, 							{
								"patchline" : 								{
									"source" : [ "obj-10", 0 ],
									"destination" : [ "obj-6", 1 ],
									"hidden" : 0,
									"midpoints" : [  ]
								}

							}
, 							{
								"patchline" : 								{
									"source" : [ "obj-2", 0 ],
									"destination" : [ "obj-4", 0 ],
									"hidden" : 0,
									"midpoints" : [ 25.5, 98.0, 117.5, 98.0 ]
								}

							}
, 							{
								"patchline" : 								{
									"source" : [ "obj-14", 0 ],
									"destination" : [ "obj-13", 0 ],
									"hidden" : 0,
									"midpoints" : [  ]
								}

							}
, 							{
								"patchline" : 								{
									"source" : [ "obj-8", 0 ],
									"destination" : [ "obj-9", 0 ],
									"hidden" : 0,
									"midpoints" : [  ]
								}

							}
, 							{
								"patchline" : 								{
									"source" : [ "obj-7", 0 ],
									"destination" : [ "obj-8", 0 ],
									"hidden" : 0,
									"midpoints" : [  ]
								}

							}
, 							{
								"patchline" : 								{
									"source" : [ "obj-12", 0 ],
									"destination" : [ "obj-11", 0 ],
									"hidden" : 0,
									"midpoints" : [  ]
								}

							}
, 							{
								"patchline" : 								{
									"source" : [ "obj-13", 0 ],
									"destination" : [ "obj-12", 0 ],
									"hidden" : 0,
									"midpoints" : [  ]
								}

							}
, 							{
								"patchline" : 								{
									"source" : [ "obj-4", 0 ],
									"destination" : [ "obj-15", 0 ],
									"hidden" : 0,
									"midpoints" : [  ]
								}

							}
, 							{
								"patchline" : 								{
									"source" : [ "obj-5", 0 ],
									"destination" : [ "obj-15", 1 ],
									"hidden" : 0,
									"midpoints" : [  ]
								}

							}
, 							{
								"patchline" : 								{
									"source" : [ "obj-3", 0 ],
									"destination" : [ "obj-15", 2 ],
									"hidden" : 0,
									"color" : [ 0.082353, 0.431373, 0.411765, 1.0 ],
									"midpoints" : [ 54.5, 319.0, 176.300003, 319.0 ]
								}

							}
, 							{
								"patchline" : 								{
									"source" : [ "obj-3", 0 ],
									"destination" : [ "obj-14", 0 ],
									"hidden" : 0,
									"color" : [ 0.082353, 0.431373, 0.411765, 1.0 ],
									"midpoints" : [ 54.5, 94.0, 350.5, 94.0 ]
								}

							}
, 							{
								"patchline" : 								{
									"source" : [ "obj-16", 0 ],
									"destination" : [ "obj-14", 1 ],
									"hidden" : 0,
									"midpoints" : [  ]
								}

							}
, 							{
								"patchline" : 								{
									"source" : [ "obj-11", 0 ],
									"destination" : [ "obj-15", 5 ],
									"hidden" : 0,
									"midpoints" : [  ]
								}

							}
, 							{
								"patchline" : 								{
									"source" : [ "obj-9", 0 ],
									"destination" : [ "obj-15", 4 ],
									"hidden" : 0,
									"midpoints" : [  ]
								}

							}
, 							{
								"patchline" : 								{
									"source" : [ "obj-15", 0 ],
									"destination" : [ "obj-17", 0 ],
									"hidden" : 0,
									"midpoints" : [  ]
								}

							}
 ]
					}
,
					"saved_object_attributes" : 					{
						"default_fontname" : "Arial",
						"fontname" : "Arial",
						"default_fontsize" : 10.0,
						"fontface" : 0,
						"fontsize" : 10.0,
						"globalpatchername" : "",
						"default_fontface" : 0
					}

				}

			}
, 			{
				"box" : 				{
					"maxclass" : "comment",
					"text" : "relative",
					"fontname" : "Arial",
					"patching_rect" : [ 103.0, 119.0, 46.0, 20.0 ],
					"numinlets" : 1,
					"id" : "obj-14",
					"fontsize" : 11.595187,
					"numoutlets" : 0
				}

			}
, 			{
				"box" : 				{
					"maxclass" : "comment",
					"text" : "absolute",
					"fontname" : "Arial",
					"patching_rect" : [ 43.0, 119.0, 52.0, 20.0 ],
					"numinlets" : 1,
					"id" : "obj-13",
					"fontsize" : 11.595187,
					"numoutlets" : 0
				}

			}
, 			{
				"box" : 				{
					"maxclass" : "message",
					"text" : "mode 1",
					"fontname" : "Arial",
					"patching_rect" : [ 101.0, 136.0, 49.0, 18.0 ],
					"numinlets" : 2,
					"id" : "obj-12",
					"fontsize" : 11.595187,
					"numoutlets" : 1,
					"outlettype" : [ "" ]
				}

			}
, 			{
				"box" : 				{
					"maxclass" : "message",
					"text" : "mode 0",
					"fontname" : "Arial",
					"patching_rect" : [ 44.0, 134.0, 49.0, 18.0 ],
					"numinlets" : 2,
					"id" : "obj-11",
					"fontsize" : 11.595187,
					"numoutlets" : 1,
					"outlettype" : [ "" ]
				}

			}
, 			{
				"box" : 				{
					"maxclass" : "flonum",
					"fontname" : "Arial",
					"patching_rect" : [ 145.0, 13.0, 50.0, 20.0 ],
					"numinlets" : 1,
					"id" : "obj-10",
					"fontsize" : 11.595187,
					"numoutlets" : 2,
					"outlettype" : [ "float", "bang" ]
				}

			}
, 			{
				"box" : 				{
					"maxclass" : "message",
					"text" : "rate $1",
					"fontname" : "Arial",
					"patching_rect" : [ 145.0, 40.0, 47.0, 18.0 ],
					"numinlets" : 2,
					"id" : "obj-9",
					"fontsize" : 11.595187,
					"numoutlets" : 1,
					"outlettype" : [ "" ]
				}

			}
, 			{
				"box" : 				{
					"maxclass" : "message",
					"text" : "stop",
					"fontname" : "Arial",
					"patching_rect" : [ 111.0, 40.0, 32.5, 18.0 ],
					"numinlets" : 2,
					"id" : "obj-8",
					"fontsize" : 11.595187,
					"numoutlets" : 1,
					"outlettype" : [ "" ]
				}

			}
, 			{
				"box" : 				{
					"maxclass" : "flonum",
					"fontname" : "Arial",
					"minimum" : 0.5,
					"patching_rect" : [ 45.0, 8.0, 40.0, 20.0 ],
					"numinlets" : 1,
					"id" : "obj-6",
					"fontsize" : 11.595187,
					"numoutlets" : 2,
					"outlettype" : [ "float", "bang" ]
				}

			}
, 			{
				"box" : 				{
					"maxclass" : "newobj",
					"text" : "jit.qt.movie 320 240",
					"fontname" : "Arial",
					"patching_rect" : [ 16.0, 73.0, 111.0, 20.0 ],
					"numinlets" : 1,
					"id" : "obj-3",
					"fontsize" : 11.595187,
					"numoutlets" : 2,
					"outlettype" : [ "jit_matrix", "" ]
				}

			}
, 			{
				"box" : 				{
					"maxclass" : "newobj",
					"text" : "metro 2",
					"fontname" : "Arial",
					"patching_rect" : [ 16.0, 33.0, 50.0, 20.0 ],
					"numinlets" : 2,
					"id" : "obj-2",
					"fontsize" : 11.595187,
					"numoutlets" : 1,
					"outlettype" : [ "bang" ]
				}

			}
, 			{
				"box" : 				{
					"maxclass" : "toggle",
					"patching_rect" : [ 16.0, 11.0, 20.0, 20.0 ],
					"numinlets" : 1,
					"id" : "obj-1",
					"numoutlets" : 1,
					"outlettype" : [ "int" ]
				}

			}
 ],
		"lines" : [ 			{
				"patchline" : 				{
					"source" : [ "obj-15", 0 ],
					"destination" : [ "obj-16", 0 ],
					"hidden" : 0,
					"midpoints" : [  ]
				}

			}
, 			{
				"patchline" : 				{
					"source" : [ "obj-17", 0 ],
					"destination" : [ "obj-16", 0 ],
					"hidden" : 0,
					"midpoints" : [  ]
				}

			}
, 			{
				"patchline" : 				{
					"source" : [ "obj-16", 0 ],
					"destination" : [ "obj-21", 1 ],
					"hidden" : 0,
					"midpoints" : [  ]
				}

			}
, 			{
				"patchline" : 				{
					"source" : [ "obj-3", 0 ],
					"destination" : [ "obj-21", 0 ],
					"hidden" : 0,
					"midpoints" : [  ]
				}

			}
, 			{
				"patchline" : 				{
					"source" : [ "obj-8", 0 ],
					"destination" : [ "obj-3", 0 ],
					"hidden" : 0,
					"midpoints" : [ 120.5, 63.0, 25.5, 63.0 ]
				}

			}
, 			{
				"patchline" : 				{
					"source" : [ "obj-9", 0 ],
					"destination" : [ "obj-3", 0 ],
					"hidden" : 0,
					"midpoints" : [ 154.5, 60.0, 25.5, 60.0 ]
				}

			}
, 			{
				"patchline" : 				{
					"source" : [ "obj-2", 0 ],
					"destination" : [ "obj-3", 0 ],
					"hidden" : 0,
					"midpoints" : [  ]
				}

			}
, 			{
				"patchline" : 				{
					"source" : [ "obj-33", 0 ],
					"destination" : [ "obj-3", 0 ],
					"hidden" : 0,
					"midpoints" : [  ]
				}

			}
, 			{
				"patchline" : 				{
					"source" : [ "obj-11", 0 ],
					"destination" : [ "obj-21", 0 ],
					"hidden" : 0,
					"midpoints" : [  ]
				}

			}
, 			{
				"patchline" : 				{
					"source" : [ "obj-10", 0 ],
					"destination" : [ "obj-9", 0 ],
					"hidden" : 0,
					"midpoints" : [  ]
				}

			}
, 			{
				"patchline" : 				{
					"source" : [ "obj-17", 0 ],
					"destination" : [ "obj-15", 0 ],
					"hidden" : 0,
					"midpoints" : [  ]
				}

			}
, 			{
				"patchline" : 				{
					"source" : [ "obj-18", 0 ],
					"destination" : [ "obj-15", 1 ],
					"hidden" : 0,
					"midpoints" : [  ]
				}

			}
, 			{
				"patchline" : 				{
					"source" : [ "obj-19", 0 ],
					"destination" : [ "obj-15", 2 ],
					"hidden" : 0,
					"midpoints" : [ 335.5, 69.0, 309.5, 69.0 ]
				}

			}
, 			{
				"patchline" : 				{
					"source" : [ "obj-22", 0 ],
					"destination" : [ "obj-23", 0 ],
					"hidden" : 0,
					"midpoints" : [  ]
				}

			}
, 			{
				"patchline" : 				{
					"source" : [ "obj-25", 0 ],
					"destination" : [ "obj-24", 0 ],
					"hidden" : 0,
					"midpoints" : [  ]
				}

			}
, 			{
				"patchline" : 				{
					"source" : [ "obj-27", 0 ],
					"destination" : [ "obj-26", 0 ],
					"hidden" : 0,
					"midpoints" : [  ]
				}

			}
, 			{
				"patchline" : 				{
					"source" : [ "obj-28", 0 ],
					"destination" : [ "obj-17", 0 ],
					"hidden" : 1,
					"midpoints" : [  ]
				}

			}
, 			{
				"patchline" : 				{
					"source" : [ "obj-29", 0 ],
					"destination" : [ "obj-30", 0 ],
					"hidden" : 0,
					"midpoints" : [ 25.5, 458.0, 339.0, 458.0, 339.0, 420.0, 351.5, 420.0 ]
				}

			}
, 			{
				"patchline" : 				{
					"source" : [ "obj-42", 0 ],
					"destination" : [ "obj-8", 0 ],
					"hidden" : 0,
					"midpoints" : [  ]
				}

			}
, 			{
				"patchline" : 				{
					"source" : [ "obj-5", 0 ],
					"destination" : [ "obj-22", 0 ],
					"hidden" : 0,
					"midpoints" : [  ]
				}

			}
, 			{
				"patchline" : 				{
					"source" : [ "obj-7", 0 ],
					"destination" : [ "obj-25", 0 ],
					"hidden" : 0,
					"midpoints" : [  ]
				}

			}
, 			{
				"patchline" : 				{
					"source" : [ "obj-1", 0 ],
					"destination" : [ "obj-2", 0 ],
					"hidden" : 0,
					"midpoints" : [  ]
				}

			}
, 			{
				"patchline" : 				{
					"source" : [ "obj-6", 0 ],
					"destination" : [ "obj-2", 1 ],
					"hidden" : 0,
					"midpoints" : [  ]
				}

			}
, 			{
				"patchline" : 				{
					"source" : [ "obj-38", 0 ],
					"destination" : [ "obj-2", 0 ],
					"hidden" : 0,
					"midpoints" : [  ]
				}

			}
, 			{
				"patchline" : 				{
					"source" : [ "obj-21", 0 ],
					"destination" : [ "obj-41", 0 ],
					"hidden" : 0,
					"midpoints" : [  ]
				}

			}
, 			{
				"patchline" : 				{
					"source" : [ "obj-4", 0 ],
					"destination" : [ "obj-21", 0 ],
					"hidden" : 0,
					"midpoints" : [  ]
				}

			}
, 			{
				"patchline" : 				{
					"source" : [ "obj-12", 0 ],
					"destination" : [ "obj-21", 0 ],
					"hidden" : 0,
					"midpoints" : [  ]
				}

			}
, 			{
				"patchline" : 				{
					"source" : [ "obj-26", 0 ],
					"destination" : [ "obj-21", 0 ],
					"hidden" : 0,
					"midpoints" : [ 545.5, 181.0, 25.5, 181.0 ]
				}

			}
, 			{
				"patchline" : 				{
					"source" : [ "obj-24", 0 ],
					"destination" : [ "obj-21", 0 ],
					"hidden" : 0,
					"midpoints" : [ 469.5, 184.0, 25.5, 184.0 ]
				}

			}
, 			{
				"patchline" : 				{
					"source" : [ "obj-23", 0 ],
					"destination" : [ "obj-21", 0 ],
					"hidden" : 0,
					"midpoints" : [ 389.5, 187.0, 25.5, 187.0 ]
				}

			}
, 			{
				"patchline" : 				{
					"source" : [ "obj-21", 0 ],
					"destination" : [ "obj-29", 0 ],
					"hidden" : 0,
					"midpoints" : [  ]
				}

			}
 ]
	}

}
