{
	"patcher" : 	{
		"fileversion" : 1,
		"rect" : [ 35.0, 71.0, 649.0, 598.0 ],
		"bgcolor" : [ 1.0, 1.0, 1.0, 1.0 ],
		"bglocked" : 0,
		"defrect" : [ 35.0, 71.0, 649.0, 598.0 ],
		"openrect" : [ 0.0, 0.0, 0.0, 0.0 ],
		"openinpresentation" : 0,
		"default_fontsize" : 10.0,
		"default_fontface" : 0,
		"default_fontname" : "Arial",
		"gridonopen" : 0,
		"gridsize" : [ 15.0, 15.0 ],
		"gridsnaponopen" : 0,
		"toolbarvisible" : 1,
		"boxanimatetime" : 200,
		"imprint" : 1,
		"title" : "MIDI Sequencing Tute 1",
		"metadata" : [  ],
		"boxes" : [ 			{
				"box" : 				{
					"maxclass" : "newobj",
					"text" : "scale -3 120 10 127",
					"fontsize" : 10.0,
					"presentation_rect" : [ 0.0, 0.0, 0.0, 0.0 ],
					"ignoreclick" : 0,
					"hidden" : 0,
					"textcolor" : [ 0.0, 0.0, 0.0, 1.0 ],
					"numinlets" : 6,
					"patching_rect" : [ 389.0, 205.0, 98.0, 18.0 ],
					"presentation" : 0,
					"id" : "obj-7",
					"fontname" : "Arial",
					"bgcolor" : [ 1.0, 1.0, 1.0, 1.0 ],
					"numoutlets" : 1,
					"outlettype" : [ "int" ],
					"background" : 0,
					"color" : [ 0.8, 0.84, 0.71, 1.0 ],
					"fontface" : 0
				}

			}
, 			{
				"box" : 				{
					"maxclass" : "number",
					"fontsize" : 10.0,
					"format" : 0,
					"presentation_rect" : [ 0.0, 0.0, 0.0, 0.0 ],
					"ignoreclick" : 0,
					"minimum" : "<none>",
					"outputonclick" : 0,
					"hidden" : 0,
					"textcolor" : [ 0.0, 0.0, 0.0, 1.0 ],
					"numinlets" : 1,
					"bordercolor" : [ 0.5, 0.5, 0.5, 1.0 ],
					"maximum" : "<none>",
					"patching_rect" : [ 423.0, 284.0, 50.0, 18.0 ],
					"htricolor" : [ 0.87, 0.82, 0.24, 1.0 ],
					"triangle" : 1,
					"presentation" : 0,
					"id" : "obj-45",
					"fontname" : "Arial",
					"bgcolor" : [ 1.0, 1.0, 1.0, 1.0 ],
					"numoutlets" : 2,
					"cantchange" : 0,
					"hbgcolor" : [ 0.0, 0.0, 0.0, 1.0 ],
					"tricolor" : [ 0.75, 0.75, 0.75, 1.0 ],
					"outlettype" : [ "int", "bang" ],
					"triscale" : 1.0,
					"htextcolor" : [ 1.0, 1.0, 1.0, 1.0 ],
					"background" : 0,
					"mouseup" : 0,
					"fontface" : 0
				}

			}
, 			{
				"box" : 				{
					"maxclass" : "number",
					"fontsize" : 10.0,
					"format" : 0,
					"presentation_rect" : [ 0.0, 0.0, 0.0, 0.0 ],
					"ignoreclick" : 0,
					"minimum" : "<none>",
					"outputonclick" : 0,
					"hidden" : 0,
					"textcolor" : [ 0.0, 0.0, 0.0, 1.0 ],
					"numinlets" : 1,
					"bordercolor" : [ 0.5, 0.5, 0.5, 1.0 ],
					"maximum" : "<none>",
					"patching_rect" : [ 404.0, 262.0, 50.0, 18.0 ],
					"htricolor" : [ 0.87, 0.82, 0.24, 1.0 ],
					"triangle" : 1,
					"presentation" : 0,
					"id" : "obj-44",
					"fontname" : "Arial",
					"bgcolor" : [ 1.0, 1.0, 1.0, 1.0 ],
					"numoutlets" : 2,
					"cantchange" : 0,
					"hbgcolor" : [ 0.0, 0.0, 0.0, 1.0 ],
					"tricolor" : [ 0.75, 0.75, 0.75, 1.0 ],
					"outlettype" : [ "int", "bang" ],
					"triscale" : 1.0,
					"htextcolor" : [ 1.0, 1.0, 1.0, 1.0 ],
					"background" : 0,
					"mouseup" : 0,
					"fontface" : 0
				}

			}
, 			{
				"box" : 				{
					"maxclass" : "newobj",
					"text" : "ctlout",
					"fontsize" : 10.0,
					"presentation_rect" : [ 0.0, 0.0, 0.0, 0.0 ],
					"ignoreclick" : 0,
					"hidden" : 0,
					"textcolor" : [ 0.0, 0.0, 0.0, 1.0 ],
					"numinlets" : 3,
					"patching_rect" : [ 388.0, 326.0, 46.0, 18.0 ],
					"presentation" : 0,
					"id" : "obj-43",
					"fontname" : "Arial",
					"bgcolor" : [ 1.0, 1.0, 1.0, 1.0 ],
					"numoutlets" : 0,
					"background" : 0,
					"color" : [ 0.8, 0.84, 0.71, 1.0 ],
					"fontface" : 0
				}

			}
, 			{
				"box" : 				{
					"maxclass" : "number",
					"fontsize" : 10.0,
					"format" : 0,
					"presentation_rect" : [ 0.0, 0.0, 0.0, 0.0 ],
					"ignoreclick" : 0,
					"minimum" : "<none>",
					"outputonclick" : 0,
					"hidden" : 0,
					"textcolor" : [ 0.0, 0.0, 0.0, 1.0 ],
					"numinlets" : 1,
					"bordercolor" : [ 0.5, 0.5, 0.5, 1.0 ],
					"maximum" : "<none>",
					"patching_rect" : [ 386.0, 232.0, 50.0, 18.0 ],
					"htricolor" : [ 0.87, 0.82, 0.24, 1.0 ],
					"triangle" : 1,
					"presentation" : 0,
					"id" : "obj-42",
					"fontname" : "Arial",
					"bgcolor" : [ 1.0, 1.0, 1.0, 1.0 ],
					"numoutlets" : 2,
					"cantchange" : 0,
					"hbgcolor" : [ 0.0, 0.0, 0.0, 1.0 ],
					"tricolor" : [ 0.75, 0.75, 0.75, 1.0 ],
					"outlettype" : [ "int", "bang" ],
					"triscale" : 1.0,
					"htextcolor" : [ 1.0, 1.0, 1.0, 1.0 ],
					"background" : 0,
					"mouseup" : 0,
					"fontface" : 0
				}

			}
, 			{
				"box" : 				{
					"maxclass" : "newobj",
					"text" : "VideoDifference",
					"fontsize" : 10.0,
					"presentation_rect" : [ 0.0, 0.0, 0.0, 0.0 ],
					"ignoreclick" : 0,
					"hidden" : 0,
					"textcolor" : [ 0.0, 0.0, 0.0, 1.0 ],
					"numinlets" : 0,
					"patching_rect" : [ 400.0, 165.0, 82.0, 18.0 ],
					"presentation" : 0,
					"id" : "obj-36",
					"fontname" : "Arial",
					"bgcolor" : [ 1.0, 1.0, 1.0, 1.0 ],
					"numoutlets" : 1,
					"outlettype" : [ "int" ],
					"background" : 0,
					"color" : [ 0.8, 0.84, 0.71, 1.0 ],
					"fontface" : 0
				}

			}
, 			{
				"box" : 				{
					"maxclass" : "newobj",
					"text" : "noteout",
					"fontsize" : 10.0,
					"presentation_rect" : [ 0.0, 0.0, 0.0, 0.0 ],
					"ignoreclick" : 0,
					"hidden" : 0,
					"textcolor" : [ 0.0, 0.0, 0.0, 1.0 ],
					"numinlets" : 3,
					"patching_rect" : [ 164.0, 542.0, 46.0, 18.0 ],
					"presentation" : 0,
					"id" : "obj-32",
					"fontname" : "Arial",
					"bgcolor" : [ 1.0, 1.0, 1.0, 1.0 ],
					"numoutlets" : 0,
					"background" : 0,
					"color" : [ 0.8, 0.84, 0.71, 1.0 ],
					"fontface" : 0
				}

			}
, 			{
				"box" : 				{
					"maxclass" : "newobj",
					"text" : "scale 0 300 280 40",
					"fontsize" : 10.0,
					"presentation_rect" : [ 0.0, 0.0, 0.0, 0.0 ],
					"ignoreclick" : 0,
					"hidden" : 0,
					"textcolor" : [ 0.0, 0.0, 0.0, 1.0 ],
					"numinlets" : 6,
					"patching_rect" : [ 232.0, 152.0, 95.0, 18.0 ],
					"presentation" : 0,
					"id" : "obj-29",
					"fontname" : "Arial",
					"bgcolor" : [ 1.0, 1.0, 1.0, 1.0 ],
					"numoutlets" : 1,
					"outlettype" : [ "int" ],
					"background" : 0,
					"color" : [ 0.8, 0.84, 0.71, 1.0 ],
					"fontface" : 0
				}

			}
, 			{
				"box" : 				{
					"maxclass" : "toggle",
					"presentation_rect" : [ 0.0, 0.0, 0.0, 0.0 ],
					"ignoreclick" : 0,
					"checkedcolor" : [ 0.0, 0.0, 0.0, 1.0 ],
					"hidden" : 0,
					"numinlets" : 1,
					"bordercolor" : [ 0.5, 0.5, 0.5, 1.0 ],
					"patching_rect" : [ 15.0, 476.0, 20.0, 20.0 ],
					"presentation" : 0,
					"id" : "obj-35",
					"bgcolor" : [ 1.0, 1.0, 1.0, 1.0 ],
					"numoutlets" : 1,
					"outlettype" : [ "int" ],
					"background" : 0
				}

			}
, 			{
				"box" : 				{
					"maxclass" : "newobj",
					"text" : "gate",
					"fontsize" : 10.0,
					"presentation_rect" : [ 0.0, 0.0, 0.0, 0.0 ],
					"ignoreclick" : 0,
					"hidden" : 0,
					"textcolor" : [ 0.0, 0.0, 0.0, 1.0 ],
					"numinlets" : 2,
					"patching_rect" : [ 14.0, 501.0, 32.5, 18.0 ],
					"presentation" : 0,
					"id" : "obj-34",
					"fontname" : "Arial",
					"bgcolor" : [ 1.0, 1.0, 1.0, 1.0 ],
					"numoutlets" : 1,
					"outlettype" : [ "" ],
					"background" : 0,
					"color" : [ 0.8, 0.84, 0.71, 1.0 ],
					"fontface" : 0
				}

			}
, 			{
				"box" : 				{
					"maxclass" : "newobj",
					"text" : "print midi",
					"fontsize" : 10.0,
					"presentation_rect" : [ 0.0, 0.0, 0.0, 0.0 ],
					"ignoreclick" : 0,
					"hidden" : 0,
					"textcolor" : [ 0.0, 0.0, 0.0, 1.0 ],
					"numinlets" : 1,
					"patching_rect" : [ 14.0, 530.0, 51.0, 18.0 ],
					"presentation" : 0,
					"id" : "obj-33",
					"fontname" : "Arial",
					"bgcolor" : [ 1.0, 1.0, 1.0, 1.0 ],
					"numoutlets" : 0,
					"background" : 0,
					"color" : [ 0.8, 0.84, 0.71, 1.0 ],
					"fontface" : 0
				}

			}
, 			{
				"box" : 				{
					"maxclass" : "number",
					"fontsize" : 10.0,
					"format" : 0,
					"presentation_rect" : [ 0.0, 0.0, 0.0, 0.0 ],
					"ignoreclick" : 0,
					"minimum" : "<none>",
					"outputonclick" : 0,
					"hidden" : 0,
					"textcolor" : [ 0.0, 0.0, 0.0, 1.0 ],
					"numinlets" : 1,
					"bordercolor" : [ 0.5, 0.5, 0.5, 1.0 ],
					"maximum" : "<none>",
					"patching_rect" : [ 232.0, 118.0, 50.0, 18.0 ],
					"htricolor" : [ 0.87, 0.82, 0.24, 1.0 ],
					"triangle" : 1,
					"presentation" : 0,
					"id" : "obj-30",
					"fontname" : "Arial",
					"bgcolor" : [ 1.0, 1.0, 1.0, 1.0 ],
					"numoutlets" : 2,
					"cantchange" : 0,
					"hbgcolor" : [ 0.0, 0.0, 0.0, 1.0 ],
					"tricolor" : [ 0.75, 0.75, 0.75, 1.0 ],
					"outlettype" : [ "int", "bang" ],
					"triscale" : 1.0,
					"htextcolor" : [ 1.0, 1.0, 1.0, 1.0 ],
					"background" : 0,
					"mouseup" : 0,
					"fontface" : 0
				}

			}
, 			{
				"box" : 				{
					"maxclass" : "newobj",
					"text" : "SingleSensorInputCount",
					"fontsize" : 10.0,
					"presentation_rect" : [ 0.0, 0.0, 0.0, 0.0 ],
					"ignoreclick" : 0,
					"hidden" : 0,
					"textcolor" : [ 0.0, 0.0, 0.0, 1.0 ],
					"numinlets" : 0,
					"patching_rect" : [ 182.0, 79.0, 119.0, 18.0 ],
					"presentation" : 0,
					"id" : "obj-25",
					"fontname" : "Arial",
					"bgcolor" : [ 1.0, 1.0, 1.0, 1.0 ],
					"numoutlets" : 3,
					"outlettype" : [ "bang", "int", "int" ],
					"background" : 0,
					"color" : [ 0.8, 0.84, 0.71, 1.0 ],
					"fontface" : 0
				}

			}
, 			{
				"box" : 				{
					"maxclass" : "comment",
					"text" : "3",
					"fontsize" : 11.595187,
					"presentation_rect" : [ 0.0, 0.0, 0.0, 0.0 ],
					"ignoreclick" : 1,
					"hidden" : 0,
					"underline" : 0,
					"textcolor" : [ 0.0, 0.0, 0.0, 1.0 ],
					"numinlets" : 1,
					"frgb" : [ 0.0, 0.0, 0.0, 1.0 ],
					"patching_rect" : [ 118.0, 187.0, 19.0, 20.0 ],
					"presentation" : 0,
					"id" : "obj-24",
					"fontname" : "Arial",
					"bgcolor" : [ 1.0, 1.0, 1.0, 0.0 ],
					"numoutlets" : 0,
					"background" : 0,
					"fontface" : 0
				}

			}
, 			{
				"box" : 				{
					"maxclass" : "comment",
					"text" : "1",
					"fontsize" : 11.595187,
					"presentation_rect" : [ 0.0, 0.0, 0.0, 0.0 ],
					"ignoreclick" : 1,
					"hidden" : 0,
					"underline" : 0,
					"textcolor" : [ 0.0, 0.0, 0.0, 1.0 ],
					"numinlets" : 1,
					"frgb" : [ 0.0, 0.0, 0.0, 1.0 ],
					"patching_rect" : [ 20.0, 187.0, 19.0, 20.0 ],
					"presentation" : 0,
					"id" : "obj-5",
					"fontname" : "Arial",
					"bgcolor" : [ 1.0, 1.0, 1.0, 0.0 ],
					"numoutlets" : 0,
					"background" : 0,
					"fontface" : 0
				}

			}
, 			{
				"box" : 				{
					"maxclass" : "message",
					"text" : "tick",
					"fontsize" : 11.595187,
					"bgcolor2" : [ 0.867, 0.867, 0.867, 1.0 ],
					"presentation_rect" : [ 0.0, 0.0, 0.0, 0.0 ],
					"ignoreclick" : 0,
					"gradient" : 0,
					"hidden" : 0,
					"textcolor" : [ 0.0, 0.0, 0.0, 1.0 ],
					"numinlets" : 2,
					"patching_rect" : [ 203.0, 292.0, 50.0, 18.0 ],
					"presentation" : 0,
					"id" : "obj-23",
					"fontname" : "Arial",
					"bgcolor" : [ 0.867, 0.867, 0.867, 1.0 ],
					"numoutlets" : 1,
					"outlettype" : [ "" ],
					"background" : 0,
					"fontface" : 0
				}

			}
, 			{
				"box" : 				{
					"maxclass" : "button",
					"presentation_rect" : [ 0.0, 0.0, 0.0, 0.0 ],
					"ignoreclick" : 0,
					"hidden" : 0,
					"numinlets" : 1,
					"patching_rect" : [ 203.0, 262.0, 20.0, 20.0 ],
					"blinkcolor" : [ 1.0, 0.890196, 0.090196, 1.0 ],
					"outlinecolor" : [ 0.71328, 0.71328, 0.71328, 1.0 ],
					"presentation" : 0,
					"id" : "obj-22",
					"bgcolor" : [ 0.91328, 0.91328, 0.91328, 0.75 ],
					"numoutlets" : 1,
					"fgcolor" : [ 1.0, 1.0, 1.0, 1.0 ],
					"outlettype" : [ "bang" ],
					"background" : 0
				}

			}
, 			{
				"box" : 				{
					"maxclass" : "newobj",
					"text" : "tempo 120 1 96",
					"fontsize" : 11.595187,
					"presentation_rect" : [ 0.0, 0.0, 0.0, 0.0 ],
					"ignoreclick" : 0,
					"hidden" : 0,
					"textcolor" : [ 0.0, 0.0, 0.0, 1.0 ],
					"numinlets" : 4,
					"patching_rect" : [ 203.0, 232.0, 105.0, 20.0 ],
					"presentation" : 0,
					"id" : "obj-21",
					"fontname" : "Arial",
					"bgcolor" : [ 1.0, 1.0, 1.0, 1.0 ],
					"numoutlets" : 1,
					"outlettype" : [ "int" ],
					"background" : 0,
					"color" : [ 0.0, 0.768627, 0.019608, 1.0 ],
					"fontface" : 0
				}

			}
, 			{
				"box" : 				{
					"maxclass" : "number",
					"fontsize" : 11.595187,
					"format" : 0,
					"presentation_rect" : [ 0.0, 0.0, 0.0, 0.0 ],
					"ignoreclick" : 0,
					"minimum" : "<none>",
					"outputonclick" : 0,
					"hidden" : 0,
					"textcolor" : [ 0.0, 0.0, 0.0, 1.0 ],
					"numinlets" : 1,
					"bordercolor" : [ 0.5, 0.5, 0.5, 1.0 ],
					"maximum" : "<none>",
					"patching_rect" : [ 232.0, 187.0, 50.0, 20.0 ],
					"htricolor" : [ 0.87, 0.82, 0.24, 1.0 ],
					"triangle" : 1,
					"presentation" : 0,
					"id" : "obj-20",
					"fontname" : "Arial",
					"bgcolor" : [ 1.0, 1.0, 1.0, 1.0 ],
					"numoutlets" : 2,
					"cantchange" : 0,
					"hbgcolor" : [ 0.0, 0.0, 0.0, 1.0 ],
					"tricolor" : [ 0.75, 0.75, 0.75, 1.0 ],
					"outlettype" : [ "int", "bang" ],
					"triscale" : 1.0,
					"htextcolor" : [ 1.0, 1.0, 1.0, 1.0 ],
					"background" : 0,
					"mouseup" : 0,
					"fontface" : 0
				}

			}
, 			{
				"box" : 				{
					"maxclass" : "toggle",
					"presentation_rect" : [ 0.0, 0.0, 0.0, 0.0 ],
					"ignoreclick" : 0,
					"checkedcolor" : [ 0.0, 0.0, 0.0, 1.0 ],
					"hidden" : 0,
					"numinlets" : 1,
					"bordercolor" : [ 0.5, 0.5, 0.5, 1.0 ],
					"patching_rect" : [ 203.0, 187.0, 20.0, 20.0 ],
					"presentation" : 0,
					"id" : "obj-19",
					"bgcolor" : [ 1.0, 1.0, 1.0, 1.0 ],
					"numoutlets" : 1,
					"outlettype" : [ "int" ],
					"background" : 0
				}

			}
, 			{
				"box" : 				{
					"maxclass" : "message",
					"text" : "start -1",
					"fontsize" : 11.595187,
					"bgcolor2" : [ 0.867, 0.867, 0.867, 1.0 ],
					"presentation_rect" : [ 0.0, 0.0, 0.0, 0.0 ],
					"ignoreclick" : 0,
					"gradient" : 0,
					"hidden" : 0,
					"textcolor" : [ 0.0, 0.0, 0.0, 1.0 ],
					"numinlets" : 2,
					"patching_rect" : [ 143.0, 187.0, 50.0, 18.0 ],
					"presentation" : 0,
					"id" : "obj-18",
					"fontname" : "Arial",
					"bgcolor" : [ 0.867, 0.867, 0.867, 1.0 ],
					"numoutlets" : 1,
					"outlettype" : [ "" ],
					"background" : 0,
					"fontface" : 0
				}

			}
, 			{
				"box" : 				{
					"maxclass" : "button",
					"presentation_rect" : [ 0.0, 0.0, 0.0, 0.0 ],
					"ignoreclick" : 0,
					"hidden" : 0,
					"numinlets" : 1,
					"patching_rect" : [ 166.0, 380.0, 45.0, 45.0 ],
					"blinkcolor" : [ 1.0, 0.890196, 0.090196, 1.0 ],
					"outlinecolor" : [ 0.71328, 0.71328, 0.71328, 1.0 ],
					"presentation" : 0,
					"id" : "obj-10",
					"bgcolor" : [ 0.91328, 0.91328, 0.91328, 0.75 ],
					"numoutlets" : 1,
					"fgcolor" : [ 1.0, 1.0, 1.0, 1.0 ],
					"outlettype" : [ "bang" ],
					"background" : 0
				}

			}
, 			{
				"box" : 				{
					"maxclass" : "button",
					"presentation_rect" : [ 0.0, 0.0, 0.0, 0.0 ],
					"ignoreclick" : 0,
					"hidden" : 0,
					"numinlets" : 1,
					"patching_rect" : [ 16.0, 352.0, 20.0, 20.0 ],
					"blinkcolor" : [ 1.0, 0.890196, 0.090196, 1.0 ],
					"outlinecolor" : [ 0.71328, 0.71328, 0.71328, 1.0 ],
					"presentation" : 0,
					"id" : "obj-9",
					"bgcolor" : [ 0.91328, 0.91328, 0.91328, 0.75 ],
					"numoutlets" : 1,
					"fgcolor" : [ 1.0, 1.0, 1.0, 1.0 ],
					"outlettype" : [ "bang" ],
					"background" : 0
				}

			}
, 			{
				"box" : 				{
					"maxclass" : "newobj",
					"text" : "midiflush",
					"fontsize" : 11.595187,
					"presentation_rect" : [ 0.0, 0.0, 0.0, 0.0 ],
					"ignoreclick" : 0,
					"hidden" : 0,
					"textcolor" : [ 0.0, 0.0, 0.0, 1.0 ],
					"numinlets" : 1,
					"patching_rect" : [ 46.0, 382.0, 100.0, 20.0 ],
					"presentation" : 0,
					"id" : "obj-8",
					"fontname" : "Arial",
					"bgcolor" : [ 1.0, 1.0, 1.0, 1.0 ],
					"numoutlets" : 1,
					"outlettype" : [ "int" ],
					"background" : 0,
					"color" : [ 0.0, 0.768627, 0.019608, 1.0 ],
					"fontface" : 0
				}

			}
, 			{
				"box" : 				{
					"maxclass" : "message",
					"text" : "stop",
					"fontsize" : 11.595187,
					"bgcolor2" : [ 0.867, 0.867, 0.867, 1.0 ],
					"presentation_rect" : [ 0.0, 0.0, 0.0, 0.0 ],
					"ignoreclick" : 0,
					"gradient" : 0,
					"hidden" : 0,
					"textcolor" : [ 0.0, 0.0, 0.0, 1.0 ],
					"numinlets" : 2,
					"patching_rect" : [ 66.0, 248.0, 50.0, 18.0 ],
					"presentation" : 0,
					"id" : "obj-6",
					"fontname" : "Arial",
					"bgcolor" : [ 0.867, 0.867, 0.867, 1.0 ],
					"numoutlets" : 1,
					"outlettype" : [ "" ],
					"background" : 0,
					"fontface" : 0
				}

			}
, 			{
				"box" : 				{
					"maxclass" : "newobj",
					"text" : "midiout",
					"fontsize" : 11.595187,
					"presentation_rect" : [ 0.0, 0.0, 0.0, 0.0 ],
					"ignoreclick" : 0,
					"hidden" : 0,
					"textcolor" : [ 0.0, 0.0, 0.0, 1.0 ],
					"numinlets" : 1,
					"patching_rect" : [ 45.0, 485.0, 100.0, 20.0 ],
					"presentation" : 0,
					"id" : "obj-4",
					"fontname" : "Arial",
					"bgcolor" : [ 1.0, 1.0, 1.0, 1.0 ],
					"numoutlets" : 0,
					"background" : 0,
					"color" : [ 0.8, 0.84, 0.71, 1.0 ],
					"fontface" : 0
				}

			}
, 			{
				"box" : 				{
					"maxclass" : "message",
					"text" : "start",
					"fontsize" : 11.595187,
					"bgcolor2" : [ 0.867, 0.867, 0.867, 1.0 ],
					"presentation_rect" : [ 0.0, 0.0, 0.0, 0.0 ],
					"ignoreclick" : 0,
					"gradient" : 0,
					"hidden" : 0,
					"textcolor" : [ 0.0, 0.0, 0.0, 1.0 ],
					"numinlets" : 2,
					"patching_rect" : [ 67.0, 220.0, 50.0, 18.0 ],
					"presentation" : 0,
					"id" : "obj-3",
					"fontname" : "Arial",
					"bgcolor" : [ 0.867, 0.867, 0.867, 1.0 ],
					"numoutlets" : 1,
					"outlettype" : [ "" ],
					"background" : 0,
					"fontface" : 0
				}

			}
, 			{
				"box" : 				{
					"maxclass" : "button",
					"presentation_rect" : [ 0.0, 0.0, 0.0, 0.0 ],
					"ignoreclick" : 0,
					"hidden" : 0,
					"numinlets" : 1,
					"patching_rect" : [ 46.0, 188.0, 20.0, 20.0 ],
					"blinkcolor" : [ 1.0, 0.890196, 0.090196, 1.0 ],
					"outlinecolor" : [ 0.71328, 0.71328, 0.71328, 1.0 ],
					"presentation" : 0,
					"id" : "obj-2",
					"bgcolor" : [ 0.91328, 0.91328, 0.91328, 0.75 ],
					"numoutlets" : 1,
					"fgcolor" : [ 1.0, 1.0, 1.0, 1.0 ],
					"outlettype" : [ "bang" ],
					"background" : 0
				}

			}
, 			{
				"box" : 				{
					"maxclass" : "newobj",
					"text" : "seq Piccolo.mid",
					"fontsize" : 11.595187,
					"presentation_rect" : [ 0.0, 0.0, 0.0, 0.0 ],
					"ignoreclick" : 0,
					"hidden" : 0,
					"textcolor" : [ 0.0, 0.0, 0.0, 1.0 ],
					"numinlets" : 1,
					"patching_rect" : [ 46.0, 351.0, 92.0, 20.0 ],
					"presentation" : 0,
					"id" : "obj-1",
					"fontname" : "Arial",
					"bgcolor" : [ 1.0, 1.0, 1.0, 1.0 ],
					"numoutlets" : 2,
					"outlettype" : [ "int", "bang" ],
					"background" : 0,
					"color" : [ 0.0, 0.768627, 0.019608, 1.0 ],
					"fontface" : 0
				}

			}
 ],
		"lines" : [ 			{
				"patchline" : 				{
					"source" : [ "obj-10", 0 ],
					"destination" : [ "obj-18", 0 ],
					"hidden" : 0,
					"color" : [ 0.0, 0.0, 0.0, 1.0 ],
					"midpoints" : [  ]
				}

			}
, 			{
				"patchline" : 				{
					"source" : [ "obj-36", 0 ],
					"destination" : [ "obj-7", 0 ],
					"hidden" : 0,
					"color" : [ 0.0, 0.0, 0.0, 1.0 ],
					"midpoints" : [  ]
				}

			}
, 			{
				"patchline" : 				{
					"source" : [ "obj-7", 0 ],
					"destination" : [ "obj-42", 0 ],
					"hidden" : 0,
					"color" : [ 0.0, 0.0, 0.0, 1.0 ],
					"midpoints" : [  ]
				}

			}
, 			{
				"patchline" : 				{
					"source" : [ "obj-35", 0 ],
					"destination" : [ "obj-34", 0 ],
					"hidden" : 0,
					"color" : [ 0.0, 0.0, 0.0, 1.0 ],
					"midpoints" : [  ]
				}

			}
, 			{
				"patchline" : 				{
					"source" : [ "obj-34", 0 ],
					"destination" : [ "obj-33", 0 ],
					"hidden" : 0,
					"color" : [ 0.0, 0.0, 0.0, 1.0 ],
					"midpoints" : [  ]
				}

			}
, 			{
				"patchline" : 				{
					"source" : [ "obj-8", 0 ],
					"destination" : [ "obj-34", 1 ],
					"hidden" : 0,
					"color" : [ 0.0, 0.0, 0.0, 1.0 ],
					"midpoints" : [ 55.5, 402.0, 37.0, 402.0 ]
				}

			}
, 			{
				"patchline" : 				{
					"source" : [ "obj-25", 1 ],
					"destination" : [ "obj-30", 0 ],
					"hidden" : 0,
					"color" : [ 0.0, 0.0, 0.0, 1.0 ],
					"midpoints" : [  ]
				}

			}
, 			{
				"patchline" : 				{
					"source" : [ "obj-9", 0 ],
					"destination" : [ "obj-8", 0 ],
					"hidden" : 0,
					"color" : [ 0.0, 0.0, 0.0, 1.0 ],
					"midpoints" : [ 25.5, 378.0, 55.5, 378.0 ]
				}

			}
, 			{
				"patchline" : 				{
					"source" : [ "obj-6", 0 ],
					"destination" : [ "obj-9", 0 ],
					"hidden" : 0,
					"color" : [ 0.0, 0.0, 0.0, 1.0 ],
					"midpoints" : [ 75.5, 336.0, 25.5, 336.0 ]
				}

			}
, 			{
				"patchline" : 				{
					"source" : [ "obj-22", 0 ],
					"destination" : [ "obj-23", 0 ],
					"hidden" : 0,
					"color" : [ 0.0, 0.0, 0.0, 1.0 ],
					"midpoints" : [  ]
				}

			}
, 			{
				"patchline" : 				{
					"source" : [ "obj-19", 0 ],
					"destination" : [ "obj-21", 0 ],
					"hidden" : 0,
					"color" : [ 0.0, 0.0, 0.0, 1.0 ],
					"midpoints" : [  ]
				}

			}
, 			{
				"patchline" : 				{
					"source" : [ "obj-20", 0 ],
					"destination" : [ "obj-21", 1 ],
					"hidden" : 0,
					"color" : [ 0.0, 0.0, 0.0, 1.0 ],
					"midpoints" : [  ]
				}

			}
, 			{
				"patchline" : 				{
					"source" : [ "obj-21", 0 ],
					"destination" : [ "obj-22", 0 ],
					"hidden" : 0,
					"color" : [ 0.0, 0.0, 0.0, 1.0 ],
					"midpoints" : [  ]
				}

			}
, 			{
				"patchline" : 				{
					"source" : [ "obj-2", 0 ],
					"destination" : [ "obj-1", 0 ],
					"hidden" : 0,
					"color" : [ 0.0, 0.0, 0.0, 1.0 ],
					"midpoints" : [  ]
				}

			}
, 			{
				"patchline" : 				{
					"source" : [ "obj-1", 0 ],
					"destination" : [ "obj-8", 0 ],
					"hidden" : 0,
					"color" : [ 0.0, 0.0, 0.0, 1.0 ],
					"midpoints" : [  ]
				}

			}
, 			{
				"patchline" : 				{
					"source" : [ "obj-1", 1 ],
					"destination" : [ "obj-10", 0 ],
					"hidden" : 0,
					"color" : [ 0.0, 0.0, 0.0, 1.0 ],
					"midpoints" : [ 128.5, 377.0, 175.5, 377.0 ]
				}

			}
, 			{
				"patchline" : 				{
					"source" : [ "obj-3", 0 ],
					"destination" : [ "obj-1", 0 ],
					"hidden" : 0,
					"color" : [ 0.0, 0.0, 0.0, 1.0 ],
					"midpoints" : [ 76.5, 240.0, 51.0, 240.0, 51.0, 348.0, 55.5, 348.0 ]
				}

			}
, 			{
				"patchline" : 				{
					"source" : [ "obj-6", 0 ],
					"destination" : [ "obj-1", 0 ],
					"hidden" : 0,
					"color" : [ 0.0, 0.0, 0.0, 1.0 ],
					"midpoints" : [ 75.5, 336.0, 55.5, 336.0 ]
				}

			}
, 			{
				"patchline" : 				{
					"source" : [ "obj-18", 0 ],
					"destination" : [ "obj-1", 0 ],
					"hidden" : 0,
					"color" : [ 0.0, 0.0, 0.0, 1.0 ],
					"midpoints" : [ 152.5, 337.0, 55.5, 337.0 ]
				}

			}
, 			{
				"patchline" : 				{
					"source" : [ "obj-23", 0 ],
					"destination" : [ "obj-1", 0 ],
					"hidden" : 0,
					"color" : [ 0.0, 0.0, 0.0, 1.0 ],
					"midpoints" : [ 212.5, 337.0, 55.5, 337.0 ]
				}

			}
, 			{
				"patchline" : 				{
					"source" : [ "obj-8", 0 ],
					"destination" : [ "obj-4", 0 ],
					"hidden" : 0,
					"color" : [ 0.0, 0.0, 0.0, 1.0 ],
					"midpoints" : [  ]
				}

			}
, 			{
				"patchline" : 				{
					"source" : [ "obj-30", 0 ],
					"destination" : [ "obj-29", 0 ],
					"hidden" : 0,
					"color" : [ 0.0, 0.0, 0.0, 1.0 ],
					"midpoints" : [  ]
				}

			}
, 			{
				"patchline" : 				{
					"source" : [ "obj-29", 0 ],
					"destination" : [ "obj-20", 0 ],
					"hidden" : 0,
					"color" : [ 0.0, 0.0, 0.0, 1.0 ],
					"midpoints" : [  ]
				}

			}
, 			{
				"patchline" : 				{
					"source" : [ "obj-42", 0 ],
					"destination" : [ "obj-43", 0 ],
					"hidden" : 0,
					"color" : [ 0.0, 0.0, 0.0, 1.0 ],
					"midpoints" : [  ]
				}

			}
, 			{
				"patchline" : 				{
					"source" : [ "obj-44", 0 ],
					"destination" : [ "obj-43", 1 ],
					"hidden" : 0,
					"color" : [ 0.0, 0.0, 0.0, 1.0 ],
					"midpoints" : [  ]
				}

			}
, 			{
				"patchline" : 				{
					"source" : [ "obj-45", 0 ],
					"destination" : [ "obj-43", 2 ],
					"hidden" : 0,
					"color" : [ 0.0, 0.0, 0.0, 1.0 ],
					"midpoints" : [  ]
				}

			}
 ]
	}

}
