{
	"patcher" : 	{
		"fileversion" : 1,
		"rect" : [ 317.0, 44.0, 914.0, 641.0 ],
		"bglocked" : 0,
		"defrect" : [ 317.0, 44.0, 914.0, 641.0 ],
		"openrect" : [ 0.0, 0.0, 0.0, 0.0 ],
		"openinpresentation" : 0,
		"default_fontsize" : 12.0,
		"default_fontface" : 0,
		"default_fontname" : "Arial",
		"gridonopen" : 0,
		"gridsize" : [ 15.0, 15.0 ],
		"gridsnaponopen" : 0,
		"toolbarvisible" : 1,
		"boxanimatetime" : 200,
		"imprint" : 0,
		"metadata" : [  ],
		"boxes" : [ 			{
				"box" : 				{
					"maxclass" : "outlet",
					"patching_rect" : [ 742.0, 564.0, 25.0, 25.0 ],
					"id" : "obj-71",
					"numinlets" : 1,
					"numoutlets" : 0,
					"comment" : "Sensor14"
				}

			}
, 			{
				"box" : 				{
					"maxclass" : "outlet",
					"patching_rect" : [ 802.0, 564.0, 25.0, 25.0 ],
					"id" : "obj-70",
					"numinlets" : 1,
					"numoutlets" : 0,
					"comment" : "Sensor16"
				}

			}
, 			{
				"box" : 				{
					"maxclass" : "outlet",
					"patching_rect" : [ 773.0, 564.0, 25.0, 25.0 ],
					"id" : "obj-69",
					"numinlets" : 1,
					"numoutlets" : 0,
					"comment" : "Sensor15"
				}

			}
, 			{
				"box" : 				{
					"maxclass" : "outlet",
					"patching_rect" : [ 710.0, 564.0, 25.0, 25.0 ],
					"id" : "obj-68",
					"numinlets" : 1,
					"numoutlets" : 0,
					"comment" : "Sensor13"
				}

			}
, 			{
				"box" : 				{
					"maxclass" : "outlet",
					"patching_rect" : [ 678.0, 564.0, 25.0, 25.0 ],
					"id" : "obj-67",
					"numinlets" : 1,
					"numoutlets" : 0,
					"comment" : "Sensor12"
				}

			}
, 			{
				"box" : 				{
					"maxclass" : "outlet",
					"patching_rect" : [ 645.0, 563.0, 25.0, 25.0 ],
					"id" : "obj-66",
					"numinlets" : 1,
					"numoutlets" : 0,
					"comment" : "Sensor11"
				}

			}
, 			{
				"box" : 				{
					"maxclass" : "outlet",
					"patching_rect" : [ 615.0, 563.0, 25.0, 25.0 ],
					"id" : "obj-65",
					"numinlets" : 1,
					"numoutlets" : 0,
					"comment" : "Sensor10"
				}

			}
, 			{
				"box" : 				{
					"maxclass" : "outlet",
					"patching_rect" : [ 585.0, 562.0, 25.0, 25.0 ],
					"id" : "obj-64",
					"numinlets" : 1,
					"numoutlets" : 0,
					"comment" : "Sensor9"
				}

			}
, 			{
				"box" : 				{
					"maxclass" : "outlet",
					"patching_rect" : [ 554.0, 561.0, 25.0, 25.0 ],
					"id" : "obj-63",
					"numinlets" : 1,
					"numoutlets" : 0,
					"comment" : "Sensor8"
				}

			}
, 			{
				"box" : 				{
					"maxclass" : "outlet",
					"patching_rect" : [ 227.0, 543.0, 25.0, 25.0 ],
					"id" : "obj-62",
					"numinlets" : 1,
					"numoutlets" : 0,
					"comment" : "Sensor7"
				}

			}
, 			{
				"box" : 				{
					"maxclass" : "outlet",
					"patching_rect" : [ 194.0, 542.0, 25.0, 25.0 ],
					"id" : "obj-61",
					"numinlets" : 1,
					"numoutlets" : 0,
					"comment" : "Sensor6"
				}

			}
, 			{
				"box" : 				{
					"maxclass" : "outlet",
					"patching_rect" : [ 163.0, 541.0, 25.0, 25.0 ],
					"id" : "obj-60",
					"numinlets" : 1,
					"numoutlets" : 0,
					"comment" : "Sensor5"
				}

			}
, 			{
				"box" : 				{
					"maxclass" : "outlet",
					"patching_rect" : [ 132.0, 541.0, 25.0, 25.0 ],
					"id" : "obj-59",
					"numinlets" : 1,
					"numoutlets" : 0,
					"comment" : "Sensor4"
				}

			}
, 			{
				"box" : 				{
					"maxclass" : "outlet",
					"patching_rect" : [ 101.0, 542.0, 25.0, 25.0 ],
					"id" : "obj-58",
					"numinlets" : 1,
					"numoutlets" : 0,
					"comment" : "Sensor3"
				}

			}
, 			{
				"box" : 				{
					"maxclass" : "outlet",
					"patching_rect" : [ 69.0, 541.0, 25.0, 25.0 ],
					"id" : "obj-57",
					"numinlets" : 1,
					"numoutlets" : 0,
					"comment" : "Sensor2"
				}

			}
, 			{
				"box" : 				{
					"maxclass" : "number",
					"outlettype" : [ "int", "bang" ],
					"fontsize" : 11.595187,
					"patching_rect" : [ 853.0, 463.0, 50.0, 20.0 ],
					"id" : "obj-53",
					"numinlets" : 1,
					"fontname" : "Arial",
					"numoutlets" : 2
				}

			}
, 			{
				"box" : 				{
					"maxclass" : "number",
					"outlettype" : [ "int", "bang" ],
					"fontsize" : 11.595187,
					"patching_rect" : [ 799.0, 464.0, 50.0, 20.0 ],
					"id" : "obj-52",
					"numinlets" : 1,
					"fontname" : "Arial",
					"numoutlets" : 2
				}

			}
, 			{
				"box" : 				{
					"maxclass" : "number",
					"outlettype" : [ "int", "bang" ],
					"fontsize" : 11.595187,
					"patching_rect" : [ 744.0, 464.0, 50.0, 20.0 ],
					"id" : "obj-51",
					"numinlets" : 1,
					"fontname" : "Arial",
					"numoutlets" : 2
				}

			}
, 			{
				"box" : 				{
					"maxclass" : "number",
					"outlettype" : [ "int", "bang" ],
					"fontsize" : 11.595187,
					"patching_rect" : [ 693.0, 462.0, 50.0, 20.0 ],
					"id" : "obj-50",
					"numinlets" : 1,
					"fontname" : "Arial",
					"numoutlets" : 2
				}

			}
, 			{
				"box" : 				{
					"maxclass" : "number",
					"outlettype" : [ "int", "bang" ],
					"fontsize" : 11.595187,
					"patching_rect" : [ 640.0, 465.0, 50.0, 20.0 ],
					"id" : "obj-11",
					"numinlets" : 1,
					"fontname" : "Arial",
					"numoutlets" : 2
				}

			}
, 			{
				"box" : 				{
					"maxclass" : "number",
					"outlettype" : [ "int", "bang" ],
					"fontsize" : 11.595187,
					"patching_rect" : [ 586.0, 462.0, 50.0, 20.0 ],
					"id" : "obj-18",
					"numinlets" : 1,
					"fontname" : "Arial",
					"numoutlets" : 2
				}

			}
, 			{
				"box" : 				{
					"maxclass" : "number",
					"outlettype" : [ "int", "bang" ],
					"fontsize" : 11.595187,
					"patching_rect" : [ 531.0, 459.0, 50.0, 20.0 ],
					"id" : "obj-47",
					"numinlets" : 1,
					"fontname" : "Arial",
					"numoutlets" : 2
				}

			}
, 			{
				"box" : 				{
					"maxclass" : "number",
					"outlettype" : [ "int", "bang" ],
					"fontsize" : 11.595187,
					"patching_rect" : [ 477.0, 458.0, 50.0, 20.0 ],
					"id" : "obj-20",
					"numinlets" : 1,
					"fontname" : "Arial",
					"numoutlets" : 2
				}

			}
, 			{
				"box" : 				{
					"maxclass" : "number",
					"outlettype" : [ "int", "bang" ],
					"fontsize" : 11.595187,
					"patching_rect" : [ 423.0, 456.0, 50.0, 20.0 ],
					"id" : "obj-45",
					"numinlets" : 1,
					"fontname" : "Arial",
					"numoutlets" : 2
				}

			}
, 			{
				"box" : 				{
					"maxclass" : "number",
					"outlettype" : [ "int", "bang" ],
					"fontsize" : 11.595187,
					"patching_rect" : [ 366.0, 457.0, 50.0, 20.0 ],
					"id" : "obj-44",
					"numinlets" : 1,
					"fontname" : "Arial",
					"numoutlets" : 2
				}

			}
, 			{
				"box" : 				{
					"maxclass" : "number",
					"outlettype" : [ "int", "bang" ],
					"fontsize" : 11.595187,
					"patching_rect" : [ 311.0, 456.0, 50.0, 20.0 ],
					"id" : "obj-43",
					"numinlets" : 1,
					"fontname" : "Arial",
					"numoutlets" : 2
				}

			}
, 			{
				"box" : 				{
					"maxclass" : "number",
					"outlettype" : [ "int", "bang" ],
					"fontsize" : 11.595187,
					"patching_rect" : [ 258.0, 457.0, 50.0, 20.0 ],
					"id" : "obj-26",
					"numinlets" : 1,
					"fontname" : "Arial",
					"numoutlets" : 2
				}

			}
, 			{
				"box" : 				{
					"maxclass" : "number",
					"outlettype" : [ "int", "bang" ],
					"fontsize" : 11.595187,
					"patching_rect" : [ 202.0, 457.0, 50.0, 20.0 ],
					"id" : "obj-22",
					"numinlets" : 1,
					"fontname" : "Arial",
					"numoutlets" : 2
				}

			}
, 			{
				"box" : 				{
					"maxclass" : "multislider",
					"outlettype" : [ "", "" ],
					"setminmax" : [ -0.0, 300.0 ],
					"patching_rect" : [ 240.0, 603.0, 453.0, 114.0 ],
					"setstyle" : 1,
					"id" : "obj-24",
					"numinlets" : 1,
					"drawpeaks" : 1,
					"numoutlets" : 2,
					"size" : 17
				}

			}
, 			{
				"box" : 				{
					"maxclass" : "newobj",
					"text" : "pack 0 0 0 0 0 0 0 0 0 0 0 0 0 0 0 0 0",
					"outlettype" : [ "" ],
					"fontsize" : 11.595187,
					"patching_rect" : [ 313.0, 561.0, 235.0, 20.0 ],
					"id" : "obj-27",
					"numinlets" : 17,
					"fontname" : "Arial",
					"numoutlets" : 1
				}

			}
, 			{
				"box" : 				{
					"maxclass" : "number",
					"outlettype" : [ "int", "bang" ],
					"fontsize" : 11.595187,
					"patching_rect" : [ 148.0, 456.0, 50.0, 20.0 ],
					"id" : "obj-31",
					"numinlets" : 1,
					"fontname" : "Arial",
					"numoutlets" : 2
				}

			}
, 			{
				"box" : 				{
					"maxclass" : "number",
					"outlettype" : [ "int", "bang" ],
					"fontsize" : 11.595187,
					"patching_rect" : [ 95.0, 456.0, 50.0, 20.0 ],
					"id" : "obj-54",
					"numinlets" : 1,
					"fontname" : "Arial",
					"numoutlets" : 2
				}

			}
, 			{
				"box" : 				{
					"maxclass" : "number",
					"outlettype" : [ "int", "bang" ],
					"fontsize" : 11.595187,
					"patching_rect" : [ 39.0, 456.0, 50.0, 20.0 ],
					"id" : "obj-55",
					"numinlets" : 1,
					"fontname" : "Arial",
					"numoutlets" : 2
				}

			}
, 			{
				"box" : 				{
					"maxclass" : "newobj",
					"text" : "unpack 0 0 0 0 0 0 0 0 0 0 0 0 0 0 0 0",
					"outlettype" : [ "int", "int", "int", "int", "int", "int", "int", "int", "int", "int", "int", "int", "int", "int", "int", "int" ],
					"fontsize" : 11.595187,
					"patching_rect" : [ 152.0, 414.0, 649.5, 20.0 ],
					"id" : "obj-56",
					"numinlets" : 1,
					"fontname" : "Arial",
					"numoutlets" : 16
				}

			}
, 			{
				"box" : 				{
					"maxclass" : "message",
					"text" : "1",
					"outlettype" : [ "" ],
					"fontsize" : 12.0,
					"patching_rect" : [ 503.0, 136.0, 32.5, 18.0 ],
					"id" : "obj-17",
					"numinlets" : 2,
					"fontname" : "Arial",
					"numoutlets" : 1
				}

			}
, 			{
				"box" : 				{
					"maxclass" : "outlet",
					"patching_rect" : [ 866.0, 259.0, 25.0, 25.0 ],
					"id" : "obj-16",
					"numinlets" : 1,
					"numoutlets" : 0,
					"comment" : "counter output"
				}

			}
, 			{
				"box" : 				{
					"maxclass" : "outlet",
					"patching_rect" : [ 3.0, 312.0, 25.0, 25.0 ],
					"id" : "obj-13",
					"numinlets" : 1,
					"numoutlets" : 0,
					"comment" : "bang in time with arduino polling"
				}

			}
, 			{
				"box" : 				{
					"maxclass" : "newobj",
					"text" : "+ 1",
					"outlettype" : [ "int" ],
					"fontsize" : 12.0,
					"patching_rect" : [ 505.0, 162.0, 32.5, 20.0 ],
					"id" : "obj-12",
					"numinlets" : 2,
					"fontname" : "Arial",
					"numoutlets" : 1
				}

			}
, 			{
				"box" : 				{
					"maxclass" : "number",
					"outlettype" : [ "int", "bang" ],
					"fontsize" : 12.0,
					"patching_rect" : [ 507.0, 229.0, 50.0, 20.0 ],
					"id" : "obj-10",
					"numinlets" : 1,
					"fontname" : "Arial",
					"numoutlets" : 2
				}

			}
, 			{
				"box" : 				{
					"maxclass" : "newobj",
					"text" : "sel 114 32 112 48 57 102 103",
					"outlettype" : [ "bang", "bang", "bang", "bang", "bang", "bang", "bang", "" ],
					"fontsize" : 12.0,
					"patching_rect" : [ 156.0, 45.0, 169.0, 20.0 ],
					"id" : "obj-21",
					"numinlets" : 1,
					"fontname" : "Arial",
					"numoutlets" : 8
				}

			}
, 			{
				"box" : 				{
					"maxclass" : "newobj",
					"text" : "key",
					"outlettype" : [ "int", "int", "int", "int" ],
					"fontsize" : 12.0,
					"patching_rect" : [ 156.0, 15.0, 59.5, 20.0 ],
					"id" : "obj-3",
					"numinlets" : 0,
					"fontname" : "Arial",
					"numoutlets" : 4
				}

			}
, 			{
				"box" : 				{
					"maxclass" : "comment",
					"text" : "0 stops\n arduino",
					"linecount" : 2,
					"fontsize" : 10.0,
					"patching_rect" : [ 253.0, 82.0, 47.0, 29.0 ],
					"id" : "obj-49",
					"numinlets" : 1,
					"fontname" : "Arial",
					"numoutlets" : 0
				}

			}
, 			{
				"box" : 				{
					"maxclass" : "message",
					"text" : "57",
					"outlettype" : [ "" ],
					"fontsize" : 10.0,
					"patching_rect" : [ 300.0, 117.0, 32.5, 16.0 ],
					"id" : "obj-48",
					"numinlets" : 2,
					"fontname" : "Arial",
					"numoutlets" : 1
				}

			}
, 			{
				"box" : 				{
					"maxclass" : "message",
					"text" : "48",
					"outlettype" : [ "" ],
					"fontsize" : 10.0,
					"patching_rect" : [ 229.0, 113.0, 32.5, 16.0 ],
					"id" : "obj-46",
					"numinlets" : 2,
					"fontname" : "Arial",
					"numoutlets" : 1
				}

			}
, 			{
				"box" : 				{
					"maxclass" : "comment",
					"text" : "3",
					"fontsize" : 11.595187,
					"patching_rect" : [ 345.0, 335.0, 19.0, 20.0 ],
					"id" : "obj-42",
					"numinlets" : 1,
					"fontname" : "Arial",
					"numoutlets" : 0
				}

			}
, 			{
				"box" : 				{
					"maxclass" : "comment",
					"text" : "2",
					"fontsize" : 11.595187,
					"patching_rect" : [ 349.0, 222.0, 19.0, 20.0 ],
					"id" : "obj-41",
					"numinlets" : 1,
					"fontname" : "Arial",
					"numoutlets" : 0
				}

			}
, 			{
				"box" : 				{
					"maxclass" : "comment",
					"text" : "1",
					"fontsize" : 11.595187,
					"patching_rect" : [ 72.0, 129.0, 19.0, 20.0 ],
					"id" : "obj-40",
					"numinlets" : 1,
					"fontname" : "Arial",
					"numoutlets" : 0
				}

			}
, 			{
				"box" : 				{
					"maxclass" : "toggle",
					"outlettype" : [ "int" ],
					"patching_rect" : [ 322.0, 336.0, 20.0, 20.0 ],
					"id" : "obj-37",
					"numinlets" : 1,
					"numoutlets" : 1
				}

			}
, 			{
				"box" : 				{
					"maxclass" : "newobj",
					"text" : "print formatted",
					"fontsize" : 11.595187,
					"patching_rect" : [ 325.0, 386.0, 85.0, 20.0 ],
					"id" : "obj-38",
					"numinlets" : 1,
					"fontname" : "Arial",
					"numoutlets" : 0
				}

			}
, 			{
				"box" : 				{
					"maxclass" : "newobj",
					"text" : "gate",
					"outlettype" : [ "" ],
					"fontsize" : 11.595187,
					"patching_rect" : [ 324.0, 362.0, 33.0, 20.0 ],
					"id" : "obj-39",
					"numinlets" : 2,
					"fontname" : "Arial",
					"numoutlets" : 1
				}

			}
, 			{
				"box" : 				{
					"maxclass" : "toggle",
					"outlettype" : [ "int" ],
					"patching_rect" : [ 327.0, 222.0, 20.0, 20.0 ],
					"id" : "obj-34",
					"numinlets" : 1,
					"numoutlets" : 1
				}

			}
, 			{
				"box" : 				{
					"maxclass" : "newobj",
					"text" : "print grouped",
					"fontsize" : 11.595187,
					"patching_rect" : [ 327.0, 283.0, 79.0, 20.0 ],
					"id" : "obj-35",
					"numinlets" : 1,
					"fontname" : "Arial",
					"numoutlets" : 0
				}

			}
, 			{
				"box" : 				{
					"maxclass" : "newobj",
					"text" : "gate",
					"outlettype" : [ "" ],
					"fontsize" : 11.595187,
					"patching_rect" : [ 327.0, 252.0, 33.0, 20.0 ],
					"id" : "obj-36",
					"numinlets" : 2,
					"fontname" : "Arial",
					"numoutlets" : 1
				}

			}
, 			{
				"box" : 				{
					"maxclass" : "toggle",
					"outlettype" : [ "int" ],
					"patching_rect" : [ 48.0, 129.0, 20.0, 20.0 ],
					"id" : "obj-33",
					"numinlets" : 1,
					"numoutlets" : 1
				}

			}
, 			{
				"box" : 				{
					"maxclass" : "newobj",
					"text" : "print raw",
					"fontsize" : 11.595187,
					"patching_rect" : [ 47.0, 187.0, 55.0, 20.0 ],
					"id" : "obj-32",
					"numinlets" : 1,
					"fontname" : "Arial",
					"numoutlets" : 0
				}

			}
, 			{
				"box" : 				{
					"maxclass" : "newobj",
					"text" : "gate",
					"outlettype" : [ "" ],
					"fontsize" : 11.595187,
					"patching_rect" : [ 48.0, 158.0, 33.0, 20.0 ],
					"id" : "obj-25",
					"numinlets" : 2,
					"fontname" : "Arial",
					"numoutlets" : 1
				}

			}
, 			{
				"box" : 				{
					"maxclass" : "number",
					"outlettype" : [ "int", "bang" ],
					"fontsize" : 11.595187,
					"patching_rect" : [ 214.0, 206.0, 50.0, 20.0 ],
					"id" : "obj-23",
					"numinlets" : 1,
					"fontname" : "Arial",
					"numoutlets" : 2
				}

			}
, 			{
				"box" : 				{
					"maxclass" : "comment",
					"text" : "9 starts arduino",
					"linecount" : 2,
					"fontsize" : 11.595187,
					"patching_rect" : [ 332.0, 88.0, 53.0, 33.0 ],
					"id" : "obj-14",
					"numinlets" : 1,
					"fontname" : "Arial",
					"numoutlets" : 0
				}

			}
, 			{
				"box" : 				{
					"maxclass" : "comment",
					"text" : "raw Arduino Output\n",
					"fontsize" : 11.595187,
					"patching_rect" : [ 6.0, 214.0, 112.0, 20.0 ],
					"id" : "obj-15",
					"numinlets" : 1,
					"fontname" : "Arial",
					"numoutlets" : 0
				}

			}
, 			{
				"box" : 				{
					"maxclass" : "newobj",
					"text" : "fromsymbol",
					"outlettype" : [ "" ],
					"fontsize" : 11.595187,
					"patching_rect" : [ 214.0, 343.0, 70.0, 20.0 ],
					"id" : "obj-9",
					"numinlets" : 1,
					"fontname" : "Arial",
					"numoutlets" : 1,
					"color" : [ 0.356863, 0.768627, 0.0, 1.0 ]
				}

			}
, 			{
				"box" : 				{
					"maxclass" : "newobj",
					"text" : "itoa",
					"outlettype" : [ "int" ],
					"fontsize" : 11.595187,
					"patching_rect" : [ 214.0, 312.0, 46.0, 20.0 ],
					"id" : "obj-8",
					"numinlets" : 3,
					"fontname" : "Arial",
					"numoutlets" : 1,
					"color" : [ 0.356863, 0.768627, 0.0, 1.0 ]
				}

			}
, 			{
				"box" : 				{
					"maxclass" : "newobj",
					"text" : "zl group 1000",
					"outlettype" : [ "", "" ],
					"fontsize" : 11.595187,
					"patching_rect" : [ 215.0, 282.0, 81.0, 20.0 ],
					"id" : "obj-7",
					"numinlets" : 2,
					"fontname" : "Arial",
					"numoutlets" : 2
				}

			}
, 			{
				"box" : 				{
					"maxclass" : "toggle",
					"outlettype" : [ "int" ],
					"patching_rect" : [ 138.0, 113.0, 20.0, 20.0 ],
					"id" : "obj-6",
					"numinlets" : 1,
					"numoutlets" : 1
				}

			}
, 			{
				"box" : 				{
					"maxclass" : "newobj",
					"text" : "metro 100",
					"outlettype" : [ "bang" ],
					"fontsize" : 11.595187,
					"patching_rect" : [ 138.0, 141.0, 64.0, 20.0 ],
					"id" : "obj-5",
					"numinlets" : 2,
					"fontname" : "Arial",
					"numoutlets" : 1
				}

			}
, 			{
				"box" : 				{
					"maxclass" : "newobj",
					"text" : "sel 13 10",
					"outlettype" : [ "bang", "bang", "" ],
					"fontsize" : 11.595187,
					"patching_rect" : [ 214.0, 239.0, 58.0, 20.0 ],
					"id" : "obj-4",
					"numinlets" : 1,
					"fontname" : "Arial",
					"numoutlets" : 3
				}

			}
, 			{
				"box" : 				{
					"maxclass" : "message",
					"text" : "print",
					"outlettype" : [ "" ],
					"fontsize" : 11.595187,
					"patching_rect" : [ 193.0, 113.0, 33.0, 18.0 ],
					"id" : "obj-2",
					"numinlets" : 2,
					"fontname" : "Arial",
					"numoutlets" : 1
				}

			}
, 			{
				"box" : 				{
					"maxclass" : "newobj",
					"text" : "serial a 9600",
					"outlettype" : [ "int", "" ],
					"fontsize" : 11.595187,
					"patching_rect" : [ 214.0, 176.0, 77.0, 20.0 ],
					"id" : "obj-1",
					"numinlets" : 1,
					"fontname" : "Arial",
					"numoutlets" : 2,
					"color" : [ 0.356863, 0.768627, 0.0, 1.0 ]
				}

			}
, 			{
				"box" : 				{
					"maxclass" : "outlet",
					"patching_rect" : [ 40.0, 541.0, 25.0, 25.0 ],
					"id" : "obj-19",
					"numinlets" : 1,
					"numoutlets" : 0,
					"comment" : "Sensor1"
				}

			}
 ],
		"lines" : [ 			{
				"patchline" : 				{
					"source" : [ "obj-10", 0 ],
					"destination" : [ "obj-16", 0 ],
					"hidden" : 0,
					"midpoints" : [  ]
				}

			}
, 			{
				"patchline" : 				{
					"source" : [ "obj-5", 0 ],
					"destination" : [ "obj-1", 0 ],
					"hidden" : 0,
					"midpoints" : [  ]
				}

			}
, 			{
				"patchline" : 				{
					"source" : [ "obj-5", 0 ],
					"destination" : [ "obj-13", 0 ],
					"hidden" : 0,
					"midpoints" : [ 147.5, 297.0, 12.5, 297.0 ]
				}

			}
, 			{
				"patchline" : 				{
					"source" : [ "obj-5", 0 ],
					"destination" : [ "obj-17", 0 ],
					"hidden" : 0,
					"midpoints" : [  ]
				}

			}
, 			{
				"patchline" : 				{
					"source" : [ "obj-17", 0 ],
					"destination" : [ "obj-12", 0 ],
					"hidden" : 0,
					"midpoints" : [  ]
				}

			}
, 			{
				"patchline" : 				{
					"source" : [ "obj-12", 0 ],
					"destination" : [ "obj-10", 0 ],
					"hidden" : 0,
					"midpoints" : [  ]
				}

			}
, 			{
				"patchline" : 				{
					"source" : [ "obj-21", 6 ],
					"destination" : [ "obj-34", 0 ],
					"hidden" : 0,
					"midpoints" : [ 294.071442, 67.0, 398.0, 67.0, 398.0, 117.0, 398.0, 117.0, 398.0, 213.0, 336.5, 213.0 ]
				}

			}
, 			{
				"patchline" : 				{
					"source" : [ "obj-21", 5 ],
					"destination" : [ "obj-37", 0 ],
					"hidden" : 0,
					"midpoints" : [ 272.642853, 67.0, 276.0, 67.0, 276.0, 67.0, 482.0, 67.0, 482.0, 333.0, 331.5, 333.0 ]
				}

			}
, 			{
				"patchline" : 				{
					"source" : [ "obj-21", 4 ],
					"destination" : [ "obj-48", 0 ],
					"hidden" : 0,
					"midpoints" : [ 251.214279, 75.0, 309.5, 75.0 ]
				}

			}
, 			{
				"patchline" : 				{
					"source" : [ "obj-21", 3 ],
					"destination" : [ "obj-46", 0 ],
					"hidden" : 0,
					"midpoints" : [  ]
				}

			}
, 			{
				"patchline" : 				{
					"source" : [ "obj-21", 2 ],
					"destination" : [ "obj-2", 0 ],
					"hidden" : 0,
					"midpoints" : [  ]
				}

			}
, 			{
				"patchline" : 				{
					"source" : [ "obj-21", 1 ],
					"destination" : [ "obj-6", 0 ],
					"hidden" : 0,
					"midpoints" : [ 186.928574, 99.0, 147.5, 99.0 ]
				}

			}
, 			{
				"patchline" : 				{
					"source" : [ "obj-21", 0 ],
					"destination" : [ "obj-33", 0 ],
					"hidden" : 0,
					"midpoints" : [ 165.5, 99.0, 57.5, 99.0 ]
				}

			}
, 			{
				"patchline" : 				{
					"source" : [ "obj-3", 0 ],
					"destination" : [ "obj-21", 0 ],
					"hidden" : 0,
					"midpoints" : [  ]
				}

			}
, 			{
				"patchline" : 				{
					"source" : [ "obj-1", 0 ],
					"destination" : [ "obj-25", 1 ],
					"hidden" : 0,
					"midpoints" : [  ]
				}

			}
, 			{
				"patchline" : 				{
					"source" : [ "obj-1", 0 ],
					"destination" : [ "obj-23", 0 ],
					"hidden" : 0,
					"midpoints" : [  ]
				}

			}
, 			{
				"patchline" : 				{
					"source" : [ "obj-2", 0 ],
					"destination" : [ "obj-1", 0 ],
					"hidden" : 0,
					"midpoints" : [  ]
				}

			}
, 			{
				"patchline" : 				{
					"source" : [ "obj-46", 0 ],
					"destination" : [ "obj-1", 0 ],
					"hidden" : 0,
					"midpoints" : [  ]
				}

			}
, 			{
				"patchline" : 				{
					"source" : [ "obj-48", 0 ],
					"destination" : [ "obj-1", 0 ],
					"hidden" : 0,
					"midpoints" : [  ]
				}

			}
, 			{
				"patchline" : 				{
					"source" : [ "obj-9", 0 ],
					"destination" : [ "obj-39", 1 ],
					"hidden" : 0,
					"midpoints" : [  ]
				}

			}
, 			{
				"patchline" : 				{
					"source" : [ "obj-7", 0 ],
					"destination" : [ "obj-36", 1 ],
					"hidden" : 0,
					"midpoints" : [ 224.5, 303.0, 306.0, 303.0, 306.0, 249.0, 350.5, 249.0 ]
				}

			}
, 			{
				"patchline" : 				{
					"source" : [ "obj-39", 0 ],
					"destination" : [ "obj-38", 0 ],
					"hidden" : 0,
					"midpoints" : [  ]
				}

			}
, 			{
				"patchline" : 				{
					"source" : [ "obj-37", 0 ],
					"destination" : [ "obj-39", 0 ],
					"hidden" : 0,
					"midpoints" : [  ]
				}

			}
, 			{
				"patchline" : 				{
					"source" : [ "obj-36", 0 ],
					"destination" : [ "obj-35", 0 ],
					"hidden" : 0,
					"midpoints" : [  ]
				}

			}
, 			{
				"patchline" : 				{
					"source" : [ "obj-34", 0 ],
					"destination" : [ "obj-36", 0 ],
					"hidden" : 0,
					"midpoints" : [  ]
				}

			}
, 			{
				"patchline" : 				{
					"source" : [ "obj-33", 0 ],
					"destination" : [ "obj-25", 0 ],
					"hidden" : 0,
					"midpoints" : [  ]
				}

			}
, 			{
				"patchline" : 				{
					"source" : [ "obj-25", 0 ],
					"destination" : [ "obj-32", 0 ],
					"hidden" : 0,
					"midpoints" : [  ]
				}

			}
, 			{
				"patchline" : 				{
					"source" : [ "obj-23", 0 ],
					"destination" : [ "obj-4", 0 ],
					"hidden" : 0,
					"midpoints" : [  ]
				}

			}
, 			{
				"patchline" : 				{
					"source" : [ "obj-8", 0 ],
					"destination" : [ "obj-9", 0 ],
					"hidden" : 0,
					"midpoints" : [  ]
				}

			}
, 			{
				"patchline" : 				{
					"source" : [ "obj-7", 0 ],
					"destination" : [ "obj-8", 0 ],
					"hidden" : 0,
					"midpoints" : [  ]
				}

			}
, 			{
				"patchline" : 				{
					"source" : [ "obj-4", 2 ],
					"destination" : [ "obj-7", 0 ],
					"hidden" : 0,
					"midpoints" : [ 262.5, 274.0, 226.0, 274.0, 226.0, 279.0, 224.5, 279.0 ]
				}

			}
, 			{
				"patchline" : 				{
					"source" : [ "obj-4", 0 ],
					"destination" : [ "obj-7", 0 ],
					"hidden" : 0,
					"midpoints" : [  ]
				}

			}
, 			{
				"patchline" : 				{
					"source" : [ "obj-6", 0 ],
					"destination" : [ "obj-5", 0 ],
					"hidden" : 0,
					"midpoints" : [  ]
				}

			}
, 			{
				"patchline" : 				{
					"source" : [ "obj-10", 0 ],
					"destination" : [ "obj-12", 1 ],
					"hidden" : 0,
					"midpoints" : [ 516.5, 264.0, 575.0, 264.0, 575.0, 159.0, 528.0, 159.0 ]
				}

			}
, 			{
				"patchline" : 				{
					"source" : [ "obj-53", 0 ],
					"destination" : [ "obj-27", 15 ],
					"hidden" : 0,
					"midpoints" : [  ]
				}

			}
, 			{
				"patchline" : 				{
					"source" : [ "obj-52", 0 ],
					"destination" : [ "obj-27", 14 ],
					"hidden" : 0,
					"midpoints" : [  ]
				}

			}
, 			{
				"patchline" : 				{
					"source" : [ "obj-51", 0 ],
					"destination" : [ "obj-27", 13 ],
					"hidden" : 0,
					"midpoints" : [  ]
				}

			}
, 			{
				"patchline" : 				{
					"source" : [ "obj-50", 0 ],
					"destination" : [ "obj-27", 12 ],
					"hidden" : 0,
					"midpoints" : [  ]
				}

			}
, 			{
				"patchline" : 				{
					"source" : [ "obj-11", 0 ],
					"destination" : [ "obj-27", 11 ],
					"hidden" : 0,
					"midpoints" : [  ]
				}

			}
, 			{
				"patchline" : 				{
					"source" : [ "obj-18", 0 ],
					"destination" : [ "obj-27", 10 ],
					"hidden" : 0,
					"midpoints" : [  ]
				}

			}
, 			{
				"patchline" : 				{
					"source" : [ "obj-47", 0 ],
					"destination" : [ "obj-27", 9 ],
					"hidden" : 0,
					"midpoints" : [  ]
				}

			}
, 			{
				"patchline" : 				{
					"source" : [ "obj-20", 0 ],
					"destination" : [ "obj-27", 8 ],
					"hidden" : 0,
					"midpoints" : [  ]
				}

			}
, 			{
				"patchline" : 				{
					"source" : [ "obj-45", 0 ],
					"destination" : [ "obj-27", 7 ],
					"hidden" : 0,
					"midpoints" : [  ]
				}

			}
, 			{
				"patchline" : 				{
					"source" : [ "obj-44", 0 ],
					"destination" : [ "obj-27", 6 ],
					"hidden" : 0,
					"midpoints" : [  ]
				}

			}
, 			{
				"patchline" : 				{
					"source" : [ "obj-43", 0 ],
					"destination" : [ "obj-27", 5 ],
					"hidden" : 0,
					"midpoints" : [  ]
				}

			}
, 			{
				"patchline" : 				{
					"source" : [ "obj-26", 0 ],
					"destination" : [ "obj-27", 4 ],
					"hidden" : 0,
					"midpoints" : [  ]
				}

			}
, 			{
				"patchline" : 				{
					"source" : [ "obj-22", 0 ],
					"destination" : [ "obj-27", 3 ],
					"hidden" : 0,
					"midpoints" : [  ]
				}

			}
, 			{
				"patchline" : 				{
					"source" : [ "obj-31", 0 ],
					"destination" : [ "obj-27", 2 ],
					"hidden" : 0,
					"midpoints" : [  ]
				}

			}
, 			{
				"patchline" : 				{
					"source" : [ "obj-27", 0 ],
					"destination" : [ "obj-24", 0 ],
					"hidden" : 0,
					"midpoints" : [  ]
				}

			}
, 			{
				"patchline" : 				{
					"source" : [ "obj-55", 0 ],
					"destination" : [ "obj-27", 0 ],
					"hidden" : 0,
					"midpoints" : [  ]
				}

			}
, 			{
				"patchline" : 				{
					"source" : [ "obj-54", 0 ],
					"destination" : [ "obj-27", 1 ],
					"hidden" : 0,
					"midpoints" : [  ]
				}

			}
, 			{
				"patchline" : 				{
					"source" : [ "obj-56", 2 ],
					"destination" : [ "obj-31", 0 ],
					"hidden" : 0,
					"midpoints" : [  ]
				}

			}
, 			{
				"patchline" : 				{
					"source" : [ "obj-56", 1 ],
					"destination" : [ "obj-54", 0 ],
					"hidden" : 0,
					"midpoints" : [  ]
				}

			}
, 			{
				"patchline" : 				{
					"source" : [ "obj-56", 0 ],
					"destination" : [ "obj-55", 0 ],
					"hidden" : 0,
					"midpoints" : [  ]
				}

			}
, 			{
				"patchline" : 				{
					"source" : [ "obj-56", 3 ],
					"destination" : [ "obj-22", 0 ],
					"hidden" : 0,
					"midpoints" : [  ]
				}

			}
, 			{
				"patchline" : 				{
					"source" : [ "obj-56", 4 ],
					"destination" : [ "obj-26", 0 ],
					"hidden" : 0,
					"midpoints" : [  ]
				}

			}
, 			{
				"patchline" : 				{
					"source" : [ "obj-56", 5 ],
					"destination" : [ "obj-43", 0 ],
					"hidden" : 0,
					"midpoints" : [  ]
				}

			}
, 			{
				"patchline" : 				{
					"source" : [ "obj-56", 6 ],
					"destination" : [ "obj-44", 0 ],
					"hidden" : 0,
					"midpoints" : [  ]
				}

			}
, 			{
				"patchline" : 				{
					"source" : [ "obj-56", 7 ],
					"destination" : [ "obj-45", 0 ],
					"hidden" : 0,
					"midpoints" : [  ]
				}

			}
, 			{
				"patchline" : 				{
					"source" : [ "obj-56", 8 ],
					"destination" : [ "obj-20", 0 ],
					"hidden" : 0,
					"midpoints" : [  ]
				}

			}
, 			{
				"patchline" : 				{
					"source" : [ "obj-56", 9 ],
					"destination" : [ "obj-47", 0 ],
					"hidden" : 0,
					"midpoints" : [  ]
				}

			}
, 			{
				"patchline" : 				{
					"source" : [ "obj-56", 10 ],
					"destination" : [ "obj-18", 0 ],
					"hidden" : 0,
					"midpoints" : [  ]
				}

			}
, 			{
				"patchline" : 				{
					"source" : [ "obj-56", 11 ],
					"destination" : [ "obj-11", 0 ],
					"hidden" : 0,
					"midpoints" : [  ]
				}

			}
, 			{
				"patchline" : 				{
					"source" : [ "obj-56", 12 ],
					"destination" : [ "obj-50", 0 ],
					"hidden" : 0,
					"midpoints" : [  ]
				}

			}
, 			{
				"patchline" : 				{
					"source" : [ "obj-56", 13 ],
					"destination" : [ "obj-51", 0 ],
					"hidden" : 0,
					"midpoints" : [  ]
				}

			}
, 			{
				"patchline" : 				{
					"source" : [ "obj-56", 14 ],
					"destination" : [ "obj-52", 0 ],
					"hidden" : 0,
					"midpoints" : [  ]
				}

			}
, 			{
				"patchline" : 				{
					"source" : [ "obj-56", 15 ],
					"destination" : [ "obj-53", 0 ],
					"hidden" : 0,
					"midpoints" : [  ]
				}

			}
, 			{
				"patchline" : 				{
					"source" : [ "obj-55", 0 ],
					"destination" : [ "obj-19", 0 ],
					"hidden" : 0,
					"midpoints" : [  ]
				}

			}
, 			{
				"patchline" : 				{
					"source" : [ "obj-54", 0 ],
					"destination" : [ "obj-57", 0 ],
					"hidden" : 0,
					"midpoints" : [  ]
				}

			}
, 			{
				"patchline" : 				{
					"source" : [ "obj-31", 0 ],
					"destination" : [ "obj-58", 0 ],
					"hidden" : 0,
					"midpoints" : [  ]
				}

			}
, 			{
				"patchline" : 				{
					"source" : [ "obj-22", 0 ],
					"destination" : [ "obj-59", 0 ],
					"hidden" : 0,
					"midpoints" : [  ]
				}

			}
, 			{
				"patchline" : 				{
					"source" : [ "obj-26", 0 ],
					"destination" : [ "obj-60", 0 ],
					"hidden" : 0,
					"midpoints" : [  ]
				}

			}
, 			{
				"patchline" : 				{
					"source" : [ "obj-43", 0 ],
					"destination" : [ "obj-61", 0 ],
					"hidden" : 0,
					"midpoints" : [  ]
				}

			}
, 			{
				"patchline" : 				{
					"source" : [ "obj-44", 0 ],
					"destination" : [ "obj-62", 0 ],
					"hidden" : 0,
					"midpoints" : [  ]
				}

			}
, 			{
				"patchline" : 				{
					"source" : [ "obj-45", 0 ],
					"destination" : [ "obj-63", 0 ],
					"hidden" : 0,
					"midpoints" : [  ]
				}

			}
, 			{
				"patchline" : 				{
					"source" : [ "obj-20", 0 ],
					"destination" : [ "obj-64", 0 ],
					"hidden" : 0,
					"midpoints" : [  ]
				}

			}
, 			{
				"patchline" : 				{
					"source" : [ "obj-47", 0 ],
					"destination" : [ "obj-65", 0 ],
					"hidden" : 0,
					"midpoints" : [  ]
				}

			}
, 			{
				"patchline" : 				{
					"source" : [ "obj-18", 0 ],
					"destination" : [ "obj-66", 0 ],
					"hidden" : 0,
					"midpoints" : [  ]
				}

			}
, 			{
				"patchline" : 				{
					"source" : [ "obj-11", 0 ],
					"destination" : [ "obj-67", 0 ],
					"hidden" : 0,
					"midpoints" : [  ]
				}

			}
, 			{
				"patchline" : 				{
					"source" : [ "obj-50", 0 ],
					"destination" : [ "obj-68", 0 ],
					"hidden" : 0,
					"midpoints" : [  ]
				}

			}
, 			{
				"patchline" : 				{
					"source" : [ "obj-52", 0 ],
					"destination" : [ "obj-69", 0 ],
					"hidden" : 0,
					"midpoints" : [  ]
				}

			}
, 			{
				"patchline" : 				{
					"source" : [ "obj-53", 0 ],
					"destination" : [ "obj-70", 0 ],
					"hidden" : 0,
					"midpoints" : [  ]
				}

			}
, 			{
				"patchline" : 				{
					"source" : [ "obj-51", 0 ],
					"destination" : [ "obj-71", 0 ],
					"hidden" : 0,
					"midpoints" : [  ]
				}

			}
, 			{
				"patchline" : 				{
					"source" : [ "obj-9", 0 ],
					"destination" : [ "obj-56", 0 ],
					"hidden" : 0,
					"midpoints" : [  ]
				}

			}
 ]
	}

}
